<svg width="1920" height="890" viewBox="0 0 1920 890" fill="none" xmlns="http://www.w3.org/2000/svg">
<g clip-path="url(#clip0_1_115)">
<rect width="1920" height="890" fill="#1E2124"/>
<path opacity="0.62" d="M-50.8893 688.209C-50.8893 688.209 -156.007 622.376 -150.401 445.887C-144.794 269.397 -150.625 248.387 -150.625 248.387C-150.625 248.387 -322.793 422.074 -209.266 623.777C-95.7395 825.479 29 867.5 29 867.5V77.5L-50.8893 144.734V688.209Z" fill="white" fill-opacity="0.03"/>
<path opacity="0.62" d="M440.246 78.8678V598.799H535.68V288.992C535.68 288.992 642.342 366.037 635.325 498.415C628.307 630.793 384.109 808.698 384.109 808.698V15.8306L291.482 -36V413.665H262.009L190.434 342.223V-36L99.2103 15.8306V391.252L170.084 461.994L95 536.938V903.955L240.958 981C240.958 981 673.218 801.694 723.741 517.326C723.741 517.326 760.231 290.393 440.246 78.8678ZM290.078 852.124L238.909 877.339L187.739 852.124V573.472L255.217 506.12H290.078V852.124Z" fill="white" fill-opacity="0.03"/>
</g>
<defs>
<clipPath id="clip0_1_115">
<rect width="1920" height="890" fill="white"/>
</clipPath>
</defs>
</svg>
