<svg width="48" height="39" viewBox="0 0 48 39" fill="none" xmlns="http://www.w3.org/2000/svg">
<g filter="url(#filter0_d_2217_3053)">
<g clip-path="url(#clip0_2217_3053)">
<path fill-rule="evenodd" clip-rule="evenodd" d="M4 0.638123H44V30.6381H4V0.638123Z" fill="#229E45"/>
<path fill-rule="evenodd" clip-rule="evenodd" d="M24.0875 27.8881L42.9312 15.6569L23.975 3.38812L5.06873 15.6819L24.0875 27.8881Z" fill="#F8E509"/>
<path fill-rule="evenodd" clip-rule="evenodd" d="M32.3 15.6381C32.3 20.0319 28.7313 23.5944 24.325 23.5944C22.7504 23.5919 21.212 23.1226 19.904 22.2459C18.5961 21.3692 17.5775 20.1244 16.9769 18.6689C16.3764 17.2133 16.2208 15.6124 16.53 14.0685C16.8391 12.5246 17.5991 11.107 18.7138 9.99492C19.8285 8.88284 21.2479 8.12622 22.7925 7.8207C24.3372 7.51519 25.9377 7.67449 27.3918 8.27848C28.846 8.88246 30.0884 9.90401 30.962 11.214C31.8356 12.524 32.3012 14.0635 32.3 15.6381Z" fill="#2B49A3"/>
<path fill-rule="evenodd" clip-rule="evenodd" d="M21.7063 20.4069L21.4563 20.2631L21.2063 20.3881L21.2625 20.1069L21.0625 19.8944L21.3438 19.8631L21.4813 19.6131L21.6 19.8756L21.875 19.9256L21.6688 20.1131M27.0438 21.7569L26.8 21.6131L26.55 21.7381L26.6 21.4569L26.4063 21.2506L26.6875 21.2194L26.8188 20.9631L26.9438 21.2256L27.2188 21.2756L27.0063 21.4694M24.7438 19.5944L24.5313 19.4694L24.3125 19.5819L24.3625 19.3381L24.1875 19.1569L24.4375 19.1319L24.55 18.9069L24.65 19.1381L24.8938 19.1819L24.7063 19.3506M30.1438 18.8194L29.9313 18.6944L29.7125 18.8069L29.7625 18.5631L29.5938 18.3881L29.8375 18.3631L29.95 18.1444L30.05 18.3694L30.2875 18.4131L30.1063 18.5756M24.65 17.2006L24.4 17.0631L24.15 17.1881L24.2 16.9006L24.0063 16.6944L24.2875 16.6631L24.4188 16.4069L24.5438 16.6694L24.8188 16.7194L24.6063 16.9194M18.0688 14.7319L17.8188 14.5944L17.5688 14.7194L17.6313 14.4319L17.425 14.2256L17.7125 14.1944L17.8375 13.9381L17.9625 14.2006L18.2375 14.2506L18.0313 14.4444M18.8625 18.0194L18.6125 17.8756L18.3625 18.0006L18.4188 17.7194L18.2188 17.5131L18.5 17.4756L18.6313 17.2256L18.7563 17.4881L19.0313 17.5381L18.825 17.7319M27.075 13.5256L26.85 13.4006L26.625 13.5131L26.675 13.2631L26.5 13.0756L26.75 13.0444L26.8688 12.8194L26.975 13.0569L27.225 13.1006L27.0375 13.2694M26.6188 15.6631L26.45 15.5631L26.2688 15.6506L26.3063 15.4506L26.1688 15.3069L26.3688 15.2819L26.4625 15.1069L26.5438 15.2944L26.7313 15.3256L26.5938 15.4631M17.7063 18.6131L17.5375 18.5194L17.3688 18.6006L17.4063 18.4131L17.275 18.2756L17.4625 18.2506L17.55 18.0819L17.6313 18.2569L17.8188 18.2944L17.675 18.4194M30.1875 19.3756L30.05 19.3069L29.9125 19.3694L29.9438 19.2256L29.8375 19.1256L29.9875 19.1069L30.0625 18.9819L30.125 19.1069L30.2813 19.1381L30.1625 19.2319" fill="#FFFFEF"/>
<path fill-rule="evenodd" clip-rule="evenodd" d="M17.7063 18.6131L17.5375 18.5193L17.3688 18.6006L17.4063 18.4131L17.275 18.2756L17.4625 18.2506L17.55 18.0818L17.6313 18.2568L17.8188 18.2943L17.675 18.4193" fill="#FFFFEF"/>
<path fill-rule="evenodd" clip-rule="evenodd" d="M17.7063 18.6131L17.5375 18.5194L17.3688 18.6006L17.4063 18.4131L17.275 18.2756L17.4625 18.2506L17.55 18.0819L17.6313 18.2569L17.8188 18.2944L17.675 18.4194M20.3188 18.6069L20.1563 18.5194L19.9875 18.6006L20.025 18.4131L19.8938 18.2756L20.0813 18.2506L20.1688 18.0819L20.25 18.2569L20.4375 18.2881L20.2938 18.4194M19.9938 19.4819L19.8313 19.3881L19.6625 19.4756L19.7 19.2881L19.5688 19.1444L19.7563 19.1194L19.8438 18.9506L19.925 19.1256L20.1125 19.1631L19.9688 19.2881M25.4313 17.9006L25.2688 17.8006L25.0938 17.8881L25.1313 17.7006L25.0063 17.5569L25.1938 17.5381L25.2813 17.3694L25.3563 17.5444L25.5438 17.5756L25.4063 17.7069M23.8375 17.8944L23.6688 17.8006L23.5 17.8881L23.5375 17.7006L23.4125 17.5569L23.6 17.5381L23.6875 17.3631L23.7625 17.5444L23.95 17.5756L23.8125 17.7069M19.5125 17.3444L19.4063 17.2819L19.3 17.3319L19.325 17.2131L19.2438 17.1256L19.3625 17.1131L19.4125 17.0069L19.4625 17.1194L19.5813 17.1381L19.4938 17.2194M29.9813 20.0569L29.8188 19.9631L29.65 20.0506L29.6875 19.8631L29.5563 19.7194L29.7438 19.6944L29.8313 19.5256L29.9125 19.7006L30.1 19.7381L29.9563 19.8631M28.6563 20.2381L28.5188 20.1506L28.375 20.2256L28.4063 20.0631L28.3 19.9506L28.4563 19.9319L28.5313 19.7881L28.5938 19.9381L28.75 19.9631L28.6313 20.0756M29.2813 20.2194L29.1563 20.1444L29.025 20.2069L29.05 20.0631L28.95 19.9569L29.0938 19.9381L29.1625 19.8131L29.225 19.9381L29.3688 19.9694L29.2625 20.0694M31.0813 18.6444L30.9563 18.5819L30.8313 18.6444L30.8625 18.5006L30.7625 18.3944L30.9063 18.3756L30.9688 18.2506L31.0313 18.3819L31.1625 18.4069L31.0625 18.5069M28.6375 21.1194L28.4813 21.0319L28.3125 21.1069L28.35 20.9319L28.225 20.8069L28.4125 20.7881L28.4938 20.6319L28.5688 20.7944L28.7563 20.8256L28.6125 20.9444M28.65 21.8319L28.5 21.7444L28.35 21.8256L28.3875 21.6506L28.2688 21.5256L28.4375 21.5006L28.5125 21.3444L28.5813 21.5069L28.75 21.5381L28.625 21.6631M27.4375 20.2194L27.3188 20.1444L27.1938 20.2069L27.2188 20.0694L27.125 19.9631L27.2625 19.9506L27.325 19.8256L27.3875 19.9506L27.525 19.9756L27.425 20.0756M26.3125 20.2194L26.1875 20.1444L26.0625 20.2069L26.0938 20.0694L25.9938 19.9631L26.1375 19.9506L26.2 19.8256L26.2625 19.9506L26.3938 19.9756L26.2938 20.0756M24.3938 18.5381L24.2688 18.4694L24.1438 18.5319L24.175 18.3881L24.075 18.2881L24.2125 18.2694L24.275 18.1444L24.3375 18.2694L24.475 18.3006L24.375 18.3944M24.6063 21.9569L24.5063 21.9006L24.3938 21.9569L24.4188 21.8319L24.3375 21.7444L24.4563 21.7319L24.5125 21.6256L24.5625 21.7381L24.6813 21.7569L24.5938 21.8381M21.7063 16.4256L21.4563 16.2819L21.2063 16.4069L21.2625 16.1256L21.0625 15.9194L21.3438 15.8819L21.4813 15.6319L21.6 15.8944L21.875 15.9444L21.6688 16.1381" fill="#FFFFEF"/>
<path fill-rule="evenodd" clip-rule="evenodd" d="M31.775 18.5006C31.9298 18.0989 32.0511 17.6849 32.1375 17.2631C27.9 13.5444 23.1813 11.6381 17.2188 12.0319C17.0025 12.4503 16.8247 12.8875 16.6875 13.3381C23.75 12.6631 28.9375 15.7881 31.775 18.5006Z" fill="white"/>
<path d="M29.875 16.4131L30.0187 16.4944C29.9972 16.5368 29.9906 16.5852 30 16.6319C30.0146 16.6771 30.0459 16.7151 30.0875 16.7381C30.1312 16.7694 30.1749 16.7881 30.2125 16.7819C30.25 16.7819 30.275 16.7631 30.2937 16.7381C30.3046 16.7215 30.309 16.7015 30.3062 16.6819C30.3011 16.6588 30.2903 16.6373 30.275 16.6194C30.2625 16.6006 30.2312 16.5569 30.1812 16.5069C30.1298 16.4538 30.0913 16.3897 30.0687 16.3194C30.0531 16.2662 30.0571 16.2091 30.0801 16.1586C30.103 16.1082 30.1434 16.0676 30.1937 16.0444C30.2392 16.0254 30.2894 16.021 30.3375 16.0319C30.3962 16.0454 30.4515 16.0709 30.5 16.1069C30.5875 16.1694 30.6437 16.2319 30.6625 16.3069C30.6711 16.342 30.6722 16.3785 30.6658 16.414C30.6593 16.4496 30.6454 16.4833 30.625 16.5131L30.475 16.4194C30.4937 16.3819 30.4999 16.3444 30.4874 16.3131C30.4812 16.2819 30.4562 16.2506 30.4125 16.2256C30.3804 16.1998 30.3411 16.1845 30.2999 16.1819C30.2886 16.1815 30.2774 16.1842 30.2675 16.1897C30.2576 16.1952 30.2494 16.2033 30.2437 16.2131C30.2312 16.2319 30.2312 16.2506 30.2374 16.2756C30.2437 16.3006 30.275 16.3506 30.3375 16.4131C30.4 16.4756 30.4375 16.5319 30.4625 16.5694C30.4848 16.6103 30.4949 16.6568 30.4915 16.7034C30.4882 16.7499 30.4716 16.7945 30.4437 16.8319C30.4145 16.8744 30.3731 16.907 30.325 16.9256C30.2781 16.9472 30.2257 16.9538 30.1749 16.9444C30.1187 16.9319 30.0625 16.9069 30 16.8631C29.9062 16.8006 29.8499 16.7319 29.8312 16.6569C29.8108 16.5718 29.8243 16.4822 29.8687 16.4069L29.875 16.4131ZM29.15 15.9381L29.3062 16.0194C29.2868 16.0625 29.2824 16.1109 29.2937 16.1569C29.3097 16.1998 29.3408 16.2353 29.3812 16.2569C29.4312 16.2881 29.4687 16.3006 29.5062 16.2944C29.5437 16.2944 29.5687 16.2756 29.5875 16.2444C29.5969 16.2295 29.6013 16.212 29.6 16.1944C29.6 16.1756 29.5875 16.1506 29.5687 16.1319C29.5367 16.0932 29.5033 16.0557 29.4687 16.0194C29.4 15.9506 29.3562 15.8944 29.3437 15.8444C29.3335 15.8122 29.3304 15.7782 29.3347 15.7447C29.3391 15.7113 29.3506 15.6791 29.3687 15.6506C29.3925 15.6121 29.4273 15.5816 29.4687 15.5631C29.5116 15.5433 29.5595 15.5368 29.6062 15.5444C29.664 15.5541 29.7193 15.5754 29.7687 15.6069C29.8624 15.6694 29.9187 15.7319 29.9375 15.8006C29.9488 15.8358 29.9525 15.8729 29.9482 15.9096C29.9439 15.9463 29.9317 15.9816 29.9125 16.0131L29.7562 15.9256C29.775 15.8819 29.7812 15.8506 29.7687 15.8194C29.7562 15.7881 29.7312 15.7569 29.6875 15.7319C29.6529 15.7071 29.6113 15.6939 29.5687 15.6944C29.5584 15.6951 29.5485 15.6983 29.5398 15.7037C29.5311 15.7092 29.5238 15.7167 29.5187 15.7256C29.5062 15.7444 29.5062 15.7631 29.5125 15.7881C29.5187 15.8131 29.5562 15.8631 29.6187 15.9256C29.6812 15.9881 29.7249 16.0381 29.7437 16.0756C29.7687 16.1148 29.7821 16.1604 29.7821 16.2069C29.7821 16.2534 29.7687 16.2989 29.7437 16.3381C29.7168 16.3817 29.6777 16.4165 29.6312 16.4381C29.5843 16.4597 29.5319 16.4663 29.4812 16.4569C29.4169 16.446 29.3553 16.4226 29.2999 16.3881C29.2192 16.3451 29.1569 16.2739 29.125 16.1881C29.1008 16.1047 29.1098 16.0151 29.15 15.9381ZM28.2625 15.7006L28.7187 14.9506L29.2687 15.2944L29.1937 15.4194L28.7937 15.1694L28.6937 15.3381L29.0687 15.5694L28.9874 15.6944L28.6124 15.4631L28.4874 15.6694L28.9062 15.9194L28.8312 16.0444L28.2687 15.7006H28.2625ZM26.9687 14.6381L27.0375 14.5131L27.375 14.6819L27.2187 14.9944C27.1687 15.0069 27.1062 15.0131 27.0312 15.0069C26.9592 14.9989 26.8893 14.9777 26.825 14.9444C26.7493 14.9075 26.6847 14.8515 26.6375 14.7819C26.5945 14.7172 26.5726 14.6408 26.575 14.5631C26.5781 14.4823 26.5995 14.4033 26.6375 14.3319C26.675 14.2567 26.7309 14.1922 26.7999 14.1444C26.866 14.0987 26.9446 14.0747 27.025 14.0756C27.0875 14.0756 27.15 14.0944 27.225 14.1381C27.325 14.1819 27.3875 14.2444 27.4187 14.3131C27.4512 14.3814 27.4579 14.4591 27.4375 14.5319L27.2687 14.4819C27.279 14.44 27.2746 14.3959 27.2562 14.3569C27.2375 14.3194 27.2062 14.2944 27.1562 14.2694C27.1271 14.2527 27.0947 14.2425 27.0613 14.2392C27.0279 14.236 26.9942 14.2399 26.9625 14.2506C26.9 14.2694 26.8437 14.3256 26.7999 14.4131C26.7562 14.5006 26.7375 14.5819 26.7562 14.6506C26.7648 14.6832 26.7805 14.7136 26.8021 14.7395C26.8237 14.7654 26.8507 14.7862 26.8812 14.8006C26.9125 14.8194 26.9499 14.8319 26.9874 14.8319C27.0247 14.8375 27.0627 14.8375 27.1 14.8319L27.15 14.7319L26.9687 14.6381ZM21.3312 13.2444L21.4562 12.3694L21.7187 12.4131L21.7875 13.0256L22.0312 12.4631L22.2937 12.5006L22.1687 13.3631L22 13.3381L22.1062 12.6569L21.8312 13.3131L21.6625 13.2881L21.5937 12.5819L21.4937 13.2694L21.3312 13.2444ZM20.45 13.1381L20.5312 12.2631L21.1749 12.3256L21.1625 12.4756L20.6937 12.4319L20.6749 12.6194L21.1124 12.6631L21.0937 12.8131L20.6562 12.7694L20.6375 13.0069L21.125 13.0506L21.1124 13.2006L20.45 13.1381Z" fill="#309E3A"/>
<path d="M17.5313 12.5943C17.5313 12.5006 17.55 12.4318 17.575 12.3693C17.5969 12.3249 17.6266 12.2847 17.6625 12.2506C17.6946 12.2183 17.7328 12.1928 17.775 12.1756C17.8375 12.1568 17.9 12.1443 17.9625 12.1443C18.0938 12.1443 18.1938 12.1943 18.275 12.2693C18.3137 12.3171 18.3425 12.3721 18.3596 12.4312C18.3768 12.4902 18.382 12.552 18.375 12.6131C18.375 12.7506 18.3313 12.8631 18.25 12.9443C18.2083 12.9829 18.1589 13.0123 18.105 13.0306C18.0512 13.0489 17.9941 13.0557 17.9375 13.0506C17.8817 13.0512 17.8263 13.0404 17.7747 13.0189C17.7231 12.9974 17.6765 12.9657 17.6375 12.9256C17.5597 12.8335 17.5216 12.7145 17.5313 12.5943Z" fill="#309E3A"/>
<path d="M17.7125 12.5944C17.7125 12.6881 17.7313 12.7631 17.775 12.8194C17.8188 12.8694 17.875 12.9006 17.95 12.9006C17.9825 12.9029 18.015 12.8979 18.0453 12.886C18.0756 12.8741 18.1028 12.8556 18.125 12.8319C18.1688 12.7819 18.1875 12.7069 18.1938 12.6006C18.1938 12.5006 18.1813 12.4256 18.1313 12.3756C18.1109 12.3504 18.0852 12.3301 18.056 12.316C18.0269 12.302 17.9949 12.2946 17.9625 12.2944C17.9296 12.2933 17.8969 12.2995 17.8667 12.3124C17.8365 12.3254 17.8094 12.3448 17.7875 12.3694C17.7375 12.4194 17.7188 12.4944 17.7125 12.5944Z" fill="#F7FFFF"/>
<path d="M18.5625 13.0444L18.575 12.1694H18.95C19.0437 12.1694 19.1062 12.1819 19.15 12.2006C19.1937 12.2131 19.225 12.2444 19.25 12.2819C19.275 12.3194 19.2875 12.3694 19.2875 12.4256C19.288 12.4857 19.2657 12.5438 19.225 12.5881C19.1788 12.6314 19.1193 12.6578 19.0562 12.6631L19.15 12.7381C19.175 12.7631 19.2062 12.8131 19.2437 12.8819L19.35 13.0569H19.1375L19.0125 12.8569L18.925 12.7319C18.9098 12.7147 18.8905 12.7017 18.8687 12.6944C18.8403 12.6861 18.8109 12.6819 18.7812 12.6819H18.7437V13.0444H18.5625Z" fill="#309E3A"/>
<path d="M18.75 12.5444H18.875C18.9625 12.5444 19.0188 12.5444 19.0375 12.5319C19.0563 12.5319 19.075 12.5131 19.0875 12.5006C19.1 12.4881 19.1062 12.4569 19.1062 12.4381C19.1062 12.4006 19.1 12.3756 19.0813 12.3631C19.0688 12.3444 19.0438 12.3319 19.0188 12.3256H18.8938L18.75 12.3194V12.5381V12.5444Z" fill="white"/>
<path d="M19.5625 12.2131L19.8875 12.2319C19.9563 12.2319 20.0125 12.2381 20.05 12.2506C20.0987 12.2683 20.1418 12.2985 20.175 12.3381C20.2111 12.3818 20.2367 12.4331 20.25 12.4881C20.2688 12.5444 20.275 12.6131 20.2688 12.6944C20.2687 12.7582 20.2582 12.8215 20.2375 12.8819C20.2125 12.9444 20.175 12.9944 20.1313 13.0319C20.0949 13.0619 20.0521 13.0833 20.0063 13.0944C19.9688 13.1069 19.9125 13.1069 19.85 13.1069L19.5188 13.0881L19.5625 12.2131Z" fill="#309E3A"/>
<path d="M19.7313 12.3694L19.7001 12.9506H19.9376C19.9688 12.9506 19.9938 12.9381 20.0126 12.9194C20.0313 12.9006 20.0501 12.8756 20.0626 12.8381C20.0751 12.8006 20.0876 12.7444 20.0876 12.6756L20.0813 12.5194C20.0724 12.4864 20.0552 12.4563 20.0313 12.4319C20.0106 12.411 19.9847 12.3959 19.9563 12.3881C19.9091 12.3776 19.861 12.3713 19.8126 12.3694H19.7313Z" fill="white"/>
<path d="M23.85 13.7756L24.0562 12.9256L24.3312 12.9881L24.5312 13.0506C24.575 13.0756 24.6125 13.1131 24.6312 13.1693C24.6562 13.2193 24.6562 13.2756 24.6437 13.3443C24.6312 13.3943 24.6125 13.4381 24.5812 13.4693C24.5583 13.4968 24.5296 13.5189 24.4972 13.534C24.4648 13.5491 24.4295 13.5569 24.3937 13.5568C24.35 13.5568 24.2875 13.5443 24.2062 13.5256L24.1 13.4943L24.025 13.8193L23.85 13.7756Z" fill="#309E3A"/>
<path d="M24.1875 13.1131L24.1375 13.3506L24.2312 13.3756C24.2937 13.3881 24.3437 13.4006 24.3687 13.3943C24.393 13.391 24.4157 13.3801 24.4336 13.3634C24.4515 13.3466 24.4638 13.3246 24.4687 13.3006C24.4687 13.2693 24.4687 13.2443 24.4562 13.2193C24.4425 13.1939 24.4204 13.1741 24.3937 13.1631L24.275 13.1318L24.1937 13.1131H24.1875Z" fill="white"/>
<path d="M24.6625 14.0194L24.9562 13.1944L25.3 13.3194C25.3937 13.3506 25.45 13.3819 25.4875 13.4069C25.5187 13.4381 25.5437 13.4694 25.55 13.5194C25.5562 13.5694 25.5625 13.6131 25.55 13.6631C25.525 13.7256 25.4875 13.7694 25.4375 13.8006C25.3875 13.8256 25.325 13.8319 25.25 13.8194C25.275 13.8506 25.3 13.8819 25.3125 13.9194L25.3625 14.0881L25.4 14.2819L25.2062 14.2131L25.1437 13.9881C25.1324 13.9373 25.1178 13.8872 25.1 13.8381C25.0917 13.8187 25.0788 13.8016 25.0625 13.7881C25.05 13.7694 25.025 13.7569 24.9812 13.7444L24.95 13.7319L24.825 14.0819L24.6625 14.0194Z" fill="#309E3A"/>
<path d="M25 13.6007L25.1188 13.6444C25.2 13.6757 25.25 13.6882 25.275 13.6882C25.2938 13.6882 25.3125 13.6882 25.3313 13.6694C25.35 13.6569 25.3625 13.6382 25.3688 13.6132C25.3813 13.5882 25.3813 13.5632 25.3688 13.5382C25.3595 13.5139 25.3417 13.4939 25.3188 13.4819L25.1938 13.4382L25.0688 13.3944L24.9938 13.6007H25Z" fill="white"/>
<path d="M25.6875 13.9881C25.709 13.915 25.7452 13.8469 25.7938 13.7881C25.8254 13.7504 25.8635 13.7187 25.9063 13.6944C25.945 13.6725 25.9873 13.6577 26.0313 13.6506C26.0938 13.6506 26.1563 13.6506 26.225 13.6756C26.2809 13.6895 26.3332 13.715 26.3784 13.7506C26.4237 13.7861 26.4609 13.8309 26.4875 13.8819C26.5375 13.9819 26.5375 14.1006 26.5 14.2381C26.4691 14.3563 26.3927 14.4574 26.2875 14.5194C26.1938 14.5756 26.0813 14.5819 25.9625 14.5444C25.9068 14.5302 25.8547 14.5045 25.8095 14.469C25.7643 14.4335 25.727 14.3889 25.7 14.3381C25.675 14.2835 25.661 14.2244 25.6589 14.1644C25.6567 14.1043 25.6665 14.0444 25.6875 13.9881Z" fill="#309E3A"/>
<path d="M25.8625 14.0381C25.8375 14.1319 25.8312 14.2131 25.8625 14.2756C25.8937 14.3381 25.9375 14.3756 26.0062 14.4006C26.0687 14.4194 26.1312 14.4131 26.1937 14.3756C26.2562 14.3444 26.2937 14.2756 26.325 14.1756C26.3562 14.0819 26.3562 14.0069 26.325 13.9444C26.3126 13.9147 26.2939 13.8882 26.2702 13.8666C26.2464 13.845 26.2182 13.8288 26.1875 13.8194C26.1567 13.8088 26.124 13.8049 26.0917 13.8082C26.0593 13.8114 26.028 13.8216 26 13.8381C25.9375 13.8756 25.8937 13.9381 25.8625 14.0381Z" fill="white"/>
<path d="M27.3938 15.2069L27.7938 14.4319L28.125 14.6006C28.1875 14.6306 28.2445 14.6707 28.2938 14.7194C28.3251 14.7506 28.3438 14.7881 28.3438 14.8381C28.3438 14.8881 28.3438 14.9319 28.3188 14.9756C28.2948 15.0318 28.25 15.0766 28.1938 15.1006C28.1313 15.1131 28.0688 15.1131 28 15.0881C28.025 15.1256 28.0375 15.1631 28.05 15.1944C28.0625 15.2319 28.0688 15.2881 28.0751 15.3694L28.0875 15.5694L27.9 15.4756L27.875 15.2444C27.8721 15.192 27.8658 15.1398 27.8563 15.0881C27.852 15.0648 27.8412 15.0431 27.8251 15.0256L27.75 14.9819L27.7188 14.9631L27.55 15.2881L27.3938 15.2069Z" fill="#309E3A"/>
<path d="M27.7812 14.8381L27.9 14.9006C27.975 14.9381 28.025 14.9631 28.0438 14.9631C28.0625 14.9631 28.0875 14.9631 28.1063 14.9506C28.125 14.9444 28.1375 14.9256 28.15 14.9006C28.1625 14.8756 28.1688 14.8506 28.1625 14.8256C28.1548 14.8007 28.1395 14.7789 28.1187 14.7631C28.0822 14.7407 28.0446 14.7198 28.0063 14.7006L27.8813 14.6381L27.7812 14.8381Z" fill="white"/>
<path d="M30.6313 16.8069C30.6717 16.7426 30.7249 16.6873 30.7875 16.6444C30.8296 16.6175 30.8762 16.5984 30.925 16.5881C30.9704 16.5789 31.0172 16.5789 31.0625 16.5881C31.125 16.6006 31.1813 16.6256 31.2375 16.6631C31.2862 16.6934 31.328 16.7335 31.3602 16.7809C31.3925 16.8282 31.4146 16.8818 31.425 16.9381C31.4438 17.0444 31.4125 17.1631 31.3375 17.2819C31.2748 17.3852 31.1736 17.4593 31.0563 17.4881C31.0003 17.5002 30.9424 17.5003 30.8864 17.4885C30.8304 17.4766 30.7775 17.4531 30.7313 17.4194C30.6826 17.3891 30.6408 17.349 30.6085 17.3016C30.5763 17.2543 30.5542 17.2007 30.5438 17.1444C30.525 17.0319 30.5563 16.9194 30.6313 16.8069Z" fill="#309E3A"/>
<path d="M30.7875 16.9069C30.725 16.9881 30.7062 17.0631 30.7187 17.1319C30.7233 17.1635 30.7346 17.1938 30.7519 17.2208C30.7691 17.2477 30.7919 17.2707 30.8187 17.2881C30.8812 17.3319 30.9437 17.3444 31.0062 17.3256C31.0687 17.3069 31.1312 17.2631 31.1875 17.1756C31.2437 17.0881 31.2687 17.0131 31.2562 16.9506C31.25 16.8881 31.2125 16.8319 31.1562 16.7881C31.1 16.7444 31.0312 16.7381 30.9687 16.7569C30.9062 16.7694 30.8437 16.8194 30.7812 16.9069H30.7875Z" fill="white"/>
<path d="M22.8625 13.4194L23.0063 12.8069L23.4563 12.9131L23.4375 13.0131L23.1063 12.9381L23.0751 13.0756L23.3813 13.1444L23.3563 13.2506L23.05 13.1756L23.0126 13.3444L23.3563 13.4256L23.3313 13.5256L22.8625 13.4194Z" fill="#309E3A"/>
</g>
</g>
<defs>
<filter id="filter0_d_2217_3053" x="0" y="0.638123" width="48" height="38" filterUnits="userSpaceOnUse" color-interpolation-filters="sRGB">
<feFlood flood-opacity="0" result="BackgroundImageFix"/>
<feColorMatrix in="SourceAlpha" type="matrix" values="0 0 0 0 0 0 0 0 0 0 0 0 0 0 0 0 0 0 127 0" result="hardAlpha"/>
<feOffset dy="4"/>
<feGaussianBlur stdDeviation="2"/>
<feComposite in2="hardAlpha" operator="out"/>
<feColorMatrix type="matrix" values="0 0 0 0 0 0 0 0 0 0 0 0 0 0 0 0 0 0 0.25 0"/>
<feBlend mode="normal" in2="BackgroundImageFix" result="effect1_dropShadow_2217_3053"/>
<feBlend mode="normal" in="SourceGraphic" in2="effect1_dropShadow_2217_3053" result="shape"/>
</filter>
<clipPath id="clip0_2217_3053">
<rect x="4" y="0.638123" width="40" height="30" rx="4" fill="white"/>
</clipPath>
</defs>
</svg>
