<svg width="48" height="39" viewBox="0 0 48 39" fill="none" xmlns="http://www.w3.org/2000/svg">
<g filter="url(#filter0_d_2217_3088)">
<g clip-path="url(#clip0_2217_3088)">
<path d="M4 20.6381H44V30.6381H4V20.6381Z" fill="black"/>
<path d="M4 10.6381H44V20.6381H4V10.6381Z" fill="white"/>
<path d="M4 0.638123H44V10.6381H4V0.638123Z" fill="#CE1126"/>
<path d="M23.9797 15.4945L26.8915 18.198L26.6832 13.2884C26.6534 12.5445 26.0073 12.7146 25.5355 12.9824C25.0637 13.2884 24.5153 13.2884 23.9457 13.0886C23.3719 13.2884 22.8278 13.2884 22.356 12.9824C21.8884 12.7146 21.238 12.5445 21.2083 13.2884L21 18.198L23.9797 15.4945Z" fill="white" stroke="#C09300" stroke-width="0.1" stroke-linejoin="round"/>
<path d="M21.5441 13.1183L21.3401 17.8919L21 18.1979L21.2083 13.2884C21.3087 13.2114 21.4226 13.1537 21.5441 13.1183ZM21.9522 13.4584L21.7821 17.4541L21.4421 17.8026L21.6461 13.1906C21.7141 13.2586 21.9139 13.4244 21.9522 13.4584ZM22.322 13.7645L22.1902 17.097L21.9139 17.3648L22.0839 13.5647C22.1519 13.6284 22.288 13.7262 22.322 13.7645ZM22.7258 13.9345L22.594 16.7739L22.3262 16.9907L22.458 13.8325C22.526 13.8622 22.6578 13.9345 22.7258 13.9345ZM23.0998 13.9345L23.0021 16.3021L22.7258 16.5699L22.832 13.9642C22.8958 13.9642 23.0701 13.9642 23.0998 13.9345Z" fill="#C09300"/>
<path d="M26.3473 13.1183L26.5513 17.8919L26.8914 18.1979L26.6831 13.2884C26.5827 13.2114 26.4688 13.1537 26.3473 13.1183ZM25.9392 13.4584L26.1092 17.4541L26.4493 17.8026L26.2453 13.1906C26.1772 13.2586 25.9775 13.4244 25.9392 13.4584ZM25.5694 13.7645L25.7012 17.097L25.9775 17.3648L25.8074 13.5647C25.7394 13.6284 25.6034 13.7262 25.5694 13.7645ZM25.1656 13.9345L25.2973 16.7739L25.5651 16.9907L25.4334 13.8325C25.3654 13.8622 25.2336 13.9345 25.1656 13.9345ZM24.7915 13.9345L24.8893 16.3021L25.1656 16.5699L25.0593 13.9642C24.9955 13.9642 24.8213 13.9642 24.7915 13.9345Z" fill="#C09300"/>
<path d="M24.0822 16.0302L24.4903 17.892L24.3543 18.028L24.214 17.9217L23.9844 16.2639L24.0822 17.9217L23.9462 18.0917L23.8144 17.9217L23.9122 16.2639L23.6784 17.9217L23.5381 18.028L23.4021 17.892L23.8102 16.0344H24.0822V16.0302Z" fill="#C09300" stroke="#C09300" stroke-width="0.1"/>
<path d="M23.0326 15.2141L22.2207 18.0918L23.3386 18.2619L23.8105 16.0983L23.0326 15.2141Z" fill="white" stroke="#C09300" stroke-width="0.1" stroke-linejoin="round"/>
<path d="M22.7646 16.2003L22.8624 16.4341L23.3895 15.9326" stroke="#C09300" stroke-width="0.1" stroke-linejoin="round"/>
<path d="M23.1295 15.6052L23.2401 16.6381L23.5759 16.1961M23.4398 16.3661L23.6226 17.0037M23.6949 16.7699L23.3251 17.331M23.4398 17.8921L23.3208 17.331M23.3208 17.331L23.2188 16.7614L22.968 17.0972L22.8617 16.7104L22.5132 17.0675L22.6875 17.7136L22.934 17.314L23.0658 17.7221L23.3208 17.331Z" stroke="#C09300" stroke-width="0.1" stroke-linejoin="round"/>
<path d="M22.459 18.0281L22.6843 17.7093L22.8288 18.1981L23.0328 17.8581L23.1646 18.2661" stroke="#C09300" stroke-width="0.1" stroke-linejoin="round"/>
<path d="M24.8605 15.2141L25.6724 18.0918L24.5544 18.2619L24.0826 16.0983L24.8605 15.2141Z" fill="white" stroke="#C09300" stroke-width="0.1" stroke-linejoin="round"/>
<path d="M25.1284 16.2003L25.0307 16.4341L24.5036 15.9326" stroke="#C09300" stroke-width="0.1" stroke-linejoin="round"/>
<path d="M24.7635 15.6052L24.653 16.6381L24.3172 16.1961M24.4532 16.3661L24.2705 17.0037M24.1982 16.7699L24.568 17.331M24.4532 17.8921L24.5723 17.331M24.5723 17.331L24.6743 16.7614L24.9251 17.0972L25.0313 16.7104L25.3799 17.0675L25.2056 17.7136L24.9591 17.314L24.8273 17.7221L24.5723 17.331Z" stroke="#C09300" stroke-width="0.1" stroke-linejoin="round"/>
<path d="M25.4348 18.0281L25.2095 17.7093L25.065 18.1981L24.861 17.8581L24.7292 18.2661" stroke="#C09300" stroke-width="0.1" stroke-linejoin="round"/>
<path d="M23.9452 19.3796C24.7953 19.3796 25.603 19.3116 26.0791 19.1799C26.2788 19.1416 26.2788 19.0396 26.2788 18.9036C26.4829 18.8355 26.3809 18.5975 26.5211 18.5975C26.3766 18.64 26.3511 18.3637 26.1811 18.3977C26.1811 18.1597 25.9388 18.1299 25.739 18.1979C25.3352 18.3297 24.6211 18.3637 23.9452 18.3637C23.2651 18.3297 22.5595 18.3297 22.1514 18.1937C21.9516 18.1299 21.7136 18.1597 21.7136 18.3977C21.5436 18.3637 21.5138 18.6358 21.3735 18.5975C21.5138 18.5975 21.4075 18.8398 21.6116 18.9036C21.6116 19.0396 21.6116 19.1416 21.8156 19.1799C22.2832 19.3116 23.0993 19.3796 23.9452 19.3796Z" fill="white" stroke="#C09300" stroke-width="0.1" stroke-linecap="round" stroke-linejoin="round"/>
<path d="M22.7928 18.0917C23.0648 18.13 23.3709 18.1597 23.6089 18.13C23.7449 18.13 23.8427 18.3638 23.5706 18.3978C23.3368 18.4275 22.9628 18.3978 22.763 18.3638C22.5001 18.3178 22.2392 18.261 21.9809 18.1937C21.7428 18.0917 21.9129 17.8962 22.0489 17.9217C22.2916 17.9995 22.5404 18.0563 22.7928 18.0917ZM25.0966 18.0917C24.8246 18.13 24.5185 18.1597 24.289 18.13C24.1445 18.13 24.0467 18.3638 24.3188 18.3978C24.5568 18.4275 24.9266 18.3978 25.1264 18.3638C25.2964 18.3298 25.6705 18.266 25.9085 18.1937C26.1466 18.0917 25.9765 17.8962 25.8405 17.9217C25.5978 17.9995 25.349 18.0564 25.0966 18.0917Z" fill="white" stroke="#C09300" stroke-width="0.1" stroke-linecap="round" stroke-linejoin="round"/>
<path d="M21.9477 17.96C21.7436 17.9217 21.6501 18.1598 21.7139 18.2958C21.7436 18.2278 21.8839 18.2278 21.9137 18.1598C21.9519 18.0577 21.8839 18.0577 21.9519 17.96H21.9477ZM22.7638 18.5848C22.7638 18.4488 22.8956 18.4658 22.8956 18.3298C22.8956 18.266 22.8616 18.1598 22.7936 18.1598C22.7581 18.1618 22.7247 18.1768 22.6996 18.2019C22.6746 18.2269 22.6596 18.2604 22.6575 18.2958C22.6278 18.4276 22.7638 18.4488 22.7638 18.5848ZM23.7287 18.198C23.9285 18.198 23.9072 18.4658 23.8137 18.6018C23.8137 18.5041 23.6437 18.4658 23.6437 18.3978C23.6437 18.2958 23.7967 18.2958 23.7287 18.198ZM25.9391 17.96C26.1474 17.9217 26.2451 18.1598 26.1771 18.2958C26.1474 18.2278 26.0071 18.2278 25.9773 18.1598C25.9391 18.0577 26.0071 18.0577 25.9391 17.96ZM25.1357 18.5806C25.1357 18.4446 24.9997 18.4616 24.9997 18.3255C24.9997 18.2618 25.0337 18.1555 25.1017 18.1555C25.1371 18.1575 25.1705 18.1725 25.1956 18.1976C25.2207 18.2227 25.2357 18.2561 25.2377 18.2915C25.2675 18.4233 25.1314 18.4446 25.1314 18.5806H25.1357ZM24.158 18.198C23.9583 18.198 23.9795 18.4658 24.073 18.6018C24.073 18.5041 24.243 18.4658 24.243 18.3978C24.243 18.2958 24.09 18.2958 24.158 18.198Z" fill="white" stroke="#C09300" stroke-width="0.1" stroke-linecap="round" stroke-linejoin="round"/>
<path d="M22.0198 18.028C22.0878 18.028 22.1898 18.0577 22.2196 18.096L22.0198 18.028ZM22.3556 18.13C22.3896 18.13 22.5256 18.1597 22.5894 18.198L22.3556 18.13ZM23.5713 18.266C23.5075 18.266 23.3715 18.266 23.3375 18.2957L23.5713 18.2617V18.266ZM23.2015 18.266C23.1632 18.2277 23.0314 18.2277 22.9634 18.266H23.2015ZM25.8709 18.028C25.7988 18.0289 25.7288 18.0527 25.6711 18.096L25.8709 18.028ZM25.5393 18.13C25.4968 18.13 25.3693 18.1597 25.3013 18.198L25.5393 18.13ZM24.3194 18.266C24.3832 18.266 24.5192 18.266 24.5574 18.2957L24.3194 18.2617V18.266ZM24.6892 18.266C24.7275 18.2277 24.8592 18.2277 24.9272 18.266H24.6892Z" fill="white" stroke="#C09300" stroke-width="0.1" stroke-linecap="round" stroke-linejoin="round"/>
<path d="M21.9603 18.5636C21.939 18.5593 21.9263 18.5381 21.9348 18.5211C21.939 18.4913 21.9603 18.4786 21.9773 18.4871C21.9943 18.4871 22.0156 18.5126 22.0156 18.5211L21.9986 18.5508L21.9901 18.5551C21.9901 18.5636 21.973 18.5636 21.9603 18.5636ZM24.2982 18.7294C24.2897 18.7294 24.2727 18.7081 24.2727 18.6996C24.2727 18.6826 24.2982 18.6571 24.3152 18.6571L24.3492 18.6741C24.3619 18.6869 24.3619 18.7124 24.3449 18.7251C24.3364 18.7336 24.3109 18.7336 24.2982 18.7251V18.7294ZM24.3109 18.8356C24.2939 18.8271 24.2897 18.8186 24.2854 18.8016C24.2854 18.7804 24.2854 18.7761 24.3067 18.7634L24.3237 18.7549L24.3407 18.7634C24.3577 18.7719 24.3704 18.7804 24.3704 18.7974C24.3704 18.8101 24.3577 18.8229 24.3407 18.8314C24.3279 18.8399 24.3237 18.8399 24.3109 18.8314V18.8356Z" fill="#C09300"/>
<path d="M22.1512 18.368C22.1341 18.368 22.1129 18.385 22.1001 18.3935C22.0746 18.3978 22.0406 18.4148 22.0151 18.3935C21.9896 18.3893 21.9556 18.3935 21.9514 18.4276C21.9556 18.4573 21.9939 18.4701 22.0194 18.4531C22.0364 18.4318 22.0831 18.4148 22.0916 18.4531C22.0704 18.4871 22.0746 18.5253 22.0576 18.5551C22.0576 18.5763 22.0449 18.5933 22.0364 18.6103C22.0151 18.6103 21.9939 18.6103 21.9769 18.6231C21.9637 18.6231 21.9507 18.6262 21.9389 18.6321C21.927 18.638 21.9168 18.6465 21.9089 18.6571C21.8919 18.6826 21.8749 18.7081 21.8706 18.7421C21.8749 18.7676 21.9131 18.7761 21.9386 18.7804L22.0236 18.8059L22.1597 18.8441C22.2277 18.8654 22.2957 18.8739 22.3637 18.8909L22.3849 18.8951C22.4147 18.9036 22.4274 18.8739 22.4274 18.8526L22.47 18.6996C22.4785 18.6783 22.4912 18.6358 22.4529 18.6443C22.4317 18.6571 22.4104 18.6783 22.3849 18.6783C22.3467 18.6783 22.3679 18.7208 22.3849 18.7336C22.3849 18.7591 22.3764 18.7889 22.3637 18.8101C22.3382 18.8229 22.3127 18.8101 22.2872 18.8016C22.2659 18.8016 22.2149 18.7889 22.2362 18.7591L22.2574 18.6826C22.2702 18.6571 22.2702 18.6273 22.2787 18.5976C22.2617 18.5678 22.2362 18.6103 22.2149 18.6146C22.1979 18.6231 22.1469 18.6273 22.1724 18.6571C22.1979 18.6741 22.1809 18.7038 22.1724 18.7294C22.1724 18.7591 22.1384 18.7719 22.1129 18.7591C22.0874 18.7591 22.0491 18.7379 22.0704 18.7123L22.0916 18.6358L22.1214 18.5508C22.1214 18.5211 22.1341 18.4998 22.1469 18.4743C22.1469 18.4446 22.1682 18.4191 22.1682 18.3893C22.1682 18.3765 22.1597 18.3723 22.1512 18.3723V18.368ZM21.9939 18.6783C21.9958 18.6772 21.998 18.6766 22.0003 18.6766C22.0025 18.6766 22.0047 18.6772 22.0066 18.6783C22.0151 18.6868 22.0151 18.6953 22.0066 18.7038L21.9939 18.7123C21.9726 18.7123 21.9684 18.7081 21.9684 18.6996C21.9684 18.6953 21.9684 18.6911 21.9811 18.6868C21.9863 18.6831 21.992 18.6802 21.9981 18.6783H21.9939ZM21.9514 18.8909C21.9301 18.8739 21.9344 18.8611 21.9641 18.8356C21.9811 18.8271 21.9854 18.8271 22.0024 18.8399C22.0279 18.8611 22.0279 18.8739 22.0024 18.8951C21.9939 18.9036 21.9896 18.9036 21.9811 18.9036C21.9684 18.9036 21.9641 18.9036 21.9514 18.8951V18.8909ZM22.0789 18.9334C22.0694 18.9304 22.0614 18.9239 22.0567 18.9152C22.0519 18.9064 22.0507 18.8962 22.0534 18.8866C22.0619 18.8696 22.0661 18.8654 22.0916 18.8654C22.1214 18.8654 22.1256 18.8696 22.1299 18.8951C22.1299 18.9121 22.1299 18.9164 22.1171 18.9249C22.1124 18.9286 22.1069 18.9313 22.1011 18.9328C22.0952 18.9343 22.0891 18.9345 22.0831 18.9334H22.0789ZM25.8705 18.9334C25.862 18.9291 25.8578 18.9249 25.8578 18.9121C25.8578 18.8951 25.8663 18.8824 25.8918 18.8739C25.9173 18.8611 25.9343 18.8611 25.9428 18.8824C25.9555 18.9079 25.9555 18.9164 25.9385 18.9334C25.93 18.9461 25.9258 18.9461 25.9045 18.9461C25.8833 18.9461 25.879 18.9461 25.8705 18.9376V18.9334ZM22.2574 18.9844C22.2404 18.9844 22.2319 18.9674 22.2319 18.9504C22.2319 18.9376 22.2319 18.9334 22.2404 18.9249L22.2659 18.9164L22.2914 18.9206C22.3127 18.9376 22.3169 18.9546 22.3042 18.9716C22.2914 18.9886 22.2787 18.9886 22.2532 18.9844H22.2574ZM23.1841 19.0269L23.1756 19.0141C23.1756 18.9886 23.1756 18.9674 23.1841 18.9419C23.1883 18.9206 23.1841 18.8994 23.1926 18.8781L23.2096 18.7591C23.2096 18.7379 23.2096 18.7166 23.2181 18.6996C23.2223 18.6656 23.2181 18.6358 23.2266 18.6061C23.2266 18.5933 23.2393 18.5636 23.2521 18.5806C23.2691 18.6061 23.2903 18.6231 23.3116 18.6443C23.3286 18.6571 23.3116 18.6741 23.2988 18.6783C23.2818 18.6826 23.2776 18.7038 23.2776 18.7208L23.2691 18.7719C23.2691 18.8016 23.2691 18.8271 23.2606 18.8569L23.2563 18.9334L23.2478 18.9844C23.2478 19.0014 23.2478 19.0226 23.2308 19.0312C23.2181 19.0397 23.1968 19.0397 23.1883 19.0269H23.1841ZM24.4465 18.6103L24.3913 18.6613C24.3658 18.6826 24.4125 18.6911 24.4168 18.7081C24.4253 18.7336 24.4253 18.7591 24.4253 18.7846C24.4338 18.8101 24.438 18.8314 24.4338 18.8569C24.4338 18.8866 24.3998 18.8781 24.3828 18.8951C24.3615 18.9036 24.353 18.9249 24.3403 18.9376C24.3302 18.959 24.3244 18.9821 24.3233 19.0056C24.3233 19.0269 24.3105 19.0482 24.3233 19.0652L24.3275 19.0737H24.3488L24.4125 19.0694C24.4635 19.0609 24.5188 19.0609 24.5698 19.0567L24.6633 19.0482C24.6888 19.0524 24.7016 19.0269 24.7016 19.0056C24.6846 18.9759 24.6973 18.9461 24.6846 18.9206C24.6761 18.8866 24.6803 18.8569 24.6761 18.8271C24.6761 18.8016 24.6463 18.7931 24.6336 18.8101C24.6166 18.8271 24.591 18.8314 24.5825 18.8484C24.5698 18.8739 24.6081 18.8739 24.6166 18.8909L24.6208 18.9546C24.6251 18.9801 24.5995 18.9801 24.5783 18.9844C24.557 18.9929 24.5273 18.9971 24.5145 18.9716C24.506 18.9504 24.506 18.9291 24.506 18.9079C24.506 18.8654 24.4933 18.8314 24.4933 18.7931C24.4933 18.7506 24.4805 18.7038 24.4805 18.6571C24.4805 18.6358 24.4763 18.6061 24.4465 18.6103ZM24.421 18.9589H24.4338V18.9929L24.421 18.9971C24.4154 18.9989 24.4098 19.0003 24.404 19.0014C24.4012 19.0015 24.3983 19.0015 24.3955 19.0014C24.387 18.9929 24.387 18.9801 24.3998 18.9674L24.421 18.9589ZM23.1458 18.5678C23.1331 18.5678 23.1118 18.5976 23.0948 18.5933C23.0565 18.5976 23.0608 18.6358 23.0906 18.6486V18.6826C23.0948 18.7166 23.0736 18.7464 23.0778 18.7804C23.0778 18.8144 23.065 18.8526 23.065 18.8909C23.0523 18.9291 23.0523 18.9674 23.048 19.0056C23.0438 19.0397 23.0183 19.0269 22.997 19.0184V18.9759C23.0013 18.9376 22.9758 18.9291 22.946 18.9249C22.9163 18.9249 22.9035 18.9036 22.912 18.8781C22.9248 18.8611 22.9545 18.8654 22.9758 18.8654C23.0183 18.8739 23.014 18.8186 22.9928 18.7974C22.9758 18.7719 22.9418 18.7549 22.9333 18.7294C22.9333 18.6953 22.912 18.6571 22.8823 18.6401C22.8355 18.6358 22.7973 18.6741 22.7845 18.7166C22.7633 18.7166 22.742 18.7251 22.725 18.7336C22.6952 18.7421 22.6527 18.7931 22.6952 18.8144C22.7165 18.8186 22.7888 18.8356 22.7547 18.8654C22.7377 18.8994 22.7037 18.8994 22.674 18.8909C22.6442 18.8909 22.6102 18.8739 22.6102 18.8399C22.606 18.8059 22.606 18.7719 22.5932 18.7421C22.5847 18.7081 22.5465 18.7166 22.5422 18.7506C22.5125 18.7719 22.5167 18.8101 22.538 18.8356C22.5507 18.8654 22.538 18.9036 22.5252 18.9291C22.5167 18.9716 22.4742 18.9716 22.4444 18.9801C22.4317 18.9886 22.3764 18.9801 22.3977 19.0099C22.4296 19.0246 22.4652 19.029 22.4997 19.0226C22.5337 19.0226 22.5635 18.9929 22.5847 18.9631C22.606 18.9419 22.6442 18.9546 22.6782 18.9546C22.708 18.9546 22.742 18.9759 22.776 18.9589C22.7845 18.9376 22.827 18.8951 22.8398 18.9376C22.8398 18.9759 22.8695 18.9929 22.9035 18.9886C22.9418 18.9886 22.9248 19.0141 22.9248 19.0397C22.9248 19.0779 22.9545 19.0992 22.9885 19.1162H23.0225C23.0523 19.1034 23.0863 19.0907 23.0991 19.0567C23.1118 19.0269 23.1118 18.9929 23.1203 18.9631C23.1288 18.9164 23.1373 18.8654 23.1373 18.8186C23.1501 18.7761 23.1458 18.7294 23.1543 18.6826L23.1671 18.5848C23.1671 18.5636 23.1586 18.5636 23.1458 18.5678ZM22.861 18.7421C22.8653 18.7421 22.8695 18.7506 22.8695 18.7634C22.8695 18.7804 22.878 18.7931 22.8908 18.7974V18.8101L22.8568 18.8186C22.8355 18.8186 22.8185 18.8101 22.8058 18.7974L22.7973 18.7889L22.81 18.7804L22.8313 18.7591C22.844 18.7464 22.8525 18.7421 22.861 18.7421ZM25.6665 18.4063C25.642 18.4081 25.6178 18.4123 25.5942 18.4191C25.5517 18.4191 25.5305 18.4616 25.573 18.4871C25.5985 18.5508 25.6367 18.4701 25.6792 18.4786C25.7387 18.4871 25.743 18.5551 25.7557 18.6061C25.7557 18.6528 25.7727 18.6996 25.7855 18.7464C25.828 18.7931 25.7557 18.8229 25.726 18.7889C25.7005 18.7591 25.641 18.7251 25.6112 18.7634C25.573 18.7804 25.5687 18.8314 25.539 18.8484C25.4879 18.8611 25.4837 18.7974 25.4539 18.7719C25.4284 18.7336 25.3817 18.7294 25.3434 18.7208C25.3264 18.6826 25.3349 18.6188 25.3009 18.5933C25.2669 18.6061 25.2074 18.6656 25.2584 18.6953C25.3009 18.7379 25.2372 18.7549 25.2159 18.7804C25.1819 18.8186 25.1734 18.8654 25.1734 18.9079C25.1181 18.9376 25.1096 18.8739 25.1011 18.8356C25.1011 18.7889 25.0586 18.8016 25.0289 18.8186C24.9864 18.8356 24.9694 18.8739 24.9439 18.9036V18.9886C24.9524 19.0269 24.9949 19.0099 25.0204 19.0056C25.0629 18.9886 25.0799 19.0354 25.0459 19.0609C25.0204 19.0864 24.9524 19.0737 24.9609 19.1204H25.0289C25.0714 19.1077 25.1224 19.0737 25.1266 19.0226C25.1351 18.9801 25.1989 18.9844 25.2329 18.9759C25.2754 18.9631 25.3307 18.9589 25.3434 19.0184C25.3732 19.0482 25.4369 19.0822 25.4709 19.0397C25.4871 19.0294 25.5001 19.0148 25.5084 18.9975C25.5166 18.9802 25.5199 18.9609 25.5177 18.9419C25.5134 18.9079 25.573 18.9079 25.59 18.9291C25.6112 18.9631 25.6792 18.9546 25.7132 18.9291C25.7472 18.9079 25.7557 18.8611 25.8067 18.8611L26.0363 18.7974C26.0958 18.7846 26.0278 18.7464 26.0108 18.7208C25.9683 18.6996 25.9258 18.7931 25.8748 18.7464C25.8323 18.7166 25.8365 18.6613 25.8237 18.6146C25.811 18.5551 25.8152 18.4871 25.7727 18.4446C25.7472 18.4148 25.7047 18.4063 25.6665 18.4063ZM25.3774 18.8101C25.3817 18.8101 25.3902 18.8101 25.3987 18.8186C25.4157 18.8271 25.4284 18.8441 25.4284 18.8611C25.4284 18.8696 25.4284 18.8696 25.4157 18.8739L25.3944 18.8824C25.3859 18.8824 25.3647 18.8696 25.3647 18.8611V18.8441C25.3562 18.8271 25.3562 18.8271 25.3647 18.8186L25.3774 18.8101ZM25.6537 18.8271C25.6707 18.8271 25.6792 18.8271 25.6877 18.8399C25.692 18.8569 25.6877 18.8654 25.6707 18.8739L25.6495 18.8824L25.6325 18.8696C25.624 18.8654 25.6197 18.8611 25.6197 18.8526C25.6197 18.8399 25.6367 18.8271 25.6537 18.8229V18.8271ZM25.2712 18.8271C25.2797 18.8271 25.2839 18.8271 25.2882 18.8356C25.2967 18.8441 25.3009 18.8484 25.3009 18.8611V18.8866C25.3009 18.8994 25.3009 18.8951 25.2754 18.8951C25.2499 18.8951 25.2457 18.8951 25.2457 18.8696C25.2457 18.8526 25.2457 18.8484 25.2584 18.8399C25.2627 18.8314 25.2712 18.8314 25.2754 18.8314L25.2712 18.8271ZM25.0416 18.8909C25.0456 18.8921 25.0493 18.8943 25.0523 18.8972C25.0552 18.9002 25.0574 18.9039 25.0586 18.9079C25.0586 18.9206 25.0586 18.9291 25.0501 18.9334C25.0374 18.9376 25.0161 18.9419 25.0076 18.9334C25.0075 18.932 25.0075 18.9305 25.0076 18.9291C24.9991 18.9249 24.9991 18.9206 25.0076 18.9164V18.9121L25.0161 18.8994C25.0187 18.8952 25.0227 18.8921 25.0274 18.8906C25.032 18.889 25.037 18.8891 25.0416 18.8909ZM25.4327 18.9419L25.4539 18.9461V18.9716H25.4029L25.3987 18.9631C25.3987 18.9546 25.3987 18.9504 25.4072 18.9461L25.4327 18.9419ZM24.7058 19.1459C24.7016 19.1459 24.6931 19.1417 24.7016 19.1374C24.7058 19.1247 24.7228 19.1204 24.7356 19.1119C24.7587 19.1031 24.7792 19.0884 24.7951 19.0694C24.7951 19.0524 24.8121 19.0439 24.8121 19.0269L24.8078 18.9674C24.8021 18.9495 24.79 18.9344 24.7738 18.9249C24.7611 18.9206 24.7441 18.9164 24.7398 18.8994C24.7398 18.8866 24.7526 18.8739 24.7568 18.8611L24.7823 18.8101C24.7951 18.7974 24.8121 18.8101 24.8163 18.8186L24.8376 18.8611C24.8503 18.8739 24.8588 18.8866 24.8631 18.9036C24.8716 18.9206 24.8801 18.9334 24.8801 18.9461L24.8886 19.0014C24.8886 19.0226 24.8886 19.0482 24.8801 19.0694L24.8546 19.1034C24.8418 19.1162 24.8291 19.1289 24.8121 19.1332C24.7993 19.1374 24.7908 19.1502 24.7738 19.1502H24.7101L24.7058 19.1459ZM24.4125 19.1629C24.404 19.1544 24.3998 19.1502 24.3998 19.1374C24.3998 19.1247 24.3998 19.1247 24.4125 19.1119C24.4295 19.0949 24.438 19.0949 24.472 19.1119C24.5018 19.1289 24.5145 19.1289 24.5145 19.1162C24.5188 19.1077 24.5358 19.0949 24.557 19.0949C24.5649 19.0952 24.5724 19.0982 24.5783 19.1034C24.5868 19.1119 24.591 19.1162 24.591 19.1332C24.591 19.1544 24.591 19.1544 24.5783 19.1672C24.5655 19.1757 24.5655 19.1757 24.5485 19.1757C24.541 19.1753 24.5337 19.1726 24.5277 19.1681C24.5216 19.1635 24.517 19.1573 24.5145 19.1502C24.5145 19.1417 24.5145 19.1374 24.506 19.1459L24.4975 19.1502C24.489 19.1502 24.472 19.1629 24.4635 19.1714L24.4423 19.1757C24.4253 19.1757 24.4253 19.1757 24.4125 19.1629ZM23.5709 18.7846C23.5411 18.7846 23.5114 18.8101 23.5071 18.8399C23.5156 18.8696 23.5411 18.9036 23.5241 18.9334C23.5369 18.9759 23.4901 18.9929 23.4604 18.9716C23.4434 18.9291 23.4349 18.8866 23.4051 18.8441C23.3711 18.8356 23.3583 18.8909 23.3328 18.9121C23.3456 18.9419 23.3796 18.9716 23.3839 19.0099C23.3924 19.0524 23.3668 19.0949 23.3371 19.1119C23.3073 19.1417 23.2648 19.1332 23.2308 19.1374C23.1883 19.1629 23.2606 19.1714 23.2818 19.1714C23.3243 19.1757 23.3711 19.1714 23.4094 19.1374C23.4391 19.1247 23.4349 19.0652 23.4731 19.0609L23.6771 19.0737C23.7112 19.0822 23.7664 19.0694 23.7919 19.0949C23.7919 19.1374 23.8344 19.1714 23.8727 19.1884C23.8939 19.1969 23.9152 19.1672 23.9364 19.1629C23.9789 19.1502 23.9662 19.0992 23.9917 19.0779H24.2042C24.2127 19.0779 24.217 19.0567 24.2297 19.0482L24.2212 18.9674C24.2085 18.9334 24.2212 18.8909 24.2 18.8611C24.1617 18.8526 24.132 18.8824 24.098 18.8866C24.0555 18.9036 24.0257 18.9419 24.0215 18.9844C24.0002 19.0226 23.9619 18.9759 23.9789 18.9419L23.9747 18.8994C23.9534 18.8781 23.9152 18.8866 23.8854 18.8824L23.7579 18.8739C23.7154 18.8739 23.6771 18.8781 23.6431 18.8696C23.6006 18.8696 23.6006 18.8271 23.6006 18.7931C23.5921 18.7866 23.5815 18.7836 23.5709 18.7846ZM23.6559 18.9419L23.6984 18.9461H23.7537C23.7962 18.9546 23.8387 18.9546 23.8812 18.9546C23.8897 18.9546 23.8982 18.9631 23.9067 18.9716V19.0567C23.9067 19.0694 23.9067 19.0864 23.8982 19.0907C23.896 19.094 23.8931 19.0969 23.8897 19.0992C23.8835 19.0981 23.8776 19.0956 23.8724 19.0919C23.8673 19.0882 23.863 19.0834 23.8599 19.0779V19.0184C23.8515 19.0113 23.8411 19.0068 23.8302 19.0056L23.7197 19.0014L23.6346 18.9971C23.6219 18.9929 23.6049 18.9971 23.5964 18.9801C23.5879 18.9716 23.6006 18.9546 23.6134 18.9504C23.6267 18.9444 23.6413 18.9415 23.6559 18.9419ZM24.1362 18.9546C24.1405 18.9546 24.1447 18.9546 24.1447 18.9674L24.1532 18.9886C24.1532 18.9929 24.1532 18.9971 24.1447 18.9971C24.1235 19.0056 24.1022 19.0056 24.0937 18.9971C24.0937 18.9929 24.0937 18.9759 24.1022 18.9716L24.1362 18.9546Z" fill="#C09300"/>
<path d="M23.9458 16.5487C25.3315 15.486 25.2125 13.9218 25.2125 13.9218L25.1062 13.9303C24.8129 13.9303 24.1201 13.7602 23.9585 13.5519C23.7885 13.7432 23.0744 13.9345 22.7853 13.9345L22.6791 13.9218C22.6791 13.9218 22.5558 15.4818 23.9458 16.5487Z" fill="white" stroke="#C09300" stroke-width="0.1"/>
<path d="M25.1024 14.0323H25.0684C24.8049 14.0323 24.1928 13.9006 23.9547 13.6965C23.7082 13.8836 23.0833 14.0366 22.824 14.0366C22.8126 14.0361 22.8012 14.0347 22.79 14.0323C22.7924 14.301 22.8295 14.5681 22.9006 14.8272C23.0711 15.4514 23.4376 16.0042 23.9462 16.4042C24.4551 16.0027 24.8217 15.4484 24.9919 14.823C25.0626 14.5653 25.0997 14.2995 25.1024 14.0323Z" fill="white" stroke="#C09300" stroke-width="0.1"/>
<path d="M23.4957 13.9048C23.2673 13.9791 23.0299 14.022 22.79 14.0323L22.7943 14.2066C22.8088 14.4151 22.8444 14.6216 22.9006 14.8229C23.0148 15.241 23.2178 15.6295 23.4957 15.9621V13.9048ZM24.3713 13.9048V15.9961C24.6625 15.6559 24.8745 15.2551 24.9919 14.8229C25.048 14.6216 25.0836 14.4151 25.0982 14.2066L25.1024 14.0365H25.0684C24.9069 14.0365 24.6263 13.9855 24.3713 13.9005V13.9048Z" fill="#C09300"/>
<path d="M24.4686 13.3947C24.4983 13.3989 24.4303 13.2459 24.4303 13.2459C24.5068 13.3224 24.7874 13.3437 24.7874 13.3437C24.6173 13.2672 24.4473 12.7018 24.4686 12.247C24.4856 11.7964 24.4048 11.6179 24.3411 11.5499C24.256 11.4649 23.9797 11.3884 23.8012 11.3799C23.695 11.3756 23.7162 11.4564 23.7162 11.4564C23.5249 11.4096 23.3336 11.3884 23.2486 11.4479C23.1721 11.4989 23.1551 11.7667 23.2146 11.7199C23.3549 11.6051 23.4782 11.7114 23.5632 11.8347C23.6397 11.941 23.6354 12.247 23.5249 12.6083C23.4271 12.8815 23.2833 13.1359 23.0999 13.3607C23.2699 13.3607 23.5079 13.2119 23.5079 13.2119L23.4527 13.4457C23.6312 13.3607 23.7715 13.2289 23.7715 13.2289L23.9415 13.4074C23.9967 13.3309 24.1115 13.2289 24.1115 13.2289C24.1115 13.2289 24.2518 13.3777 24.4686 13.3989V13.3947Z" fill="white" stroke="#C09300" stroke-width="0.1"/>
<path d="M23.7806 12.315C23.7806 12.315 23.6871 13.0121 23.5085 13.2077M23.9336 12.2938C23.9336 12.2938 23.8911 13.0036 23.7721 13.2289M24.0654 12.3235C24.0654 12.3235 24.0654 13.0971 24.1079 13.2289M24.2354 12.3618C24.2354 12.3618 24.2694 13.0121 24.4309 13.2459" stroke="#C09300" stroke-width="0.1"/>
<path d="M23.6057 11.975C23.6019 11.9257 23.5874 11.8778 23.5632 11.8347C23.4781 11.7072 23.3549 11.6052 23.2146 11.7199C23.2146 11.7199 23.2614 11.5712 23.3676 11.5669C23.4441 11.5627 23.6269 11.6264 23.7884 11.8985C23.7884 11.8985 23.6694 11.873 23.6397 11.8985C23.5887 11.941 23.6099 11.975 23.6099 11.975H23.6057Z" fill="#C09300" stroke="#C09300" stroke-width="0.1"/>
<path d="M23.1973 11.5371C23.21 11.4946 23.227 11.4606 23.2525 11.4479C23.3375 11.3884 23.5246 11.4054 23.7159 11.4564C23.7159 11.4564 23.6988 11.3756 23.8009 11.3799C23.9794 11.3884 24.2514 11.4649 24.3365 11.5499C24.3637 11.5798 24.3853 11.6143 24.4002 11.6519C24.3577 11.5924 24.2387 11.5966 24.2089 11.6009C24.1664 11.6051 24.1367 11.6009 24.0772 11.6179C24.0474 11.6264 24.0049 11.6349 23.9794 11.6519C23.9624 11.6689 23.9454 11.7199 23.9199 11.7199C23.8774 11.7199 23.8774 11.7114 23.8646 11.6987C23.8519 11.6774 23.8434 11.6519 23.8264 11.6562C23.7839 11.6604 23.7073 11.6264 23.6138 11.5499C23.5161 11.4734 23.4778 11.4564 23.3588 11.4649C23.2313 11.4734 23.1973 11.5456 23.1973 11.5456V11.5371Z" fill="#C09300" stroke="#C09300" stroke-width="0.1"/>
<path d="M23.8952 11.6476C23.9234 11.6476 23.9463 11.6248 23.9463 11.5966C23.9463 11.5684 23.9234 11.5456 23.8952 11.5456C23.8671 11.5456 23.8442 11.5684 23.8442 11.5966C23.8442 11.6248 23.8671 11.6476 23.8952 11.6476Z" fill="white"/>
</g>
</g>
<defs>
<filter id="filter0_d_2217_3088" x="0" y="0.638123" width="48" height="38" filterUnits="userSpaceOnUse" color-interpolation-filters="sRGB">
<feFlood flood-opacity="0" result="BackgroundImageFix"/>
<feColorMatrix in="SourceAlpha" type="matrix" values="0 0 0 0 0 0 0 0 0 0 0 0 0 0 0 0 0 0 127 0" result="hardAlpha"/>
<feOffset dy="4"/>
<feGaussianBlur stdDeviation="2"/>
<feComposite in2="hardAlpha" operator="out"/>
<feColorMatrix type="matrix" values="0 0 0 0 0 0 0 0 0 0 0 0 0 0 0 0 0 0 0.25 0"/>
<feBlend mode="normal" in2="BackgroundImageFix" result="effect1_dropShadow_2217_3088"/>
<feBlend mode="normal" in="SourceGraphic" in2="effect1_dropShadow_2217_3088" result="shape"/>
</filter>
<clipPath id="clip0_2217_3088">
<rect x="4" y="0.638123" width="40" height="30" rx="4" fill="white"/>
</clipPath>
</defs>
</svg>
