<svg width="48" height="39" viewBox="0 0 48 39" fill="none" xmlns="http://www.w3.org/2000/svg">
<g filter="url(#filter0_d_2217_3124)">
<g clip-path="url(#clip0_2217_3124)">
<path d="M4 0.638123H44V10.6381H4V0.638123Z" fill="#FF9933"/>
<path d="M4 10.6381H44V20.6381H4V10.6381Z" fill="white"/>
<path d="M4 20.6381H44V30.6381H4V20.6381Z" fill="#128807"/>
<path d="M24 19.6381C26.2091 19.6381 28 17.8473 28 15.6381C28 13.429 26.2091 11.6381 24 11.6381C21.7909 11.6381 20 13.429 20 15.6381C20 17.8473 21.7909 19.6381 24 19.6381Z" fill="#000088"/>
<path d="M24 19.1381C25.933 19.1381 27.5 17.5711 27.5 15.6381C27.5 13.7051 25.933 12.1381 24 12.1381C22.067 12.1381 20.5 13.7051 20.5 15.6381C20.5 17.5711 22.067 19.1381 24 19.1381Z" fill="white"/>
<path d="M24 16.3382C24.3866 16.3382 24.7 16.0248 24.7 15.6382C24.7 15.2516 24.3866 14.9382 24 14.9382C23.6134 14.9382 23.3 15.2516 23.3 15.6382C23.3 16.0248 23.6134 16.3382 24 16.3382Z" fill="#000088"/>
<path d="M27.4467 16.2748C27.5452 16.2877 27.6356 16.2184 27.6486 16.1198C27.6616 16.0212 27.5922 15.9308 27.4936 15.9178C27.3951 15.9049 27.3047 15.9742 27.2917 16.0728C27.2787 16.1714 27.3481 16.2618 27.4467 16.2748Z" fill="#000088"/>
<path d="M24.0001 19.1381L24.1201 17.0381L24.0001 16.0381L23.8801 17.0381L24.0001 19.1381Z" fill="#000088"/>
<path d="M27.1643 17.1451C27.2561 17.1831 27.3614 17.1395 27.3995 17.0477C27.4375 16.9558 27.3939 16.8505 27.302 16.8125C27.2102 16.7744 27.1049 16.818 27.0669 16.9099C27.0288 17.0017 27.0724 17.107 27.1643 17.1451Z" fill="#000088"/>
<path d="M23.0943 19.0189L23.7538 17.0215L23.8967 16.0245L23.5219 16.9594L23.0943 19.0189Z" fill="#000088"/>
<path d="M26.6666 17.9128C26.7454 17.9733 26.8584 17.9584 26.919 17.8795C26.9795 17.8007 26.9646 17.6877 26.8857 17.6272C26.8069 17.5666 26.6939 17.5815 26.6333 17.6604C26.5728 17.7392 26.5877 17.8522 26.6666 17.9128Z" fill="#000088"/>
<path d="M22.25 18.6692L23.4039 16.9106L23.8 15.9846L23.196 16.7906L22.25 18.6692Z" fill="#000088"/>
<path d="M25.9871 18.5254C26.0476 18.6043 26.1606 18.6192 26.2394 18.5586C26.3183 18.4981 26.3332 18.3851 26.2727 18.3063C26.2121 18.2274 26.0992 18.2125 26.0203 18.273C25.9414 18.3335 25.9265 18.4465 25.9871 18.5254Z" fill="#000088"/>
<path d="M21.5251 18.1131L23.0949 16.713L23.7172 15.921L22.9252 16.5433L21.5251 18.1131Z" fill="#000088"/>
<path d="M25.1721 18.9411C25.2101 19.033 25.3154 19.0766 25.4073 19.0386C25.4991 19.0005 25.5427 18.8952 25.5047 18.8034C25.4666 18.7115 25.3613 18.6679 25.2695 18.706C25.1776 18.744 25.134 18.8493 25.1721 18.9411Z" fill="#000088"/>
<path d="M20.9691 17.3881L22.8477 16.442L23.6538 15.8381L22.7277 16.2342L20.9691 17.3881Z" fill="#000088"/>
<path d="M24.2772 19.1319C24.2901 19.2305 24.3806 19.2999 24.4791 19.2869C24.5777 19.2739 24.6471 19.1835 24.6341 19.085C24.6211 18.9864 24.5307 18.917 24.4321 18.93C24.3336 18.943 24.2642 19.0334 24.2772 19.1319Z" fill="#000088"/>
<path d="M20.6192 16.544L22.6787 16.1164L23.6136 15.7416L22.6166 15.8846L20.6192 16.544Z" fill="#000088"/>
<path d="M23.3632 19.0847C23.3503 19.1832 23.4196 19.2736 23.5182 19.2866C23.6168 19.2996 23.7072 19.2302 23.7202 19.1316C23.7331 19.0331 23.6638 18.9427 23.5652 18.9297C23.4666 18.9167 23.3762 18.9861 23.3632 19.0847Z" fill="#000088"/>
<path d="M20.4999 15.6382L22.5999 15.7582L23.5999 15.6382L22.5999 15.5182L20.4999 15.6382Z" fill="#000088"/>
<path d="M22.4928 18.8025C22.4548 18.8943 22.4984 18.9996 22.5902 19.0376C22.6821 19.0757 22.7874 19.0321 22.8254 18.9402C22.8634 18.8484 22.8198 18.7431 22.728 18.705C22.6361 18.667 22.5309 18.7106 22.4928 18.8025Z" fill="#000088"/>
<path d="M20.6191 14.7323L22.6165 15.3917L23.6135 15.5346L22.6786 15.1599L20.6191 14.7323Z" fill="#000088"/>
<path d="M21.7257 18.3045C21.6651 18.3834 21.68 18.4964 21.7589 18.5569C21.8378 18.6174 21.9508 18.6025 22.0113 18.5237C22.0718 18.4448 22.0569 18.3318 21.978 18.2713C21.8992 18.2108 21.7862 18.2256 21.7257 18.3045Z" fill="#000088"/>
<path d="M20.9692 13.8881L22.7278 15.042L23.6539 15.4381L22.8478 14.8342L20.9692 13.8881Z" fill="#000088"/>
<path d="M21.1131 17.625C21.0343 17.6855 21.0194 17.7985 21.0799 17.8774C21.1404 17.9562 21.2534 17.9711 21.3323 17.9106C21.4112 17.8501 21.426 17.7371 21.3655 17.6582C21.305 17.5794 21.192 17.5645 21.1131 17.625Z" fill="#000088"/>
<path d="M21.5254 13.1632L22.9254 14.733L23.7174 15.3552L23.0951 14.5633L21.5254 13.1632Z" fill="#000088"/>
<path d="M20.6974 16.8101C20.6056 16.8481 20.5619 16.9534 20.6 17.0453C20.638 17.1371 20.7433 17.1807 20.8352 17.1427C20.927 17.1046 20.9706 16.9993 20.9326 16.9075C20.8945 16.8156 20.7892 16.772 20.6974 16.8101Z" fill="#000088"/>
<path d="M22.2504 12.6071L23.1965 14.4857L23.8004 15.2918L23.4043 14.3657L22.2504 12.6071Z" fill="#000088"/>
<path d="M20.5067 15.9152C20.4082 15.9282 20.3388 16.0186 20.3518 16.1172C20.3647 16.2157 20.4552 16.2851 20.5537 16.2722C20.6523 16.2592 20.7217 16.1688 20.7087 16.0702C20.6957 15.9716 20.6053 15.9023 20.5067 15.9152Z" fill="#000088"/>
<path d="M23.0947 12.2574L23.5223 14.3169L23.897 15.2518L23.7541 14.2548L23.0947 12.2574Z" fill="#000088"/>
<path d="M20.5536 15.0015C20.455 14.9886 20.3646 15.0579 20.3516 15.1565C20.3387 15.2551 20.408 15.3455 20.5066 15.3585C20.6052 15.3714 20.6956 15.3021 20.7086 15.2035C20.7215 15.1049 20.6521 15.0145 20.5536 15.0015Z" fill="#000088"/>
<path d="M24.0001 12.1382L23.8801 14.2382L24.0001 15.2382L24.1201 14.2382L24.0001 12.1382Z" fill="#000088"/>
<path d="M20.836 14.1312C20.7441 14.0932 20.6388 14.1368 20.6008 14.2287C20.5627 14.3205 20.6064 14.4258 20.6982 14.4638C20.79 14.5019 20.8953 14.4583 20.9334 14.3664C20.9714 14.2746 20.9278 14.1693 20.836 14.1312Z" fill="#000088"/>
<path d="M24.9059 12.2574L24.2465 14.2548L24.1036 15.2518L24.4783 14.3169L24.9059 12.2574Z" fill="#000088"/>
<path d="M21.3337 13.3635C21.2548 13.303 21.1418 13.3179 21.0813 13.3968C21.0208 13.4756 21.0357 13.5886 21.1145 13.6492C21.1934 13.7097 21.3064 13.6948 21.3669 13.6159C21.4274 13.5371 21.4125 13.4241 21.3337 13.3635Z" fill="#000088"/>
<path d="M25.7503 12.6071L24.5964 14.3657L24.2003 15.2917L24.8042 14.4857L25.7503 12.6071Z" fill="#000088"/>
<path d="M22.0132 12.7509C21.9527 12.672 21.8397 12.6572 21.7608 12.7177C21.6819 12.7782 21.6671 12.8912 21.7276 12.9701C21.7881 13.0489 21.9011 13.0638 21.98 13.0033C22.0588 12.9428 22.0737 12.8298 22.0132 12.7509Z" fill="#000088"/>
<path d="M26.4751 13.1632L24.9053 14.5633L24.2831 15.3553L25.075 14.733L26.4751 13.1632Z" fill="#000088"/>
<path d="M22.8279 12.3352C22.7899 12.2433 22.6846 12.1997 22.5927 12.2377C22.5009 12.2758 22.4573 12.3811 22.4953 12.4729C22.5334 12.5648 22.6387 12.6084 22.7305 12.5703C22.8224 12.5323 22.866 12.427 22.8279 12.3352Z" fill="#000088"/>
<path d="M27.0309 13.8882L25.1523 14.8343L24.3462 15.4382L25.2723 15.0421L27.0309 13.8882Z" fill="#000088"/>
<path d="M23.7228 12.1444C23.7099 12.0458 23.6194 11.9764 23.5209 11.9894C23.4223 12.0024 23.3529 12.0928 23.3659 12.1914C23.3789 12.2899 23.4693 12.3593 23.5679 12.3463C23.6664 12.3333 23.7358 12.2429 23.7228 12.1444Z" fill="#000088"/>
<path d="M27.3808 14.7323L25.3213 15.1599L24.3864 15.5347L25.3834 15.3918L27.3808 14.7323Z" fill="#000088"/>
<path d="M24.6368 12.1916C24.6497 12.0931 24.5804 12.0027 24.4818 11.9897C24.3832 11.9767 24.2928 12.0461 24.2798 12.1447C24.2669 12.2432 24.3362 12.3336 24.4348 12.3466C24.5334 12.3596 24.6238 12.2902 24.6368 12.1916Z" fill="#000088"/>
<path d="M27.5001 15.6381L25.4001 15.5181L24.4001 15.6381L25.4001 15.7581L27.5001 15.6381Z" fill="#000088"/>
<path d="M25.5072 12.4738C25.5452 12.382 25.5016 12.2767 25.4098 12.2387C25.3179 12.2006 25.2126 12.2442 25.1746 12.3361C25.1366 12.4279 25.1802 12.5332 25.272 12.5713C25.3639 12.6093 25.4691 12.5657 25.5072 12.4738Z" fill="#000088"/>
<path d="M27.3809 16.544L25.3835 15.8846L24.3865 15.7417L25.3214 16.1164L27.3809 16.544Z" fill="#000088"/>
<path d="M26.2746 12.9717C26.3351 12.8929 26.3202 12.7799 26.2414 12.7194C26.1625 12.6588 26.0495 12.6737 25.989 12.7526C25.9285 12.8315 25.9433 12.9444 26.0222 13.005C26.1011 13.0655 26.2141 13.0506 26.2746 12.9717Z" fill="#000088"/>
<path d="M27.0311 17.3882L25.2724 16.2342L24.3464 15.8382L25.1524 16.4421L27.0311 17.3882Z" fill="#000088"/>
<path d="M26.8871 13.6512C26.966 13.5907 26.9808 13.4777 26.9203 13.3989C26.8598 13.32 26.7468 13.3051 26.668 13.3656C26.5891 13.4262 26.5742 13.5392 26.6347 13.618C26.6952 13.6969 26.8082 13.7118 26.8871 13.6512Z" fill="#000088"/>
<path d="M26.4749 18.113L25.0748 16.5433L24.2829 15.921L24.9051 16.713L26.4749 18.113Z" fill="#000088"/>
<path d="M27.3028 14.4662C27.3947 14.4281 27.4383 14.3228 27.4003 14.231C27.3622 14.1391 27.2569 14.0955 27.1651 14.1336C27.0732 14.1716 27.0296 14.2769 27.0677 14.3688C27.1057 14.4606 27.211 14.5042 27.3028 14.4662Z" fill="#000088"/>
<path d="M25.7499 18.6692L24.8038 16.7905L24.1999 15.9845L24.5959 16.9105L25.7499 18.6692Z" fill="#000088"/>
<path d="M27.4935 15.361C27.5921 15.348 27.6615 15.2576 27.6485 15.1591C27.6355 15.0605 27.5451 14.9911 27.4465 15.0041C27.348 15.0171 27.2786 15.1075 27.2916 15.206C27.3045 15.3046 27.395 15.374 27.4935 15.361Z" fill="#000088"/>
<path d="M24.9056 19.0189L24.4779 16.9594L24.1032 16.0245L24.2461 17.0215L24.9056 19.0189Z" fill="#000088"/>
</g>
</g>
<defs>
<filter id="filter0_d_2217_3124" x="0" y="0.638123" width="48" height="38" filterUnits="userSpaceOnUse" color-interpolation-filters="sRGB">
<feFlood flood-opacity="0" result="BackgroundImageFix"/>
<feColorMatrix in="SourceAlpha" type="matrix" values="0 0 0 0 0 0 0 0 0 0 0 0 0 0 0 0 0 0 127 0" result="hardAlpha"/>
<feOffset dy="4"/>
<feGaussianBlur stdDeviation="2"/>
<feComposite in2="hardAlpha" operator="out"/>
<feColorMatrix type="matrix" values="0 0 0 0 0 0 0 0 0 0 0 0 0 0 0 0 0 0 0.25 0"/>
<feBlend mode="normal" in2="BackgroundImageFix" result="effect1_dropShadow_2217_3124"/>
<feBlend mode="normal" in="SourceGraphic" in2="effect1_dropShadow_2217_3124" result="shape"/>
</filter>
<clipPath id="clip0_2217_3124">
<rect x="4" y="0.638123" width="40" height="30" rx="4" fill="white"/>
</clipPath>
</defs>
</svg>
