<svg width="20" height="17" viewBox="0 0 20 17" fill="none" xmlns="http://www.w3.org/2000/svg">
<path d="M2 16.394C1.45 16.394 0.979167 16.1981 0.5875 15.8065C0.195833 15.4148 0 14.944 0 14.394V2.39398C0 1.84398 0.195833 1.37315 0.5875 0.981482C0.979167 0.589815 1.45 0.393982 2 0.393982H18C18.55 0.393982 19.0208 0.589815 19.4125 0.981482C19.8042 1.37315 20 1.84398 20 2.39398V14.394C20 14.944 19.8042 15.4148 19.4125 15.8065C19.0208 16.1981 18.55 16.394 18 16.394H2ZM10 9.39398L18 4.39398V2.39398L10 7.39398L2 2.39398V4.39398L10 9.39398Z" fill="#C09300"/>
</svg>
