<svg width="48" height="39" viewBox="0 0 48 39" fill="none" xmlns="http://www.w3.org/2000/svg">
<g filter="url(#filter0_d_2217_2910)">
<g clip-path="url(#clip0_2217_2910)">
<path fill-rule="evenodd" clip-rule="evenodd" d="M4 0.638123H44V30.6381H4V0.638123Z" fill="#00247D"/>
<path d="M34.6516 7.3374V8.28548L36.5478 7.3374H34.6516Z" fill="white"/>
<path d="M35.0556 8.3911L34.4983 7.62408L36.5896 7.27656L35.0556 8.3911Z" fill="white"/>
<path d="M34.6516 7.3374V8.28548L32.7555 7.3374H34.6516Z" fill="white"/>
<path d="M34.2477 8.3911L34.8049 7.62408L32.7136 7.27656L34.2477 8.3911Z" fill="white"/>
<path d="M35.1926 7.73041L34.2909 8.02338L35.7786 9.53376L35.1926 7.73041Z" fill="white"/>
<path d="M34.3153 8.44023L34.8726 7.67322L35.8493 9.55477L34.3153 8.44023Z" fill="white"/>
<path d="M34.1106 7.73047L35.0123 8.02344L34.6965 5.92711L34.1106 7.73047Z" fill="white"/>
<path d="M35.2376 7.67187L34.3359 7.96484L34.6517 5.86852L35.2376 7.67187Z" fill="white"/>
<path d="M34.1106 7.73041L35.0123 8.02338L33.5247 9.53376L34.1106 7.73041Z" fill="white"/>
<path d="M34.9879 8.44023L34.4307 7.67322L33.4539 9.55477L34.9879 8.44023Z" fill="white"/>
<path d="M34.6519 7.53033V8.15682L35.9048 7.53033H34.6519Z" fill="#CC142B"/>
<path d="M34.9188 8.22656L34.5505 7.71973L35.9324 7.49009L34.9188 8.22656Z" fill="#CC142B"/>
<path d="M34.6516 7.53033V8.15682L33.3986 7.53033H34.6516Z" fill="#CC142B"/>
<path d="M34.3847 8.22656L34.7529 7.71973L33.371 7.49009L34.3847 8.22656Z" fill="#CC142B"/>
<path d="M35.0093 7.79004L34.4135 7.98363L35.3965 8.98168L35.0093 7.79004Z" fill="#CC142B"/>
<path d="M34.4296 8.25909L34.7979 7.75226L35.4433 8.99557L34.4296 8.25909Z" fill="#CC142B"/>
<path d="M34.2942 7.79004L34.89 7.98363L34.6814 6.59839L34.2942 7.79004Z" fill="#CC142B"/>
<path d="M35.0389 7.75135L34.4431 7.94495L34.6517 6.55971L35.0389 7.75135Z" fill="#CC142B"/>
<path d="M34.2942 7.79004L34.89 7.98363L33.907 8.98168L34.2942 7.79004Z" fill="#CC142B"/>
<path d="M34.8739 8.25909L34.5056 7.75226L33.8602 8.99557L34.8739 8.25909Z" fill="#CC142B"/>
<path d="M39.6199 11.7131L39.6199 12.5568L41.3072 11.7131L39.6199 11.7131Z" fill="white"/>
<path d="M39.9793 12.6507L39.4834 11.9682L41.3444 11.659L39.9793 12.6507Z" fill="white"/>
<path d="M39.6199 11.7131L39.6199 12.5568L37.9325 11.7131L39.6199 11.7131Z" fill="white"/>
<path d="M39.2605 12.6507L39.7563 11.9682L37.8954 11.659L39.2605 12.6507Z" fill="white"/>
<path d="M40.1013 12.0629L39.2989 12.3236L40.6227 13.6676L40.1013 12.0629Z" fill="white"/>
<path d="M39.3205 12.6945L39.8164 12.012L40.6856 13.6863L39.3205 12.6945Z" fill="white"/>
<path d="M39.1382 12.0629L39.9406 12.3236L39.6596 10.4581L39.1382 12.0629Z" fill="white"/>
<path d="M40.1412 12.0107L39.3389 12.2714L39.6198 10.406L40.1412 12.0107Z" fill="white"/>
<path d="M39.1384 12.0629L39.9408 12.3236L38.617 13.6676L39.1384 12.0629Z" fill="white"/>
<path d="M39.9192 12.6945L39.4233 12.012L38.5542 13.6863L39.9192 12.6945Z" fill="white"/>
<path d="M39.6199 11.9061L39.6199 12.4281L40.664 11.9061L39.6199 11.9061Z" fill="#CC142B"/>
<path d="M39.8423 12.4863L39.5354 12.0639L40.687 11.8725L39.8423 12.4863Z" fill="#CC142B"/>
<path d="M39.6199 11.9061L39.6199 12.4281L38.5757 11.9061L39.6199 11.9061Z" fill="#CC142B"/>
<path d="M39.3975 12.4863L39.7043 12.0639L38.5528 11.8725L39.3975 12.4863Z" fill="#CC142B"/>
<path d="M39.9177 12.1225L39.4212 12.2838L40.2404 13.1155L39.9177 12.1225Z" fill="#CC142B"/>
<path d="M39.4346 12.5134L39.7415 12.091L40.2793 13.1271L39.4346 12.5134Z" fill="#CC142B"/>
<path d="M39.322 12.1225L39.8185 12.2838L39.6447 11.1295L39.322 12.1225Z" fill="#CC142B"/>
<path d="M39.9426 12.0902L39.446 12.2515L39.6199 11.0972L39.9426 12.0902Z" fill="#CC142B"/>
<path d="M39.322 12.1225L39.8185 12.2838L38.9994 13.1155L39.322 12.1225Z" fill="#CC142B"/>
<path d="M39.8052 12.5134L39.4983 12.091L38.9604 13.1271L39.8052 12.5134Z" fill="#CC142B"/>
<path d="M28.8646 13.1639L28.8646 14.112L30.7608 13.1639L28.8646 13.1639Z" fill="white"/>
<path d="M29.2686 14.2176L28.7113 13.4506L30.8026 13.1031L29.2686 14.2176Z" fill="white"/>
<path d="M28.8645 13.1639L28.8645 14.112L26.9683 13.1639L28.8645 13.1639Z" fill="white"/>
<path d="M28.4606 14.2176L29.0178 13.4506L26.9265 13.1031L28.4606 14.2176Z" fill="white"/>
<path d="M29.4055 13.5569L28.5038 13.8499L29.9915 15.3603L29.4055 13.5569Z" fill="white"/>
<path d="M28.5282 14.2668L29.0854 13.4998L30.0622 15.3813L28.5282 14.2668Z" fill="white"/>
<path d="M28.3236 13.557L29.2253 13.85L28.9096 11.7537L28.3236 13.557Z" fill="white"/>
<path d="M29.4505 13.4984L28.5488 13.7914L28.8646 11.6951L29.4505 13.4984Z" fill="white"/>
<path d="M28.3236 13.5569L29.2253 13.8499L27.7377 15.3603L28.3236 13.5569Z" fill="white"/>
<path d="M29.2008 14.2668L28.6436 13.4998L27.6668 15.3813L29.2008 14.2668Z" fill="white"/>
<path d="M28.8646 13.3569L28.8646 13.9834L30.1176 13.3569L28.8646 13.3569Z" fill="#CC142B"/>
<path d="M29.1315 14.0531L28.7633 13.5463L30.1452 13.3166L29.1315 14.0531Z" fill="#CC142B"/>
<path d="M28.8646 13.3569L28.8646 13.9834L27.6117 13.3569L28.8646 13.3569Z" fill="#CC142B"/>
<path d="M28.5977 14.0531L28.9659 13.5463L27.584 13.3166L28.5977 14.0531Z" fill="#CC142B"/>
<path d="M29.2222 13.6166L28.6263 13.8102L29.6094 14.8082L29.2222 13.6166Z" fill="#CC142B"/>
<path d="M28.6425 14.0856L29.0107 13.5788L29.6562 14.8221L28.6425 14.0856Z" fill="#CC142B"/>
<path d="M28.5071 13.6166L29.1029 13.8102L28.8943 12.4249L28.5071 13.6166Z" fill="#CC142B"/>
<path d="M29.2518 13.5779L28.656 13.7715L28.8646 12.3862L29.2518 13.5779Z" fill="#CC142B"/>
<path d="M28.5072 13.6166L29.103 13.8102L28.12 14.8082L28.5072 13.6166Z" fill="#CC142B"/>
<path d="M29.0869 14.0856L28.7186 13.5788L28.0732 14.8221L29.0869 14.0856Z" fill="#CC142B"/>
<path d="M34.6516 22.3104V23.3629L36.7566 22.3104H34.6516Z" fill="white"/>
<path d="M35.1001 23.4801L34.4814 22.6287L36.8031 22.2429L35.1001 23.4801Z" fill="white"/>
<path d="M34.6516 22.3104V23.3629L32.5466 22.3104H34.6516Z" fill="white"/>
<path d="M34.2031 23.4801L34.8218 22.6287L32.5002 22.2429L34.2031 23.4801Z" fill="white"/>
<path d="M35.2522 22.7468L34.2512 23.072L35.9027 24.7487L35.2522 22.7468Z" fill="white"/>
<path d="M34.2783 23.5347L34.897 22.6832L35.9813 24.772L34.2783 23.5347Z" fill="white"/>
<path d="M34.0513 22.7468L35.0523 23.072L34.7017 20.7448L34.0513 22.7468Z" fill="white"/>
<path d="M35.3023 22.6817L34.3013 23.007L34.6518 20.6798L35.3023 22.6817Z" fill="white"/>
<path d="M34.0513 22.7468L35.0523 23.072L33.4008 24.7487L34.0513 22.7468Z" fill="white"/>
<path d="M35.0251 23.5347L34.4065 22.6832L33.3222 24.772L35.0251 23.5347Z" fill="white"/>
<path d="M34.6519 22.5034V23.2343L36.1137 22.5034H34.6519Z" fill="#CC142B"/>
<path d="M34.9633 23.3157L34.5337 22.7244L36.1459 22.4565L34.9633 23.3157Z" fill="#CC142B"/>
<path d="M34.6519 22.5034V23.2343L33.1901 22.5034H34.6519Z" fill="#CC142B"/>
<path d="M34.3404 23.3157L34.77 22.7244L33.1578 22.4565L34.3404 23.3157Z" fill="#CC142B"/>
<path d="M35.0688 22.8064L34.3737 23.0323L35.5206 24.1966L35.0688 22.8064Z" fill="#CC142B"/>
<path d="M34.3927 23.3536L34.8223 22.7623L35.5753 24.2128L34.3927 23.3536Z" fill="#CC142B"/>
<path d="M34.2349 22.8064L34.93 23.0323L34.6866 21.4161L34.2349 22.8064Z" fill="#CC142B"/>
<path d="M35.1036 22.7612L34.4084 22.9871L34.6519 21.3709L35.1036 22.7612Z" fill="#CC142B"/>
<path d="M34.2349 22.8064L34.93 23.0323L33.7831 24.1966L34.2349 22.8064Z" fill="#CC142B"/>
<path d="M34.9111 23.3536L34.4814 22.7623L33.7284 24.2128L34.9111 23.3536Z" fill="#CC142B"/>
<path d="M4 0.638123H24V15.6381H4V0.638123Z" fill="#012169"/>
<path d="M6.34375 0.638123L13.9688 6.29437L21.5625 0.638123H24V2.57562L16.5 8.16937L24 13.7319V15.6381H21.5L14 10.0444L6.53125 15.6381H4V13.7631L11.4688 8.20062L4 2.63812V0.638123H6.34375Z" fill="white"/>
<path d="M17.25 9.41937L24 14.3881V15.6381L15.5312 9.41937H17.25ZM11.5 10.0444L11.6875 11.1381L5.6875 15.6381H4L11.5 10.0444ZM24 0.638123V0.731873L16.2188 6.60687L16.2812 5.23187L22.4375 0.638123H24ZM4 0.638123L11.4688 6.13812H9.59375L4 1.95062V0.638123Z" fill="#C8102E"/>
<path d="M11.5312 0.638123V15.6381H16.5312V0.638123H11.5312ZM4 5.63812V10.6381H24V5.63812H4Z" fill="white"/>
<path d="M4 6.66937V9.66937H24V6.66937H4ZM12.5312 0.638123V15.6381H15.5312V0.638123H12.5312Z" fill="#C8102E"/>
</g>
</g>
<defs>
<filter id="filter0_d_2217_2910" x="0" y="0.638123" width="48" height="38" filterUnits="userSpaceOnUse" color-interpolation-filters="sRGB">
<feFlood flood-opacity="0" result="BackgroundImageFix"/>
<feColorMatrix in="SourceAlpha" type="matrix" values="0 0 0 0 0 0 0 0 0 0 0 0 0 0 0 0 0 0 127 0" result="hardAlpha"/>
<feOffset dy="4"/>
<feGaussianBlur stdDeviation="2"/>
<feComposite in2="hardAlpha" operator="out"/>
<feColorMatrix type="matrix" values="0 0 0 0 0 0 0 0 0 0 0 0 0 0 0 0 0 0 0.25 0"/>
<feBlend mode="normal" in2="BackgroundImageFix" result="effect1_dropShadow_2217_2910"/>
<feBlend mode="normal" in="SourceGraphic" in2="effect1_dropShadow_2217_2910" result="shape"/>
</filter>
<clipPath id="clip0_2217_2910">
<rect x="4" y="0.638123" width="40" height="30" rx="4" fill="white"/>
</clipPath>
</defs>
</svg>
