<svg width="24" height="25" viewBox="0 0 24 25" fill="none" xmlns="http://www.w3.org/2000/svg">
<path d="M20 11.787H22C22 6.65698 18.127 2.78798 12.99 2.78798V4.78798C17.052 4.78798 20 7.73098 20 11.787Z" fill="#C09300"/>
<path d="M13 8.78797C15.103 8.78797 16 9.68497 16 11.788H18C18 8.56297 16.225 6.78797 13 6.78797V8.78797ZM16.422 14.231C16.2299 14.0563 15.9774 13.9632 15.7178 13.9712C15.4583 13.9792 15.212 14.0878 15.031 14.274L12.638 16.735C12.062 16.625 10.904 16.264 9.71204 15.075C8.52004 13.882 8.15904 12.721 8.05204 12.149L10.511 9.75497C10.6975 9.5741 10.8062 9.3278 10.8142 9.06818C10.8222 8.80857 10.7289 8.55602 10.554 8.36397L6.85904 4.30097C6.68408 4.10833 6.44092 3.99148 6.18119 3.97523C5.92146 3.95899 5.66564 4.04463 5.46804 4.21397L3.29804 6.07497C3.12515 6.24849 3.02196 6.47942 3.00804 6.72397C2.99304 6.97397 2.70704 12.896 7.29904 17.49C11.305 21.495 16.323 21.788 17.705 21.788C17.907 21.788 18.031 21.782 18.064 21.78C18.3086 21.7663 18.5394 21.6626 18.712 21.489L20.572 19.318C20.7415 19.1205 20.8273 18.8647 20.8113 18.605C20.7952 18.3453 20.6785 18.1021 20.486 17.927L16.422 14.231Z" fill="#C09300"/>
</svg>
