<svg width="48" height="39" viewBox="0 0 48 39" fill="none" xmlns="http://www.w3.org/2000/svg">
<g filter="url(#filter0_d_2217_2905)">
<g clip-path="url(#clip0_2217_2905)">
<path d="M4 0.638123H44V30.6381H4" fill="#BD3D44"/>
<path d="M4 4.09436H44H4ZM4 8.70061H44H4ZM4 13.3256H44H4ZM4 17.9506H44H4ZM4 22.5756H44H4ZM4 27.2006H44H4Z" fill="black"/>
<path d="M4 4.09436H44M4 8.70061H44M4 13.3256H44M4 17.9506H44M4 22.5756H44M4 27.2006H44" stroke="white" stroke-width="2"/>
<path d="M4 0.638123H26.8V16.7944H4" fill="#192F5D"/>
</g>
</g>
<defs>
<filter id="filter0_d_2217_2905" x="0" y="0.638123" width="48" height="38" filterUnits="userSpaceOnUse" color-interpolation-filters="sRGB">
<feFlood flood-opacity="0" result="BackgroundImageFix"/>
<feColorMatrix in="SourceAlpha" type="matrix" values="0 0 0 0 0 0 0 0 0 0 0 0 0 0 0 0 0 0 127 0" result="hardAlpha"/>
<feOffset dy="4"/>
<feGaussianBlur stdDeviation="2"/>
<feComposite in2="hardAlpha" operator="out"/>
<feColorMatrix type="matrix" values="0 0 0 0 0 0 0 0 0 0 0 0 0 0 0 0 0 0 0.25 0"/>
<feBlend mode="normal" in2="BackgroundImageFix" result="effect1_dropShadow_2217_2905"/>
<feBlend mode="normal" in="SourceGraphic" in2="effect1_dropShadow_2217_2905" result="shape"/>
</filter>
<clipPath id="clip0_2217_2905">
<rect x="4" y="0.638123" width="40" height="30" rx="4" fill="white"/>
</clipPath>
</defs>
</svg>
