<svg width="48" height="39" viewBox="0 0 48 39" fill="none" xmlns="http://www.w3.org/2000/svg">
<g filter="url(#filter0_d_2217_2852)">
<g clip-path="url(#clip0_2217_2852)">
<path d="M4 0.638123H44V30.6381H4V0.638123Z" fill="white"/>
<path d="M20.625 3.96936H44V7.30686H20.625V3.96936ZM20.625 10.6381H44V13.9694H20.625V10.6381ZM4 17.3069H44V20.6381H4V17.3069ZM4 23.9694H44V27.3069H4V23.9694Z" fill="#0038A8"/>
<path d="M11.954 10.599L12.5057 11.4228C10.2386 13.0635 11.6227 14.0336 10.0161 14.5588C11.0153 13.5836 9.85876 13.5014 10.7007 11.4689" fill="#FCD116"/>
<path d="M11.954 10.599L12.5057 11.4228C10.2386 13.0635 11.6227 14.0336 10.0161 14.5588C11.0153 13.5836 9.85876 13.5014 10.7007 11.4689" stroke="black" stroke-width="0.1" stroke-miterlimit="20" stroke-linecap="square"/>
<path d="M11.5596 10.8325C10.3088 12.8941 11.1291 14.0276 10.0161 14.5588" stroke="black" stroke-width="0.1" stroke-miterlimit="20"/>
<path d="M12.3313 8.96936H13.4313L12.3313 15.0194L11.2313 8.96936H12.3313V15.0194V8.96936Z" fill="#FCD116"/>
<path d="M12.3313 8.96936H13.4313L12.3313 15.0194M12.3313 8.96936H11.2313L12.3313 15.0194M12.3313 8.96936V15.0194" stroke="black" stroke-width="0.1" stroke-miterlimit="20"/>
<path d="M10.9121 9.85485L10.7197 10.8275C7.95655 10.3846 8.24922 12.0493 6.74185 11.2846C8.13797 11.3016 7.37826 10.4257 9.41079 9.58376" fill="#FCD116"/>
<path d="M10.9121 9.85485L10.7197 10.8275C7.95655 10.3846 8.24922 12.0493 6.74185 11.2846C8.13797 11.3016 7.37826 10.4257 9.41079 9.58376" stroke="black" stroke-width="0.1" stroke-miterlimit="20" stroke-linecap="square"/>
<path d="M10.4681 9.74112C8.12582 10.3144 7.90434 11.696 6.74174 11.2846" stroke="black" stroke-width="0.1" stroke-miterlimit="20"/>
<path d="M12.3313 8.96941L13.1091 9.74722L8.05329 13.2474L11.5535 8.19159L12.3313 8.96941L8.05329 13.2474L12.3313 8.96941Z" fill="#FCD116"/>
<path d="M12.3313 8.96941L13.1091 9.74722L8.05329 13.2474M12.3313 8.96941L11.5535 8.19159L8.05329 13.2474M12.3313 8.96941L8.05329 13.2474" stroke="black" stroke-width="0.1" stroke-miterlimit="20"/>
<path d="M10.7016 8.59197L9.87777 9.1437C8.23713 6.87661 7.26695 8.2607 6.74179 6.6541C7.71696 7.65334 7.79916 6.49676 9.83169 7.33866" fill="#FCD116"/>
<path d="M10.7016 8.59197L9.87777 9.1437C8.23713 6.87661 7.26695 8.2607 6.74179 6.6541C7.71696 7.65334 7.79916 6.49676 9.83169 7.33866" stroke="black" stroke-width="0.1" stroke-miterlimit="20" stroke-linecap="square"/>
<path d="M10.4681 8.19761C8.40651 6.94679 7.27297 7.76711 6.7418 6.65412" stroke="black" stroke-width="0.1" stroke-miterlimit="20"/>
<path d="M12.3313 8.96938V10.0694L6.28131 8.96938L12.3313 7.86938V8.96938H6.28131H12.3313Z" fill="#FCD116"/>
<path d="M12.3313 8.96938V10.0694L6.28131 8.96938M12.3313 8.96938V7.86938L6.28131 8.96938M12.3313 8.96938H6.28131" stroke="black" stroke-width="0.1" stroke-miterlimit="20"/>
<path d="M11.4458 7.55021L10.4731 7.35779C10.9161 4.59461 9.25138 4.88728 10.0161 3.37991C9.99905 4.77603 10.875 4.01632 11.7169 6.04885" fill="#FCD116"/>
<path d="M11.4458 7.55021L10.4731 7.35779C10.9161 4.59461 9.25138 4.88728 10.0161 3.37991C9.99905 4.77603 10.875 4.01632 11.7169 6.04885" stroke="black" stroke-width="0.1" stroke-miterlimit="20" stroke-linecap="square"/>
<path d="M11.5595 7.10624C10.9862 4.76401 9.60464 4.54253 10.016 3.37993" stroke="black" stroke-width="0.1" stroke-miterlimit="20"/>
<path d="M12.3313 8.96941L11.5535 9.74722L8.05332 4.69141L13.1091 8.19159L12.3313 8.96941L8.05332 4.69141L12.3313 8.96941Z" fill="#FCD116"/>
<path d="M12.3313 8.96941L11.5535 9.74722L8.05332 4.69141M12.3313 8.96941L13.1091 8.19159L8.05332 4.69141M12.3313 8.96941L8.05332 4.69141" stroke="black" stroke-width="0.1" stroke-miterlimit="20"/>
<path d="M12.7086 7.33974L12.1569 6.5159C14.424 4.87525 13.0399 3.90507 14.6465 3.37992C13.6473 4.35508 14.8038 4.43728 13.9619 6.46981" fill="#FCD116"/>
<path d="M12.7086 7.33974L12.1569 6.5159C14.424 4.87525 13.0399 3.90507 14.6465 3.37992C13.6473 4.35508 14.8038 4.43728 13.9619 6.46981" stroke="black" stroke-width="0.1" stroke-miterlimit="20" stroke-linecap="square"/>
<path d="M13.103 7.10623C14.3538 5.04463 13.5335 3.91109 14.6465 3.37992" stroke="black" stroke-width="0.1" stroke-miterlimit="20"/>
<path d="M12.3313 8.96936H11.2313L12.3313 2.91937L13.4313 8.96936H12.3313V2.91937V8.96936Z" fill="#FCD116"/>
<path d="M12.3313 8.96936H11.2313L12.3313 2.91937M12.3313 8.96936H13.4313L12.3313 2.91937M12.3313 8.96936V2.91937" stroke="black" stroke-width="0.1" stroke-miterlimit="20"/>
<path d="M13.7504 8.08387L13.9429 7.11119C16.706 7.55415 16.4134 5.88944 17.9208 6.65413C16.5246 6.63711 17.2843 7.51306 15.2518 8.35496" fill="#FCD116"/>
<path d="M13.7504 8.08387L13.9429 7.11119C16.706 7.55415 16.4134 5.88944 17.9208 6.65413C16.5246 6.63711 17.2843 7.51306 15.2518 8.35496" stroke="black" stroke-width="0.1" stroke-miterlimit="20" stroke-linecap="square"/>
<path d="M14.1945 8.1976C16.5368 7.62429 16.7583 6.2427 17.9209 6.65411" stroke="black" stroke-width="0.1" stroke-miterlimit="20"/>
<path d="M12.3313 8.96931L11.5535 8.1915L16.6093 4.69132L13.1091 9.74713L12.3313 8.96931L16.6093 4.69132L12.3313 8.96931Z" fill="#FCD116"/>
<path d="M12.3313 8.96931L11.5535 8.1915L16.6093 4.69132M12.3313 8.96931L13.1091 9.74713L16.6093 4.69132M12.3313 8.96931L16.6093 4.69132" stroke="black" stroke-width="0.1" stroke-miterlimit="20"/>
<path d="M13.961 9.34675L14.7848 8.79502C16.4255 11.0621 17.3956 9.67802 17.9208 11.2846C16.9456 10.2854 16.8634 11.442 14.8309 10.6001" fill="#FCD116"/>
<path d="M13.961 9.34675L14.7848 8.79502C16.4255 11.0621 17.3956 9.67802 17.9208 11.2846C16.9456 10.2854 16.8634 11.442 14.8309 10.6001" stroke="black" stroke-width="0.1" stroke-miterlimit="20" stroke-linecap="square"/>
<path d="M14.1945 9.74111C16.2561 10.9919 17.3896 10.1716 17.9208 11.2846" stroke="black" stroke-width="0.1" stroke-miterlimit="20"/>
<path d="M12.3313 8.96934V7.86934L18.3813 8.96934L12.3313 10.0693V8.96934H18.3813H12.3313Z" fill="#FCD116"/>
<path d="M12.3313 8.96934V7.86934L18.3813 8.96934M12.3313 8.96934V10.0693L18.3813 8.96934M12.3313 8.96934H18.3813" stroke="black" stroke-width="0.1" stroke-miterlimit="20"/>
<path d="M13.2168 10.3885L14.1895 10.5809C13.7465 13.3441 15.4112 13.0514 14.6465 14.5588C14.6636 13.1627 13.7876 13.9224 12.9457 11.8899" fill="#FCD116"/>
<path d="M13.2168 10.3885L14.1895 10.5809C13.7465 13.3441 15.4112 13.0514 14.6465 14.5588C14.6636 13.1627 13.7876 13.9224 12.9457 11.8899" stroke="black" stroke-width="0.1" stroke-miterlimit="20" stroke-linecap="square"/>
<path d="M13.1031 10.8325C13.6764 13.1747 15.058 13.3962 14.6466 14.5588" stroke="black" stroke-width="0.1" stroke-miterlimit="20"/>
<path d="M12.3313 8.96931L13.1091 8.1915L16.6093 13.2473L11.5535 9.74713L12.3313 8.96931L16.6093 13.2473L12.3313 8.96931Z" fill="#FCD116"/>
<path d="M12.3313 8.96931L13.1091 8.1915L16.6093 13.2473M12.3313 8.96931L11.5535 9.74713L16.6093 13.2473M12.3313 8.96931L16.6093 13.2473" stroke="black" stroke-width="0.1" stroke-miterlimit="20"/>
<path d="M12.3312 10.986C13.445 10.986 14.3479 10.0831 14.3479 8.96936C14.3479 7.85559 13.445 6.9527 12.3312 6.9527C11.2175 6.9527 10.3146 7.85559 10.3146 8.96936C10.3146 10.0831 11.2175 10.986 12.3312 10.986Z" fill="#FCD116" stroke="black" stroke-width="0.1" stroke-miterlimit="20"/>
<path d="M13.8163 8.16274C13.688 8.30941 13.6147 8.05274 13.1563 8.05274C12.698 8.05274 12.6247 8.32774 12.5513 8.27274C12.478 8.21774 12.9363 7.88775 13.083 7.86941C13.2297 7.85108 13.6513 7.99774 13.8163 8.16274ZM13.2847 8.32774C13.413 8.43774 13.303 8.67607 13.1747 8.67607C13.0463 8.67607 12.808 8.45607 12.918 8.30941" fill="black"/>
<path d="M12.6796 8.49275C12.6979 8.27275 12.8812 8.23608 13.1746 8.23608C13.4679 8.23608 13.5962 8.45608 13.7062 8.51108C13.5779 8.51108 13.4679 8.32775 13.1746 8.32775C12.8812 8.32775 12.8812 8.32775 12.6796 8.51108M12.7346 8.54775C12.8079 8.43775 12.8996 8.65775 13.1012 8.65775C13.3029 8.65775 13.4129 8.60275 13.5412 8.51108C13.6696 8.41942 13.3579 8.73108 13.1562 8.73108C12.9546 8.73108 12.6796 8.62108 12.7346 8.54775Z" fill="black"/>
<path d="M13.3579 8.65772C13.5963 8.52938 13.4496 8.34605 13.3579 8.30939C13.3946 8.34605 13.5413 8.52938 13.3579 8.65772ZM12.3313 9.7577C12.4413 9.7577 12.478 9.72104 12.6246 9.72104C12.7713 9.72104 13.1196 9.9227 13.3213 9.84937C12.8996 10.0144 13.0646 9.90437 12.3313 9.90437H12.2396M13.3946 10.0144C13.3213 9.88604 13.3396 9.9227 13.1929 9.72104C13.3396 9.83104 13.3763 9.88604 13.3946 10.0144ZM12.3313 10.1977C12.7896 10.1977 12.7163 10.106 13.3213 9.84937C12.8813 9.90437 12.7896 10.051 12.3313 10.051H12.2396M12.3313 9.51937C12.4596 9.51937 12.4963 9.42771 12.643 9.42771C12.7896 9.42771 12.9913 9.48271 13.0829 9.55604C13.1013 9.57437 13.0279 9.40937 12.8813 9.39104C12.7346 9.37271 12.7896 9.13438 12.6246 9.09771C12.6246 9.17104 12.6796 9.15271 12.698 9.26271C12.698 9.35438 12.533 9.35438 12.4963 9.26271C12.533 9.40937 12.423 9.40937 12.3313 9.40937" fill="black"/>
<path d="M10.8463 8.16274C10.9746 8.30941 11.0479 8.05274 11.5063 8.05274C11.9646 8.05274 12.0379 8.32774 12.1113 8.27274C12.1846 8.21774 11.7263 7.88775 11.5796 7.86941C11.4329 7.85108 11.0113 7.99774 10.8463 8.16274ZM11.3779 8.32774C11.2496 8.43774 11.3596 8.67607 11.4879 8.67607C11.6163 8.67607 11.8546 8.45607 11.7446 8.30941" fill="black"/>
<path d="M11.983 8.49275C11.9647 8.27275 11.7814 8.23608 11.488 8.23608C11.1947 8.23608 11.0664 8.45608 10.9564 8.51108C11.0847 8.51108 11.1947 8.32775 11.488 8.32775C11.7814 8.32775 11.7814 8.32775 11.983 8.51108M11.928 8.54775C11.8547 8.43775 11.763 8.65775 11.5614 8.65775C11.3597 8.65775 11.2497 8.60275 11.1214 8.51108C10.993 8.41942 11.3047 8.73108 11.5064 8.73108C11.708 8.73108 11.983 8.62108 11.928 8.54775Z" fill="black"/>
<path d="M11.3047 8.65772C11.0663 8.52938 11.213 8.34605 11.3047 8.30939C11.268 8.34605 11.1213 8.52938 11.3047 8.65772ZM12.3313 9.7577C12.2213 9.7577 12.1846 9.72104 12.038 9.72104C11.8913 9.72104 11.543 9.9227 11.3413 9.84937C11.763 10.0144 11.598 9.90437 12.3313 9.90437H12.423M11.268 10.0144C11.3413 9.88604 11.323 9.9227 11.4697 9.72104C11.323 9.83104 11.2863 9.88604 11.268 10.0144ZM12.3313 10.1977C11.873 10.1977 11.9463 10.106 11.3413 9.84937C11.7813 9.90437 11.873 10.051 12.3313 10.051H12.423M12.3313 9.51937C12.203 9.51937 12.1663 9.42771 12.0196 9.42771C11.873 9.42771 11.6713 9.48271 11.5796 9.55604C11.5613 9.57437 11.6346 9.40937 11.7813 9.39104C11.928 9.37271 11.873 9.13438 12.038 9.09771C12.038 9.17104 11.983 9.15271 11.9646 9.26271C11.9646 9.35438 12.1296 9.35438 12.1663 9.26271C12.1296 9.40937 12.2396 9.40937 12.3313 9.40937" fill="black"/>
<path d="M12.3313 10.3627C12.2397 10.3627 12.0013 10.4177 12.3313 10.4177C12.6613 10.4177 12.423 10.3627 12.3313 10.3627Z" fill="black"/>
</g>
</g>
<defs>
<filter id="filter0_d_2217_2852" x="0" y="0.638123" width="48" height="38" filterUnits="userSpaceOnUse" color-interpolation-filters="sRGB">
<feFlood flood-opacity="0" result="BackgroundImageFix"/>
<feColorMatrix in="SourceAlpha" type="matrix" values="0 0 0 0 0 0 0 0 0 0 0 0 0 0 0 0 0 0 127 0" result="hardAlpha"/>
<feOffset dy="4"/>
<feGaussianBlur stdDeviation="2"/>
<feComposite in2="hardAlpha" operator="out"/>
<feColorMatrix type="matrix" values="0 0 0 0 0 0 0 0 0 0 0 0 0 0 0 0 0 0 0.25 0"/>
<feBlend mode="normal" in2="BackgroundImageFix" result="effect1_dropShadow_2217_2852"/>
<feBlend mode="normal" in="SourceGraphic" in2="effect1_dropShadow_2217_2852" result="shape"/>
</filter>
<clipPath id="clip0_2217_2852">
<rect x="4" y="0.638123" width="40" height="30" rx="4" fill="white"/>
</clipPath>
</defs>
</svg>
