<svg width="287" height="316" viewBox="0 0 287 316" fill="none" xmlns="http://www.w3.org/2000/svg">
<g clip-path="url(#clip0_2217_3363)">
<rect width="286.741" height="316" rx="11.7037" fill="white"/>
<path opacity="0.62" fill-rule="evenodd" clip-rule="evenodd" d="M371.99 136.395V-107.927C522.15 -8.52878 505.026 98.1103 505.026 98.1103C481.317 231.738 278.47 315.996 278.47 315.996L209.976 279.792V107.326L245.211 72.1088L211.952 38.8664V-137.549L254.761 -161.905V15.8271L288.349 49.3986H302.179V-161.905L345.647 -137.549V235.03C345.647 235.03 460.242 151.43 463.535 89.2237C466.828 27.0176 416.775 -9.18706 416.775 -9.18706V136.395H371.99ZM277.509 267.285L301.521 255.436V92.8442H285.161L253.496 124.494V255.436L277.509 267.285ZM94.0639 69.1464C91.4296 152.088 140.824 183.026 140.824 183.026V-72.3809L178.364 -103.978V267.285C178.364 267.285 119.749 247.537 66.403 152.746C13.0569 57.9559 93.9586 -23.6692 93.9586 -23.6692C93.9586 -23.6692 96.6983 -13.7952 94.0639 69.1464Z" fill="#F9F9F9"/>
<path d="M95.2581 77.3635H78.5484C76.016 77.3635 73.5873 78.3695 71.7967 80.1602C70.006 81.9509 69 84.3795 69 86.9119V254.009C69 256.541 70.006 258.97 71.7967 260.76C73.5873 262.551 76.016 263.557 78.5484 263.557H207.452C209.984 263.557 212.413 262.551 214.203 260.76C215.994 258.97 217 256.541 217 254.009V86.9119C217 84.3795 215.994 81.9509 214.203 80.1602C212.413 78.3695 209.984 77.3635 207.452 77.3635H143" stroke="#636363" stroke-width="1.95062" stroke-linecap="round" stroke-linejoin="round"/>
<path d="M116.747 119.644C116.747 120.721 117.62 121.594 118.697 121.594C119.775 121.594 120.648 120.721 120.648 119.644L116.747 119.644ZM120.077 50.6205C119.315 49.8587 118.08 49.8587 117.318 50.6205L104.904 63.0341C104.143 63.7959 104.143 65.031 104.904 65.7927C105.666 66.5545 106.901 66.5545 107.663 65.7927L118.697 54.7584L129.732 65.7927C130.493 66.5545 131.728 66.5545 132.49 65.7927C133.252 65.031 133.252 63.7959 132.49 63.0341L120.077 50.6205ZM120.648 119.644L120.648 51.9998L116.747 51.9998L116.747 119.644L120.648 119.644Z" fill="#C09300"/>
<path d="M95.2561 237.297H190.74" stroke="#636363" stroke-width="1.95062" stroke-linecap="round" stroke-linejoin="round"/>
<path d="M95.2285 136.844L190.482 136.844" stroke="#636363" stroke-width="1.95062" stroke-linecap="round" stroke-linejoin="round"/>
<path d="M95.2285 169.971L190.482 169.971" stroke="#636363" stroke-width="1.95062" stroke-linecap="round" stroke-linejoin="round"/>
<path d="M95.2561 203.885H190.74" stroke="#636363" stroke-width="1.95062" stroke-linecap="round" stroke-linejoin="round"/>
</g>
<rect x="0.487654" y="0.487654" width="285.765" height="315.025" rx="11.216" stroke="#E8E8E8" stroke-width="0.975309"/>
<defs>
<clipPath id="clip0_2217_3363">
<rect width="286.741" height="316" rx="11.7037" fill="white"/>
</clipPath>
</defs>
</svg>
