<svg width="289" height="317" viewBox="0 0 289 317" fill="none" xmlns="http://www.w3.org/2000/svg">
<g clip-path="url(#clip0_2217_3396)">
<rect width="288.627" height="317" rx="11.7407" fill="white"/>
<path opacity="0.62" fill-rule="evenodd" clip-rule="evenodd" d="M373.732 136.827V-108.268C524.366 -8.55574 507.189 98.4208 507.189 98.4208C483.404 232.472 279.915 316.996 279.915 316.996L211.205 280.677V107.666L246.551 72.3371L213.187 38.9894V-137.984L256.131 -162.417V15.8772L289.826 49.555H303.7V-162.417L347.304 -137.984V235.773C347.304 235.773 462.262 151.909 465.566 89.5061C468.869 27.1031 418.658 -9.21609 418.658 -9.21609V136.827H373.732ZM278.951 268.131L303.039 256.244V93.138H286.628L254.862 124.888V256.244L278.951 268.131ZM94.9266 69.3652C92.2839 152.569 141.835 183.606 141.835 183.606V-72.6099L179.493 -104.307V268.13C179.493 268.13 120.693 248.32 67.1781 153.23C13.6632 58.1393 94.8209 -23.744 94.8209 -23.744C94.8209 -23.744 97.5693 -13.8388 94.9266 69.3652Z" fill="#F9F9F9"/>
<path d="M59.5593 72.4519C58.6845 72.4519 57.9753 73.161 57.9753 74.0359V88.2922C57.9753 89.1671 58.6845 89.8763 59.5593 89.8763C60.4342 89.8763 61.1434 89.1671 61.1434 88.2922V75.6199H73.8157C74.6905 75.6199 75.3997 74.9107 75.3997 74.0359C75.3997 73.161 74.6905 72.4519 73.8157 72.4519H59.5593ZM115.465 132.181C116.083 132.8 117.086 132.8 117.705 132.181C118.323 131.563 118.323 130.56 117.705 129.941L115.465 132.181ZM58.4392 75.156L115.465 132.181L117.705 129.941L60.6794 72.9158L58.4392 75.156Z" fill="#636363"/>
<path d="M59.5596 244.584C58.6847 244.584 57.9755 243.875 57.9755 243V228.743C57.9755 227.869 58.6847 227.159 59.5596 227.159C60.4344 227.159 61.1436 227.869 61.1436 228.743V241.416H73.8159C74.6908 241.416 75.4 242.125 75.4 243C75.4 243.875 74.6908 244.584 73.8159 244.584H59.5596ZM119.454 180.865C120.073 180.246 121.076 180.246 121.694 180.865C122.313 181.484 122.313 182.486 121.694 183.105L119.454 180.865ZM58.4395 241.88L119.454 180.865L121.694 183.105L60.6797 244.12L58.4395 241.88Z" fill="#636363"/>
<path d="M228.524 72.4519C229.399 72.4519 230.108 73.161 230.108 74.0359V88.2922C230.108 89.1671 229.399 89.8763 228.524 89.8763C227.649 89.8763 226.94 89.1671 226.94 88.2922V75.6199H214.268C213.393 75.6199 212.684 74.9107 212.684 74.0359C212.684 73.161 213.393 72.4519 214.268 72.4519H228.524ZM171.446 133.355C170.827 133.973 169.824 133.973 169.205 133.355C168.587 132.736 168.587 131.733 169.205 131.115L171.446 133.355ZM229.644 75.156L171.446 133.355L169.205 131.115L227.404 72.9158L229.644 75.156Z" fill="#636363"/>
<path d="M228.524 244.584C229.399 244.584 230.108 243.875 230.108 243V228.743C230.108 227.869 229.399 227.159 228.524 227.159C227.649 227.159 226.94 227.869 226.94 228.743V241.416H214.268C213.393 241.416 212.684 242.125 212.684 243C212.684 243.875 213.393 244.584 214.268 244.584H228.524ZM170.507 182.742C169.888 182.124 168.885 182.124 168.267 182.742C167.648 183.361 167.648 184.364 168.267 184.982L170.507 182.742ZM229.644 241.88L170.507 182.742L168.267 184.982L227.404 244.12L229.644 241.88Z" fill="#636363"/>
<circle cx="144.041" cy="158.518" r="19.0085" fill="#C09300"/>
</g>
<rect x="0.489198" y="0.489198" width="287.648" height="316.022" rx="11.2515" stroke="#E7E7E7" stroke-width="0.978395"/>
<defs>
<clipPath id="clip0_2217_3396">
<rect width="288.627" height="317" rx="11.7407" fill="white"/>
</clipPath>
</defs>
</svg>
