<svg width="289" height="317" viewBox="0 0 289 317" fill="none" xmlns="http://www.w3.org/2000/svg">
<g clip-path="url(#clip0_2217_3330)">
<rect width="288.63" height="317" rx="11.7634" fill="white"/>
<g clip-path="url(#clip1_2217_3330)">
<path opacity="0.62" fill-rule="evenodd" clip-rule="evenodd" d="M389.16 143.957V-101.612C540.086 -1.7065 522.875 105.477 522.875 105.477C499.045 239.787 295.163 324.475 295.163 324.475L226.319 288.085V114.74L261.734 79.3426L228.305 45.9305V-131.385L271.332 -155.865V22.7736L305.092 56.5165H318.993V-155.865L362.682 -131.385V243.095C362.682 243.095 477.862 159.068 481.172 96.5449C484.482 34.0213 434.173 -2.36813 434.173 -2.36813V143.957H389.16ZM294.196 275.515L318.331 263.605V100.184H301.888L270.061 131.995V263.605L294.196 275.515ZM109.815 76.3651C107.167 159.73 156.814 190.826 156.814 190.826V-65.8844L194.545 -97.6425V275.514C194.545 275.514 135.631 255.666 82.013 160.392C28.3946 65.1174 109.709 -16.9241 109.709 -16.9241C109.709 -16.9241 112.463 -6.99974 109.815 76.3651Z" fill="#F6F6F6"/>
</g>
<path d="M88.6534 106.462C75.39 117.61 65.9237 132.608 61.5668 149.378C57.21 166.147 58.1784 183.857 64.3379 200.052C70.4974 216.246 81.5429 230.123 95.9428 239.758C110.343 249.394 127.384 254.31 144.703 253.827C162.023 253.343 178.763 247.482 192.602 237.058C206.442 226.633 216.695 212.161 221.941 195.648C227.186 179.135 227.164 161.399 221.878 144.899C216.592 128.399 206.303 113.952 192.438 103.562" stroke="#636363" stroke-width="1.96057" stroke-linecap="round"/>
<path d="M145.804 60.0001C145.804 58.2062 144.35 56.752 142.556 56.752C140.762 56.752 139.308 58.2062 139.308 60.0001H145.804ZM140.259 149.996C141.527 151.265 143.584 151.265 144.852 149.996L165.523 129.325C166.792 128.057 166.792 126 165.523 124.732C164.255 123.463 162.198 123.463 160.93 124.732L142.556 143.106L124.181 124.732C122.913 123.463 120.856 123.463 119.588 124.732C118.319 126 118.319 128.057 119.588 129.325L140.259 149.996ZM139.308 60.0001V147.699H145.804V60.0001H139.308Z" fill="#C09300"/>
</g>
<rect x="0.490143" y="0.490143" width="287.65" height="316.02" rx="11.2733" stroke="#E8E8E8" stroke-width="0.980286"/>
<defs>
<clipPath id="clip0_2217_3330">
<rect width="288.63" height="317" rx="11.7634" fill="white"/>
</clipPath>
<clipPath id="clip1_2217_3330">
<rect width="459.754" height="480.34" fill="white" transform="translate(63.7163 -155.865)"/>
</clipPath>
</defs>
</svg>
