<svg width="290" height="319" viewBox="0 0 290 319" fill="none" xmlns="http://www.w3.org/2000/svg">
<g clip-path="url(#clip0_2217_3376)">
<rect width="289.463" height="319" rx="11.8148" fill="white"/>
<path opacity="0.62" fill-rule="evenodd" clip-rule="evenodd" d="M375.664 137.69V-108.952C527.249 -8.60979 509.963 99.0417 509.963 99.0417C486.029 233.938 281.256 318.996 281.256 318.996L212.112 282.448V108.345L247.681 72.7934L214.106 39.2353V-138.855L257.321 -163.442V15.9773L291.229 49.8676H305.19V-163.442L349.07 -138.855V237.261C349.07 237.261 464.753 152.867 468.078 90.0708C471.402 27.274 420.874 -9.27429 420.874 -9.27429V137.69H375.664ZM280.285 269.822L304.526 257.861V93.7256H288.011L256.045 125.675V257.861L280.285 269.822ZM95.0984 69.8028C92.4391 153.532 142.303 184.764 142.303 184.764V-73.0681L180.199 -104.965V269.822C180.199 269.822 121.027 249.887 67.1749 154.196C13.3224 58.506 94.9921 -23.8939 94.9921 -23.8939C94.9921 -23.8939 97.7578 -13.9262 95.0984 69.8028Z" fill="#F9F9F9"/>
<path d="M97.2581 83.5005H80.5484C78.016 83.5005 75.5873 84.5065 73.7967 86.2971C72.006 88.0878 71 90.5165 71 93.0489V260.146C71 262.678 72.006 265.107 73.7967 266.897C75.5873 268.688 78.016 269.694 80.5484 269.694H209.452C211.984 269.694 214.413 268.688 216.203 266.897C217.994 265.107 219 262.678 219 260.146V93.0489C219 90.5165 217.994 88.0878 216.203 86.2971C214.413 84.5065 211.984 83.5005 209.452 83.5005H145" stroke="#636363" stroke-width="1.96914" stroke-linecap="round" stroke-linejoin="round"/>
<path d="M124.048 51C124.048 49.9125 123.166 49.0309 122.079 49.0309C120.991 49.0309 120.109 49.9125 120.109 51L124.048 51ZM120.686 115.895C121.455 116.664 122.702 116.664 123.471 115.895L136.003 103.363C136.772 102.594 136.772 101.348 136.003 100.579C135.234 99.8097 133.987 99.8097 133.218 100.579L122.079 111.718L110.94 100.579C110.171 99.8097 108.924 99.8097 108.155 100.579C107.386 101.348 107.386 102.594 108.155 103.363L120.686 115.895ZM120.109 51L120.109 114.503L124.048 114.503L124.048 51L120.109 51Z" fill="#C09300"/>
<path d="M97.2563 243.434H192.74" stroke="#636363" stroke-width="1.96914" stroke-linecap="round" stroke-linejoin="round"/>
<path d="M97.2285 142.974L192.482 142.974" stroke="#636363" stroke-width="1.96914" stroke-linecap="round" stroke-linejoin="round"/>
<path d="M97.2285 176.108L192.482 176.108" stroke="#636363" stroke-width="1.96914" stroke-linecap="round" stroke-linejoin="round"/>
<path d="M97.2563 210.014H192.74" stroke="#636363" stroke-width="1.96914" stroke-linecap="round" stroke-linejoin="round"/>
</g>
<rect x="0.492284" y="0.492284" width="288.478" height="318.015" rx="11.3225" stroke="#E8E8E8" stroke-width="0.984568"/>
<defs>
<clipPath id="clip0_2217_3376">
<rect width="289.463" height="319" rx="11.8148" fill="white"/>
</clipPath>
</defs>
</svg>
