<svg width="315" height="343" viewBox="0 0 315 343" fill="none" xmlns="http://www.w3.org/2000/svg">
<g filter="url(#filter0_d_2217_3338)">
<g clip-path="url(#clip0_2217_3338)">
<rect x="13" y="13" width="288.63" height="317" rx="11.963" fill="white"/>
<g clip-path="url(#clip1_2217_3338)">
<path opacity="0.62" fill-rule="evenodd" clip-rule="evenodd" d="M372.221 240.974V-75.5745C566.77 53.2077 544.585 191.371 544.585 191.371C513.866 364.502 251.054 473.669 251.054 473.669L162.312 426.761V203.311L207.963 157.683L164.872 114.614V-113.953L220.336 -145.509V84.7636L263.853 128.26H281.772V-145.509L338.089 -113.953V368.767C338.089 368.767 486.561 260.453 490.828 179.858C495.094 99.2623 430.244 52.3549 430.244 52.3549V240.974H372.221ZM249.808 410.557L280.919 395.205V184.548H259.723L218.697 225.554V395.205L249.808 410.557ZM12.1301 153.843C8.71695 261.304 72.7134 301.388 72.7134 301.388V-29.5222L121.351 -70.4595V410.555C121.351 410.555 45.4083 384.969 -23.7079 262.157C-92.8242 139.345 11.9936 33.5896 11.9936 33.5896C11.9936 33.5896 15.5432 46.3826 12.1301 153.843Z" fill="#F9F9F9"/>
</g>
<path d="M103.475 141.292C90.5747 152.135 81.3674 166.724 77.1297 183.034C72.8921 199.345 73.834 216.57 79.825 232.322C85.816 248.073 96.5592 261.57 110.565 270.942C124.571 280.314 141.146 285.096 157.991 284.625C174.837 284.155 191.119 278.454 204.58 268.315C218.041 258.176 228.013 244.1 233.116 228.039C238.218 211.978 238.196 194.727 233.055 178.678C227.913 162.629 217.905 148.578 204.42 138.472" stroke="#636363" stroke-width="3.24812" stroke-linecap="round"/>
<path d="M152.308 180.699C152.308 182.493 153.762 183.948 155.556 183.948C157.35 183.948 158.804 182.493 158.804 180.699L152.308 180.699ZM157.852 90.7033C156.584 89.4349 154.527 89.4349 153.259 90.7033L132.588 111.374C131.319 112.643 131.319 114.699 132.588 115.968C133.856 117.236 135.913 117.236 137.182 115.968L155.556 97.5937L173.93 115.968C175.198 117.236 177.255 117.236 178.523 115.968C179.792 114.699 179.792 112.643 178.523 111.374L157.852 90.7033ZM158.804 180.699L158.804 93.0001L152.308 93.0001L152.308 180.699L158.804 180.699Z" fill="#C09300"/>
</g>
<rect x="13.4985" y="13.4985" width="287.633" height="316.003" rx="11.4645" stroke="#E7E7E7" stroke-width="0.996914"/>
</g>
<defs>
<filter id="filter0_d_2217_3338" x="0.131474" y="0.131474" width="314.367" height="342.737" filterUnits="userSpaceOnUse" color-interpolation-filters="sRGB">
<feFlood flood-opacity="0" result="BackgroundImageFix"/>
<feColorMatrix in="SourceAlpha" type="matrix" values="0 0 0 0 0 0 0 0 0 0 0 0 0 0 0 0 0 0 127 0" result="hardAlpha"/>
<feOffset/>
<feGaussianBlur stdDeviation="6.43426"/>
<feComposite in2="hardAlpha" operator="out"/>
<feColorMatrix type="matrix" values="0 0 0 0 0 0 0 0 0 0 0 0 0 0 0 0 0 0 0.25 0"/>
<feBlend mode="normal" in2="BackgroundImageFix" result="effect1_dropShadow_2217_3338"/>
<feBlend mode="normal" in="SourceGraphic" in2="effect1_dropShadow_2217_3338" result="shape"/>
</filter>
<clipPath id="clip0_2217_3338">
<rect x="13" y="13" width="288.63" height="317" rx="11.963" fill="white"/>
</clipPath>
<clipPath id="clip1_2217_3338">
<rect width="467.552" height="488.488" fill="white" transform="translate(77.7971 -145.509)"/>
</clipPath>
</defs>
</svg>
