<svg width="185" height="146" viewBox="0 0 185 146" fill="none" xmlns="http://www.w3.org/2000/svg">
<g filter="url(#filter0_d_2140_1739)">
<g clip-path="url(#clip0_2140_1739)">
<path d="M16 0H169.333V38.3333H16V0Z" fill="#FF9933"/>
<path d="M16 38.3335H169.333V76.6668H16V38.3335Z" fill="white"/>
<path d="M16 76.6665H169.333V115H16V76.6665Z" fill="#128807"/>
<path d="M92.6666 72.8332C101.135 72.8332 108 65.9682 108 57.4998C108 49.0315 101.135 42.1665 92.6666 42.1665C84.1982 42.1665 77.3333 49.0315 77.3333 57.4998C77.3333 65.9682 84.1982 72.8332 92.6666 72.8332Z" fill="#000088"/>
<path d="M92.6667 70.9168C100.076 70.9168 106.083 64.91 106.083 57.5002C106.083 50.0903 100.076 44.0835 92.6667 44.0835C85.2568 44.0835 79.25 50.0903 79.25 57.5002C79.25 64.91 85.2568 70.9168 92.6667 70.9168Z" fill="white"/>
<path d="M92.6658 60.1836C94.1477 60.1836 95.3491 58.9822 95.3491 57.5002C95.3491 56.0183 94.1477 54.8169 92.6658 54.8169C91.1838 54.8169 89.9824 56.0183 89.9824 57.5002C89.9824 58.9822 91.1838 60.1836 92.6658 60.1836Z" fill="#000088"/>
<path d="M105.878 59.9402C106.255 59.9899 106.602 59.724 106.652 59.3462C106.701 58.9683 106.435 58.6217 106.058 58.572C105.68 58.5223 105.333 58.7882 105.283 59.166C105.234 59.5438 105.5 59.8905 105.878 59.9402Z" fill="#000088"/>
<path d="M92.6658 70.9165L93.1258 62.8665L92.6658 59.0332L92.2058 62.8665L92.6658 70.9165Z" fill="#000088"/>
<path d="M104.793 63.2763C105.146 63.4221 105.549 63.255 105.695 62.9029C105.841 62.5508 105.674 62.1472 105.322 62.0014C104.969 61.8555 104.566 62.0227 104.42 62.3748C104.274 62.7269 104.441 63.1305 104.793 63.2763Z" fill="#000088"/>
<path d="M89.1922 70.4593L91.72 62.8026L92.2678 58.9809L90.8313 62.5645L89.1922 70.4593Z" fill="#000088"/>
<path d="M102.885 66.2195C103.188 66.4514 103.621 66.3944 103.853 66.0921C104.085 65.7898 104.028 65.3566 103.725 65.1246C103.423 64.8927 102.99 64.9497 102.758 65.252C102.526 65.5543 102.583 65.9875 102.885 66.2195Z" fill="#000088"/>
<path d="M85.9569 69.1189L90.3803 62.3774L91.8986 58.8277L89.5836 61.9174L85.9569 69.1189Z" fill="#000088"/>
<path d="M100.28 68.5672C100.512 68.8695 100.945 68.9265 101.247 68.6946C101.55 68.4626 101.607 68.0294 101.375 67.7271C101.143 67.4248 100.71 67.3677 100.407 67.5997C100.105 67.8317 100.048 68.2649 100.28 68.5672Z" fill="#000088"/>
<path d="M83.1776 66.9868L89.1951 61.6199L91.5804 58.5841L88.5446 60.9694L83.1776 66.9868Z" fill="#000088"/>
<path d="M97.158 70.1622C97.3039 70.5142 97.7075 70.6814 98.0596 70.5356C98.4116 70.3898 98.5788 69.9861 98.433 69.6341C98.2872 69.282 97.8835 69.1148 97.5315 69.2606C97.1794 69.4065 97.0122 69.8101 97.158 70.1622Z" fill="#000088"/>
<path d="M81.0476 64.2087L88.2491 60.5821L91.3389 58.267L87.7891 59.7853L81.0476 64.2087Z" fill="#000088"/>
<path d="M93.7299 70.893C93.7797 71.2708 94.1263 71.5368 94.5041 71.4871C94.8819 71.4373 95.1479 71.0907 95.0981 70.7129C95.0484 70.3351 94.7018 70.0691 94.324 70.1189C93.9461 70.1686 93.6802 70.5152 93.7299 70.893Z" fill="#000088"/>
<path d="M79.7088 60.9726L87.6035 59.3334L91.1872 57.897L87.3654 58.4448L79.7088 60.9726Z" fill="#000088"/>
<path d="M90.227 70.7115C90.1773 71.0893 90.4433 71.4359 90.8211 71.4857C91.1989 71.5354 91.5455 71.2694 91.5952 70.8916C91.645 70.5138 91.379 70.1672 91.0012 70.1175C90.6234 70.0677 90.2768 70.3337 90.227 70.7115Z" fill="#000088"/>
<path d="M79.25 57.5L87.3 57.96L91.1333 57.5L87.3 57.04L79.25 57.5Z" fill="#000088"/>
<path d="M86.8897 69.6304C86.7439 69.9824 86.9111 70.3861 87.2631 70.5319C87.6152 70.6777 88.0188 70.5105 88.1647 70.1585C88.3105 69.8064 88.1433 69.4028 87.7912 69.2569C87.4392 69.1111 87.0355 69.2783 86.8897 69.6304Z" fill="#000088"/>
<path d="M79.7082 54.0279L87.3648 56.5557L91.1866 57.1035L87.6029 55.667L79.7082 54.0279Z" fill="#000088"/>
<path d="M83.947 67.722C83.7151 68.0243 83.7721 68.4574 84.0744 68.6894C84.3767 68.9214 84.8099 68.8644 85.0419 68.5621C85.2739 68.2597 85.2168 67.8266 84.9145 67.5946C84.6122 67.3626 84.179 67.4196 83.947 67.722Z" fill="#000088"/>
<path d="M81.0464 50.7922L87.7879 55.2155L91.3376 56.7338L88.2479 54.4188L81.0464 50.7922Z" fill="#000088"/>
<path d="M81.5986 65.1162C81.2963 65.3482 81.2392 65.7814 81.4712 66.0837C81.7032 66.386 82.1363 66.443 82.4387 66.2111C82.741 65.9791 82.798 65.5459 82.566 65.2436C82.3341 64.9413 81.9009 64.8842 81.5986 65.1162Z" fill="#000088"/>
<path d="M83.1787 48.0128L88.5456 54.0303L91.5815 56.4156L89.1962 53.3798L83.1787 48.0128Z" fill="#000088"/>
<path d="M80.0051 61.9925C79.653 62.1383 79.4858 62.542 79.6316 62.894C79.7775 63.2461 80.1811 63.4133 80.5332 63.2675C80.8852 63.1216 81.0524 62.718 80.9066 62.3659C80.7608 62.0139 80.3571 61.8467 80.0051 61.9925Z" fill="#000088"/>
<path d="M85.9583 45.8811L89.5849 53.0826L91.9 56.1724L90.3817 52.6226L85.9583 45.8811Z" fill="#000088"/>
<path d="M79.2732 58.5632C78.8954 58.6129 78.6295 58.9595 78.6792 59.3373C78.7289 59.7152 79.0755 59.9811 79.4534 59.9314C79.8312 59.8816 80.0971 59.535 80.0474 59.1572C79.9976 58.7794 79.651 58.5134 79.2732 58.5632Z" fill="#000088"/>
<path d="M89.1937 44.541L90.8328 52.4358L92.2693 56.0194L91.7215 52.1977L89.1937 44.541Z" fill="#000088"/>
<path d="M79.4535 55.0598C79.0757 55.0101 78.7291 55.276 78.6794 55.6538C78.6296 56.0317 78.8956 56.3783 79.2734 56.428C79.6512 56.4777 79.9978 56.2118 80.0476 55.834C80.0973 55.4562 79.8314 55.1095 79.4535 55.0598Z" fill="#000088"/>
<path d="M92.6652 44.0835L92.2052 52.1335L92.6652 55.9668L93.1252 52.1335L92.6652 44.0835Z" fill="#000088"/>
<path d="M80.5369 51.7237C80.1848 51.5779 79.7812 51.745 79.6353 52.0971C79.4895 52.4492 79.6567 52.8528 80.0088 52.9986C80.3608 53.1445 80.7645 52.9773 80.9103 52.6252C81.0561 52.2731 80.8889 51.8695 80.5369 51.7237Z" fill="#000088"/>
<path d="M96.1381 44.5407L93.6103 52.1974L93.0625 56.0191L94.499 52.4355L96.1381 44.5407Z" fill="#000088"/>
<path d="M82.4458 48.7805C82.1434 48.5486 81.7103 48.6056 81.4783 48.9079C81.2463 49.2102 81.3033 49.6434 81.6057 49.8754C81.908 50.1073 82.3411 50.0503 82.5731 49.748C82.8051 49.4457 82.7481 49.0125 82.4458 48.7805Z" fill="#000088"/>
<path d="M99.3741 45.8811L94.9507 52.6226L93.4324 56.1723L95.7475 53.0826L99.3741 45.8811Z" fill="#000088"/>
<path d="M85.0517 46.4328C84.8198 46.1305 84.3866 46.0735 84.0843 46.3054C83.7819 46.5374 83.7249 46.9706 83.9569 47.2729C84.1889 47.5752 84.622 47.6323 84.9244 47.4003C85.2267 47.1683 85.2837 46.7351 85.0517 46.4328Z" fill="#000088"/>
<path d="M102.154 48.0132L96.1365 53.3801L93.7511 56.4159L96.787 54.0306L102.154 48.0132Z" fill="#000088"/>
<path d="M88.175 44.8378C88.0291 44.4858 87.6255 44.3186 87.2734 44.4644C86.9214 44.6102 86.7542 45.0139 86.9 45.3659C87.0458 45.718 87.4495 45.8852 87.8015 45.7394C88.1536 45.5935 88.3208 45.1899 88.175 44.8378Z" fill="#000088"/>
<path d="M104.285 50.7913L97.0839 54.4179L93.9941 56.733L97.5439 55.2147L104.285 50.7913Z" fill="#000088"/>
<path d="M91.6036 44.107C91.5538 43.7292 91.2072 43.4632 90.8294 43.5129C90.4516 43.5627 90.1856 43.9093 90.2354 44.2871C90.2851 44.6649 90.6317 44.9309 91.0095 44.8811C91.3874 44.8314 91.6533 44.4848 91.6036 44.107Z" fill="#000088"/>
<path d="M105.625 54.0274L97.73 55.6666L94.1463 57.103L97.9681 56.5552L105.625 54.0274Z" fill="#000088"/>
<path d="M95.1062 44.2885C95.1559 43.9107 94.89 43.5641 94.5122 43.5143C94.1344 43.4646 93.7878 43.7306 93.738 44.1084C93.6883 44.4862 93.9542 44.8328 94.332 44.8825C94.7099 44.9323 95.0565 44.6663 95.1062 44.2885Z" fill="#000088"/>
<path d="M106.084 57.5L98.0335 57.04L94.2002 57.5L98.0335 57.96L106.084 57.5Z" fill="#000088"/>
<path d="M98.4435 45.3701C98.5894 45.018 98.4222 44.6144 98.0701 44.4686C97.7181 44.3228 97.3144 44.4899 97.1686 44.842C97.0228 45.1941 97.1899 45.5977 97.542 45.7435C97.8941 45.8894 98.2977 45.7222 98.4435 45.3701Z" fill="#000088"/>
<path d="M105.625 60.9726L97.9684 58.4448L94.1466 57.897L97.7303 59.3334L105.625 60.9726Z" fill="#000088"/>
<path d="M101.385 47.278C101.617 46.9757 101.56 46.5426 101.258 46.3106C100.956 46.0786 100.523 46.1356 100.291 46.4379C100.059 46.7403 100.116 47.1734 100.418 47.4054C100.72 47.6374 101.153 47.5804 101.385 47.278Z" fill="#000088"/>
<path d="M104.286 64.2078L97.5447 59.7845L93.9949 58.2662L97.0847 60.5812L104.286 64.2078Z" fill="#000088"/>
<path d="M103.734 49.8838C104.037 49.6518 104.094 49.2186 103.862 48.9163C103.63 48.614 103.197 48.557 102.894 48.7889C102.592 49.0209 102.535 49.4541 102.767 49.7564C102.999 50.0587 103.432 50.1158 103.734 49.8838Z" fill="#000088"/>
<path d="M102.154 66.9872L96.7874 60.9697L93.7515 58.5844L96.1368 61.6202L102.154 66.9872Z" fill="#000088"/>
<path d="M105.328 53.0075C105.68 52.8617 105.847 52.458 105.701 52.106C105.556 51.7539 105.152 51.5867 104.8 51.7325C104.448 51.8784 104.281 52.282 104.426 52.6341C104.572 52.9861 104.976 53.1533 105.328 53.0075Z" fill="#000088"/>
<path d="M99.3747 69.1189L95.7481 61.9174L93.433 58.8276L94.9513 62.3774L99.3747 69.1189Z" fill="#000088"/>
<path d="M106.06 56.4368C106.438 56.3871 106.704 56.0405 106.654 55.6627C106.604 55.2848 106.257 55.0189 105.88 55.0686C105.502 55.1184 105.236 55.465 105.286 55.8428C105.335 56.2206 105.682 56.4866 106.06 56.4368Z" fill="#000088"/>
<path d="M96.1391 70.4585L94.4999 62.5637L93.0635 58.9801L93.6113 62.8018L96.1391 70.4585Z" fill="#000088"/>
</g>
</g>
<defs>
<filter id="filter0_d_2140_1739" x="0.666667" y="0" width="184" height="145.667" filterUnits="userSpaceOnUse" color-interpolation-filters="sRGB">
<feFlood flood-opacity="0" result="BackgroundImageFix"/>
<feColorMatrix in="SourceAlpha" type="matrix" values="0 0 0 0 0 0 0 0 0 0 0 0 0 0 0 0 0 0 127 0" result="hardAlpha"/>
<feOffset dy="15.3333"/>
<feGaussianBlur stdDeviation="7.66667"/>
<feComposite in2="hardAlpha" operator="out"/>
<feColorMatrix type="matrix" values="0 0 0 0 0 0 0 0 0 0 0 0 0 0 0 0 0 0 0.25 0"/>
<feBlend mode="normal" in2="BackgroundImageFix" result="effect1_dropShadow_2140_1739"/>
<feBlend mode="normal" in="SourceGraphic" in2="effect1_dropShadow_2140_1739" result="shape"/>
</filter>
<clipPath id="clip0_2140_1739">
<rect x="16" width="153.333" height="115" rx="15.3333" fill="white"/>
</clipPath>
</defs>
</svg>
