<svg width="187" height="147" viewBox="0 0 187 147" fill="none" xmlns="http://www.w3.org/2000/svg">
<g filter="url(#filter0_d_2140_1561)">
<g clip-path="url(#clip0_2140_1561)">
<path fill-rule="evenodd" clip-rule="evenodd" d="M16 0H170.667V116H16V0Z" fill="#00247D"/>
<path d="M134.519 25.9038V29.5697L141.851 25.9038H134.519Z" fill="white"/>
<path d="M136.081 29.978L133.926 27.0122L142.012 25.6685L136.081 29.978Z" fill="white"/>
<path d="M134.519 25.9038V29.5697L127.187 25.9038H134.519Z" fill="white"/>
<path d="M132.957 29.978L135.112 27.0122L127.026 25.6685L132.957 29.978Z" fill="white"/>
<path d="M136.611 27.4233L133.125 28.5562L138.877 34.3963L136.611 27.4233Z" fill="white"/>
<path d="M133.218 30.1679L135.373 27.2021L139.149 34.4775L133.218 30.1679Z" fill="white"/>
<path d="M132.427 27.4233L135.913 28.5562L134.692 20.4504L132.427 27.4233Z" fill="white"/>
<path d="M136.786 27.1968L133.299 28.3296L134.52 20.2238L136.786 27.1968Z" fill="white"/>
<path d="M132.427 27.4238L135.913 28.5567L130.161 34.3968L132.427 27.4238Z" fill="white"/>
<path d="M135.82 30.1679L133.665 27.2021L129.888 34.4775L135.82 30.1679Z" fill="white"/>
<path d="M134.517 26.6494V29.0718L139.362 26.6494H134.517Z" fill="#CC142B"/>
<path d="M135.55 29.3416L134.126 27.3818L139.469 26.4939L135.55 29.3416Z" fill="#CC142B"/>
<path d="M134.519 26.6494V29.0718L129.674 26.6494H134.519Z" fill="#CC142B"/>
<path d="M133.486 29.3416L134.909 27.3818L129.566 26.4939L133.486 29.3416Z" fill="#CC142B"/>
<path d="M135.901 27.6538L133.597 28.4024L137.398 32.2615L135.901 27.6538Z" fill="#CC142B"/>
<path d="M133.659 29.4671L135.083 27.5073L137.579 32.3148L133.659 29.4671Z" fill="#CC142B"/>
<path d="M133.137 27.6543L135.441 28.4029L134.634 23.0466L133.137 27.6543Z" fill="#CC142B"/>
<path d="M136.015 27.5044L133.711 28.2529L134.517 22.8967L136.015 27.5044Z" fill="#CC142B"/>
<path d="M133.135 27.6538L135.439 28.4024L131.638 32.2615L133.135 27.6538Z" fill="#CC142B"/>
<path d="M135.376 29.4671L133.952 27.5073L131.457 32.3148L135.376 29.4671Z" fill="#CC142B"/>
<path d="M153.731 42.8242L153.731 46.0864L160.256 42.8242L153.731 42.8242Z" fill="white"/>
<path d="M155.122 46.4497L153.204 43.8105L160.4 42.6148L155.122 46.4497Z" fill="white"/>
<path d="M153.731 42.8242L153.731 46.0864L147.207 42.8242L153.731 42.8242Z" fill="white"/>
<path d="M152.341 46.4497L154.258 43.8105L147.062 42.6148L152.341 46.4497Z" fill="white"/>
<path d="M155.591 44.1763L152.489 45.1843L157.607 50.3813L155.591 44.1763Z" fill="white"/>
<path d="M152.573 46.6186L154.49 43.9795L157.851 50.4536L152.573 46.6186Z" fill="white"/>
<path d="M151.869 44.1763L154.972 45.1843L153.886 37.9712L151.869 44.1763Z" fill="white"/>
<path d="M155.748 43.9748L152.645 44.9829L153.732 37.7698L155.748 43.9748Z" fill="white"/>
<path d="M151.869 44.1763L154.972 45.1843L149.853 50.3813L151.869 44.1763Z" fill="white"/>
<path d="M154.888 46.6186L152.97 43.9795L149.609 50.4536L154.888 46.6186Z" fill="white"/>
<path d="M153.731 43.5698L153.731 45.5885L157.769 43.5698L153.731 43.5698Z" fill="#CC142B"/>
<path d="M154.591 45.8133L153.405 44.1802L157.857 43.4402L154.591 45.8133Z" fill="#CC142B"/>
<path d="M153.729 43.5698L153.729 45.5885L149.692 43.5698L153.729 43.5698Z" fill="#CC142B"/>
<path d="M152.869 45.8133L154.056 44.1802L149.603 43.4402L152.869 45.8133Z" fill="#CC142B"/>
<path d="M154.881 44.4067L152.961 45.0305L156.128 48.2465L154.881 44.4067Z" fill="#CC142B"/>
<path d="M153.014 45.9183L154.201 44.2852L156.281 48.2914L153.014 45.9183Z" fill="#CC142B"/>
<path d="M152.577 44.4062L154.497 45.0301L153.825 40.5665L152.577 44.4062Z" fill="#CC142B"/>
<path d="M154.977 44.282L153.057 44.9058L153.729 40.4422L154.977 44.282Z" fill="#CC142B"/>
<path d="M152.579 44.4067L154.499 45.0305L151.331 48.2465L152.579 44.4067Z" fill="#CC142B"/>
<path d="M154.445 45.9183L153.259 44.2852L151.179 48.2914L154.445 45.9183Z" fill="#CC142B"/>
<path d="M112.144 48.4336L112.144 52.0995L119.475 48.4336L112.144 48.4336Z" fill="white"/>
<path d="M113.705 52.5078L111.551 49.542L119.637 48.1982L113.705 52.5078Z" fill="white"/>
<path d="M112.144 48.4336L112.144 52.0995L104.812 48.4336L112.144 48.4336Z" fill="white"/>
<path d="M110.582 52.5078L112.737 49.542L104.65 48.1982L110.582 52.5078Z" fill="white"/>
<path d="M114.235 49.9531L110.749 51.086L116.501 56.9261L114.235 49.9531Z" fill="white"/>
<path d="M110.842 52.6972L112.997 49.7314L116.773 57.0068L110.842 52.6972Z" fill="white"/>
<path d="M110.052 49.9526L113.538 51.0855L112.317 42.9797L110.052 49.9526Z" fill="white"/>
<path d="M114.41 49.7261L110.924 50.8589L112.145 42.7531L114.41 49.7261Z" fill="white"/>
<path d="M110.051 49.9536L113.538 51.0864L107.786 56.9266L110.051 49.9536Z" fill="white"/>
<path d="M113.445 52.6977L111.29 49.7319L107.513 57.0072L113.445 52.6977Z" fill="white"/>
<path d="M112.142 49.1792L112.142 51.6016L116.986 49.1792L112.142 49.1792Z" fill="#CC142B"/>
<path d="M113.175 51.8714L111.751 49.9116L117.094 49.0237L113.175 51.8714Z" fill="#CC142B"/>
<path d="M112.144 49.1792L112.144 51.6016L107.299 49.1792L112.144 49.1792Z" fill="#CC142B"/>
<path d="M111.11 51.8714L112.534 49.9116L107.191 49.0237L111.11 51.8714Z" fill="#CC142B"/>
<path d="M113.526 50.1836L111.222 50.9322L115.023 54.7913L113.526 50.1836Z" fill="#CC142B"/>
<path d="M111.284 51.9969L112.708 50.0371L115.204 54.8446L111.284 51.9969Z" fill="#CC142B"/>
<path d="M110.761 50.1841L113.065 50.9326L112.258 45.5764L110.761 50.1841Z" fill="#CC142B"/>
<path d="M113.639 50.0342L111.335 50.7827L112.142 45.4265L113.639 50.0342Z" fill="#CC142B"/>
<path d="M110.76 50.1836L113.064 50.9322L109.263 54.7913L110.76 50.1836Z" fill="#CC142B"/>
<path d="M113.001 51.9969L111.577 50.0371L109.081 54.8446L113.001 51.9969Z" fill="#CC142B"/>
<path d="M134.52 83.7993V87.869L142.659 83.7993H134.52Z" fill="white"/>
<path d="M136.253 88.3222L133.861 85.0298L142.838 83.538L136.253 88.3222Z" fill="white"/>
<path d="M134.518 83.7993V87.869L126.379 83.7993H134.518Z" fill="white"/>
<path d="M132.785 88.3222L135.177 85.0298L126.2 83.538L132.785 88.3222Z" fill="white"/>
<path d="M136.842 85.4858L132.971 86.7434L139.357 93.2268L136.842 85.4858Z" fill="white"/>
<path d="M133.075 88.5326L135.467 85.2402L139.66 93.3168L133.075 88.5326Z" fill="white"/>
<path d="M132.196 85.4868L136.067 86.7444L134.711 77.7459L132.196 85.4868Z" fill="white"/>
<path d="M137.034 85.2351L133.163 86.4927L134.518 77.4942L137.034 85.2351Z" fill="white"/>
<path d="M132.196 85.4858L136.067 86.7434L129.681 93.2268L132.196 85.4858Z" fill="white"/>
<path d="M135.963 88.5331L133.571 85.2407L129.378 93.3173L135.963 88.5331Z" fill="white"/>
<path d="M134.518 84.5449V87.3711L140.171 84.5449H134.518Z" fill="#CC142B"/>
<path d="M135.723 87.6858L134.062 85.3994L140.295 84.3635L135.723 87.6858Z" fill="#CC142B"/>
<path d="M134.518 84.5449V87.3711L128.866 84.5449H134.518Z" fill="#CC142B"/>
<path d="M133.314 87.6858L134.975 85.3994L128.741 84.3635L133.314 87.6858Z" fill="#CC142B"/>
<path d="M136.13 85.7173L133.443 86.5906L137.877 91.0929L136.13 85.7173Z" fill="#CC142B"/>
<path d="M133.514 87.8333L135.175 85.5469L138.087 91.1556L133.514 87.8333Z" fill="#CC142B"/>
<path d="M132.906 85.7168L135.594 86.5901L134.652 80.3412L132.906 85.7168Z" fill="#CC142B"/>
<path d="M136.266 85.5422L133.578 86.4155L134.519 80.1666L136.266 85.5422Z" fill="#CC142B"/>
<path d="M132.904 85.7173L135.592 86.5906L131.157 91.0929L132.904 85.7173Z" fill="#CC142B"/>
<path d="M135.52 87.8333L133.859 85.5469L130.948 91.1556L135.52 87.8333Z" fill="#CC142B"/>
<path d="M16 0H93.3333V58H16V0Z" fill="#012169"/>
<path d="M25.0625 0L54.5458 21.8708L83.9083 0H93.3333V7.49167L64.3333 29.1208L93.3333 50.6292V58H83.6667L54.6667 36.3708L25.7875 58H16V50.75L44.8792 29.2417L16 7.73333V0H25.0625Z" fill="white"/>
<path d="M67.2333 33.9542L93.3333 53.1667V58L60.5875 33.9542H67.2333ZM45 36.3708L45.725 40.6L22.525 58H16L45 36.3708ZM93.3333 0V0.3625L63.2458 23.0792L63.4875 17.7625L87.2917 0H93.3333ZM16 0L44.8792 21.2667H37.6292L16 5.075V0Z" fill="#C8102E"/>
<path d="M45.1208 0V58H64.4542V0H45.1208ZM16 19.3333V38.6667H93.3333V19.3333H16Z" fill="white"/>
<path d="M16 23.3208V34.9208H93.3333V23.3208H16ZM48.9875 0V58H60.5875V0H48.9875Z" fill="#C8102E"/>
</g>
</g>
<defs>
<filter id="filter0_d_2140_1561" x="0.533334" y="0" width="185.6" height="146.933" filterUnits="userSpaceOnUse" color-interpolation-filters="sRGB">
<feFlood flood-opacity="0" result="BackgroundImageFix"/>
<feColorMatrix in="SourceAlpha" type="matrix" values="0 0 0 0 0 0 0 0 0 0 0 0 0 0 0 0 0 0 127 0" result="hardAlpha"/>
<feOffset dy="15.4667"/>
<feGaussianBlur stdDeviation="7.73333"/>
<feComposite in2="hardAlpha" operator="out"/>
<feColorMatrix type="matrix" values="0 0 0 0 0 0 0 0 0 0 0 0 0 0 0 0 0 0 0.25 0"/>
<feBlend mode="normal" in2="BackgroundImageFix" result="effect1_dropShadow_2140_1561"/>
<feBlend mode="normal" in="SourceGraphic" in2="effect1_dropShadow_2140_1561" result="shape"/>
</filter>
<clipPath id="clip0_2140_1561">
<rect x="16" width="154.667" height="116" rx="15.4667" fill="white"/>
</clipPath>
</defs>
</svg>
