<svg width="117" height="88" viewBox="0 0 117 88" fill="none" xmlns="http://www.w3.org/2000/svg">
<g clip-path="url(#clip0_2140_1128)">
<path d="M0.000488281 58.6667H117V88H0.000488281V58.6667Z" fill="black"/>
<path d="M0.000488281 29.3333H117V58.6667H0.000488281V29.3333Z" fill="white"/>
<path d="M0.000488281 0H117V29.3333H0.000488281V0Z" fill="#CE1126"/>
<path d="M58.6174 44.352L68.6355 53.68L67.9189 36.74C67.8165 34.1733 65.5935 34.76 63.9701 35.684C62.3467 36.74 60.4601 36.74 58.5004 36.0507C56.526 36.74 54.654 36.74 53.0306 35.684C51.4219 34.76 49.1842 34.1733 49.0819 36.74L48.3652 53.68L58.6174 44.352Z" fill="white" stroke="#C09300" stroke-width="0.852487" stroke-linejoin="round"/>
<path d="M50.2372 36.1533L49.5352 52.624L48.3652 53.68L49.0819 36.74C49.4274 36.4743 49.8192 36.2753 50.2372 36.1533ZM51.6412 37.3267L51.0562 51.1133L49.8862 52.316L50.5882 36.4027C50.8222 36.6373 51.5096 37.2093 51.6412 37.3267ZM52.9136 38.3827L52.4602 49.8813L51.5096 50.8053L52.0946 37.6933C52.3286 37.9133 52.7966 38.2507 52.9136 38.3827ZM54.303 38.9693L53.8496 48.7667L52.9282 49.5147L53.3816 38.6173C53.6156 38.72 54.069 38.9693 54.303 38.9693ZM55.59 38.9693L55.2536 47.1387L54.303 48.0627L54.6686 39.072C54.888 39.072 55.4876 39.072 55.59 38.9693Z" fill="#C09300"/>
<path d="M66.7637 36.1533L67.4657 52.624L68.6357 53.68L67.9191 36.74C67.5736 36.4743 67.1818 36.2753 66.7637 36.1533ZM65.3597 37.3267L65.9447 51.1133L67.1147 52.316L66.4127 36.4027C66.1787 36.6373 65.4914 37.2093 65.3597 37.3267ZM64.0874 38.3827L64.5407 49.8813L65.4914 50.8053L64.9064 37.6933C64.6724 37.9133 64.2044 38.2507 64.0874 38.3827ZM62.698 38.9693L63.1514 48.7667L64.0727 49.5147L63.6194 38.6173C63.3854 38.72 62.932 38.9693 62.698 38.9693ZM61.411 38.9693L61.7474 47.1387L62.698 48.0627L62.3324 39.072C62.113 39.072 61.5134 39.072 61.411 38.9693Z" fill="#C09300"/>
<path d="M58.9684 46.2L60.3724 52.624L59.9044 53.0934L59.4218 52.7267L58.632 47.0067L58.9684 52.7267L58.5004 53.3134L58.047 52.7267L58.3834 47.0067L57.579 52.7267L57.0964 53.0934L56.6284 52.624L58.0324 46.2147H58.9684V46.2Z" fill="#C09300" stroke="#C09300" stroke-width="0.721336"/>
<path d="M55.3559 43.384L52.5625 53.3133L56.4089 53.9L58.0322 46.4347L55.3559 43.384Z" fill="white" stroke="#C09300" stroke-width="0.786912" stroke-linejoin="round"/>
<path d="M54.4346 46.7866L54.7709 47.5933L56.5844 45.8626" stroke="#C09300" stroke-width="0.852487" stroke-linejoin="round"/>
<path d="M55.6919 44.7333L56.0722 48.2973L57.2275 46.772M56.7595 47.3586L57.3884 49.5586M57.637 48.752L56.3647 50.688M56.7595 52.624L56.35 50.688M56.35 50.688L55.999 48.7226L55.1362 49.8813L54.7705 48.5466L53.5713 49.7786L54.1709 52.008L55.0192 50.6293L55.4725 52.0373L56.35 50.688Z" stroke="#C09300" stroke-width="0.852487" stroke-linejoin="round"/>
<path d="M53.3818 53.0933L54.157 51.9933L54.6542 53.68L55.3562 52.5067L55.8096 53.9147" stroke="#C09300" stroke-width="0.852487" stroke-linejoin="round"/>
<path d="M61.6446 43.384L64.438 53.3133L60.5916 53.9L58.9682 46.4347L61.6446 43.384Z" fill="white" stroke="#C09300" stroke-width="0.786912" stroke-linejoin="round"/>
<path d="M62.5659 46.7866L62.2295 47.5933L60.416 45.8626" stroke="#C09300" stroke-width="0.852487" stroke-linejoin="round"/>
<path d="M61.3086 44.7333L60.9283 48.2973L59.7729 46.772M60.2409 47.3586L59.6121 49.5586M59.3634 48.752L60.6358 50.688M60.2409 52.624L60.6504 50.688M60.6504 50.688L61.0014 48.7226L61.8643 49.8813L62.2299 48.5466L63.4292 49.7786L62.8296 52.008L61.9813 50.6293L61.5279 52.0373L60.6504 50.688Z" stroke="#C09300" stroke-width="0.852487" stroke-linejoin="round"/>
<path d="M63.6187 53.0933L62.8435 51.9933L62.3463 53.68L61.6443 52.5067L61.1909 53.9147" stroke="#C09300" stroke-width="0.852487" stroke-linejoin="round"/>
<path d="M58.501 57.7573C61.426 57.7573 64.2047 57.5227 65.8427 57.068C66.5301 56.936 66.5301 56.584 66.5301 56.1147C67.2321 55.88 66.8811 55.0587 67.3637 55.0587C66.8665 55.2053 66.7787 54.252 66.1937 54.3693C66.1937 53.548 65.3601 53.4453 64.6727 53.68C63.2833 54.1347 60.8263 54.252 58.501 54.252C56.161 54.1347 53.7332 54.1347 52.3292 53.6653C51.6418 53.4453 50.8228 53.548 50.8228 54.3693C50.2378 54.252 50.1355 55.1907 49.6528 55.0587C50.1355 55.0587 49.7698 55.8947 50.4718 56.1147C50.4718 56.584 50.4718 56.936 51.1738 57.068C52.7826 57.5227 55.5906 57.7573 58.501 57.7573Z" fill="white" stroke="#C09300" stroke-width="1.57382" stroke-linecap="round" stroke-linejoin="round"/>
<path d="M54.5375 53.3134C55.4735 53.4454 56.5265 53.548 57.3455 53.4454C57.8135 53.4454 58.1499 54.252 57.2139 54.3694C56.4095 54.472 55.1225 54.3694 54.4351 54.252C53.5305 54.0932 52.6328 53.8975 51.7441 53.6654C50.9251 53.3134 51.5101 52.6387 51.9781 52.7267C52.813 52.995 53.6693 53.1912 54.5375 53.3134ZM62.4642 53.3134C61.5282 53.4454 60.4752 53.548 59.6855 53.4454C59.1882 53.4454 58.8519 54.252 59.7879 54.3694C60.6069 54.472 61.8792 54.3694 62.5666 54.252C63.1516 54.1347 64.4386 53.9147 65.2576 53.6654C66.0766 53.3134 65.4916 52.6387 65.0236 52.7267C64.1887 52.995 63.3325 53.1913 62.4642 53.3134Z" fill="white" stroke="#C09300" stroke-width="0.852487" stroke-linecap="round" stroke-linejoin="round"/>
<path d="M51.6274 52.8587C50.9254 52.7267 50.6036 53.548 50.823 54.0174C50.9254 53.7827 51.408 53.7827 51.5104 53.548C51.642 53.196 51.408 53.196 51.642 52.8587H51.6274ZM54.4354 55.0147C54.4354 54.5454 54.8887 54.604 54.8887 54.1347C54.8887 53.9147 54.7717 53.548 54.5377 53.548C54.4159 53.555 54.3009 53.6067 54.2146 53.6933C54.1283 53.7798 54.0767 53.8952 54.0697 54.0174C53.9674 54.472 54.4354 54.5454 54.4354 55.0147ZM57.7552 53.68C58.4426 53.68 58.3695 54.604 58.0477 55.0734C58.0477 54.736 57.4627 54.604 57.4627 54.3694C57.4627 54.0174 57.9892 54.0174 57.7552 53.68ZM65.3602 52.8587C66.0769 52.7267 66.4132 53.548 66.1792 54.0174C66.0769 53.7827 65.5942 53.7827 65.4919 53.548C65.3602 53.196 65.5942 53.196 65.3602 52.8587ZM62.5961 55C62.5961 54.5307 62.1281 54.5894 62.1281 54.12C62.1281 53.9 62.2451 53.5334 62.4791 53.5334C62.601 53.5404 62.716 53.5921 62.8023 53.6786C62.8886 53.7652 62.9401 53.8805 62.9471 54.0027C63.0495 54.4574 62.5815 54.5307 62.5815 55H62.5961ZM59.2324 53.68C58.545 53.68 58.6181 54.604 58.9399 55.0734C58.9399 54.736 59.5249 54.604 59.5249 54.3694C59.5249 54.0174 58.9984 54.0174 59.2324 53.68Z" fill="white" stroke="#C09300" stroke-width="0.852487" stroke-linecap="round" stroke-linejoin="round"/>
<path d="M51.876 53.0933C52.11 53.0933 52.461 53.196 52.5633 53.328L51.876 53.0933ZM53.0314 53.4453C53.1484 53.4453 53.6164 53.548 53.8357 53.68L53.0314 53.4453ZM57.2141 53.9147C56.9947 53.9147 56.5267 53.9147 56.4097 54.0173L57.2141 53.9V53.9147ZM55.9417 53.9147C55.8101 53.7827 55.3567 53.7827 55.1227 53.9147H55.9417ZM65.1262 53.0933C64.8781 53.0965 64.6374 53.1787 64.4389 53.328L65.1262 53.0933ZM63.9855 53.4453C63.8392 53.4453 63.4005 53.548 63.1665 53.68L63.9855 53.4453ZM59.7881 53.9147C60.0075 53.9147 60.4755 53.9147 60.6071 54.0173L59.7881 53.9V53.9147ZM61.0605 53.9147C61.1921 53.7827 61.6455 53.7827 61.8795 53.9147H61.0605Z" fill="white" stroke="#C09300" stroke-width="0.590184" stroke-linecap="round" stroke-linejoin="round"/>
<path d="M51.6706 54.9414C51.5975 54.9267 51.5536 54.8534 51.5829 54.7947C51.5975 54.692 51.6706 54.648 51.7291 54.6774C51.7876 54.6774 51.8608 54.7654 51.8608 54.7947L51.8023 54.8974L51.773 54.912C51.773 54.9414 51.7145 54.9414 51.6706 54.9414ZM59.7144 55.5134C59.6851 55.5134 59.6266 55.44 59.6266 55.4107C59.6266 55.352 59.7144 55.264 59.7729 55.264L59.8899 55.3227C59.9338 55.3667 59.9338 55.4547 59.8753 55.4987C59.846 55.528 59.7583 55.528 59.7144 55.4987V55.5134ZM59.7583 55.88C59.6998 55.8507 59.6851 55.8214 59.6705 55.7627C59.6705 55.6894 59.6705 55.6747 59.7436 55.6307L59.8021 55.6014L59.8606 55.6307C59.9191 55.66 59.963 55.6894 59.963 55.748C59.963 55.792 59.9191 55.836 59.8606 55.8654C59.8168 55.8947 59.8021 55.8947 59.7583 55.8654V55.88Z" fill="#C09300"/>
<path d="M52.3285 54.2667C52.27 54.2667 52.1969 54.3253 52.153 54.3547C52.0653 54.3693 51.9483 54.428 51.8605 54.3547C51.7728 54.34 51.6558 54.3547 51.6412 54.472C51.6558 54.5747 51.7874 54.6187 51.8752 54.56C51.9337 54.4867 52.0945 54.428 52.1238 54.56C52.0507 54.6773 52.0653 54.8093 52.0068 54.912C52.0068 54.9853 51.9629 55.044 51.9337 55.1027C51.8605 55.1027 51.7874 55.1027 51.7289 55.1467C51.6835 55.1467 51.6387 55.1573 51.5981 55.1777C51.5575 55.198 51.5222 55.2276 51.4949 55.264C51.4364 55.352 51.3779 55.44 51.3633 55.5573C51.3779 55.6453 51.5095 55.6747 51.5973 55.6894L51.8898 55.7773L52.3578 55.9094C52.5918 55.9827 52.8258 56.012 53.0598 56.0707L53.1329 56.0853C53.2353 56.1147 53.2792 56.012 53.2792 55.9387L53.4254 55.4107C53.4547 55.3373 53.4985 55.1907 53.3669 55.22C53.2938 55.264 53.2207 55.3373 53.1329 55.3373C53.0013 55.3373 53.0744 55.484 53.1329 55.528C53.1329 55.616 53.1037 55.7187 53.0598 55.792C52.972 55.836 52.8843 55.792 52.7965 55.7627C52.7234 55.7627 52.5479 55.7187 52.621 55.616L52.6942 55.352C52.738 55.264 52.738 55.1613 52.7673 55.0587C52.7088 54.956 52.621 55.1027 52.5479 55.1173C52.4894 55.1467 52.3139 55.1613 52.4017 55.264C52.4894 55.3227 52.4309 55.4253 52.4017 55.5133C52.4017 55.616 52.2847 55.66 52.1969 55.616C52.1092 55.616 51.9775 55.5427 52.0507 55.4547L52.1238 55.1907L52.2262 54.8973C52.2262 54.7947 52.27 54.7213 52.3139 54.6333C52.3139 54.5307 52.387 54.4427 52.387 54.34C52.387 54.296 52.3578 54.2813 52.3285 54.2813V54.2667ZM51.7874 55.3373C51.7941 55.3335 51.8016 55.3315 51.8093 55.3315C51.817 55.3315 51.8246 55.3335 51.8313 55.3373C51.8605 55.3667 51.8605 55.396 51.8313 55.4253L51.7874 55.4547C51.7143 55.4547 51.6997 55.44 51.6997 55.4107C51.6997 55.396 51.6997 55.3813 51.7435 55.3667C51.7613 55.3538 51.7811 55.3439 51.802 55.3373H51.7874ZM51.6412 56.0707C51.568 56.012 51.5827 55.968 51.685 55.88C51.7435 55.8507 51.7582 55.8507 51.8167 55.8947C51.9044 55.968 51.9044 56.012 51.8167 56.0853C51.7874 56.1147 51.7728 56.1147 51.7435 56.1147C51.6997 56.1147 51.685 56.1147 51.6412 56.0853V56.0707ZM52.0799 56.2173C52.0472 56.2072 52.0198 56.1846 52.0034 56.1545C51.9871 56.1244 51.983 56.0891 51.9922 56.056C52.0214 55.9974 52.036 55.9827 52.1238 55.9827C52.2262 55.9827 52.2408 55.9973 52.2554 56.0853C52.2554 56.144 52.2554 56.1587 52.2115 56.188C52.1952 56.201 52.1764 56.2103 52.1562 56.2153C52.136 56.2204 52.115 56.2211 52.0945 56.2173H52.0799ZM65.1254 56.2173C65.0962 56.2027 65.0815 56.188 65.0815 56.144C65.0815 56.0853 65.1108 56.0413 65.1985 56.012C65.2863 55.968 65.3448 55.968 65.374 56.0413C65.4179 56.1293 65.4179 56.1587 65.3594 56.2173C65.3302 56.2613 65.3155 56.2613 65.2424 56.2613C65.1693 56.2613 65.1547 56.2613 65.1254 56.232V56.2173ZM52.6942 56.3933C52.6357 56.3933 52.6064 56.3347 52.6064 56.276C52.6064 56.232 52.6064 56.2173 52.6357 56.188L52.7234 56.1587L52.8112 56.1733C52.8843 56.232 52.8989 56.2907 52.855 56.3494C52.8112 56.408 52.7673 56.408 52.6795 56.3933H52.6942ZM55.8824 56.54L55.8532 56.496C55.8532 56.408 55.8532 56.3347 55.8824 56.2467C55.897 56.1733 55.8824 56.1 55.9117 56.0267L55.9702 55.616C55.9702 55.5427 55.9702 55.4693 55.9994 55.4107C56.014 55.2933 55.9994 55.1907 56.0287 55.088C56.0287 55.044 56.0725 54.9413 56.1164 55C56.1749 55.088 56.248 55.1467 56.3212 55.22C56.3797 55.264 56.3212 55.3227 56.2773 55.3373C56.2188 55.352 56.2042 55.4253 56.2042 55.484L56.1749 55.66C56.1749 55.7627 56.1749 55.8507 56.1457 55.9533L56.131 56.2173L56.1018 56.3933C56.1018 56.452 56.1018 56.5253 56.0433 56.5547C55.9994 56.584 55.9263 56.584 55.897 56.54H55.8824ZM60.226 55.1027L60.0359 55.2787C59.9482 55.352 60.109 55.3813 60.1237 55.44C60.1529 55.528 60.1529 55.616 60.1529 55.704C60.1822 55.792 60.1968 55.8653 60.1822 55.9533C60.1822 56.056 60.0652 56.0267 60.0067 56.0853C59.9335 56.1147 59.9043 56.188 59.8604 56.232C59.8256 56.3056 59.8057 56.3854 59.8019 56.4667C59.8019 56.54 59.758 56.6133 59.8019 56.672L59.8165 56.7013H59.8897L60.109 56.6867C60.2845 56.6573 60.4747 56.6574 60.6502 56.6427L60.9719 56.6133C61.0597 56.628 61.1035 56.54 61.1035 56.4667C61.045 56.364 61.0889 56.2613 61.045 56.1733C61.0158 56.056 61.0304 55.9533 61.0158 55.8507C61.0158 55.7627 60.9134 55.7333 60.8695 55.792C60.811 55.8507 60.7233 55.8653 60.694 55.924C60.6502 56.012 60.7818 56.012 60.811 56.0707L60.8257 56.2907C60.8403 56.3787 60.7525 56.3787 60.6794 56.3933C60.6063 56.4227 60.5039 56.4374 60.46 56.3494C60.4308 56.276 60.4308 56.2027 60.4308 56.1294C60.4308 55.9827 60.3869 55.8653 60.3869 55.7333C60.3869 55.5867 60.343 55.4253 60.343 55.264C60.343 55.1907 60.3284 55.088 60.226 55.1027ZM60.1383 56.3053H60.1822V56.4227L60.1383 56.4373C60.1191 56.4435 60.0996 56.4484 60.0798 56.452C60.07 56.4524 60.0603 56.4524 60.0505 56.452C60.0213 56.4227 60.0213 56.3787 60.0652 56.3347L60.1383 56.3053ZM55.7508 54.956C55.7069 54.956 55.6338 55.0587 55.5753 55.044C55.4437 55.0587 55.4583 55.1907 55.5607 55.2347V55.352C55.5753 55.4693 55.5022 55.572 55.5168 55.6894C55.5168 55.8067 55.4729 55.9387 55.4729 56.0707C55.429 56.2027 55.429 56.3347 55.4144 56.4667C55.3998 56.584 55.312 56.54 55.2389 56.5107V56.364C55.2535 56.232 55.1658 56.2027 55.0634 56.188C54.961 56.188 54.9172 56.1147 54.9464 56.0267C54.9903 55.968 55.0927 55.9827 55.1658 55.9827C55.312 56.012 55.2974 55.8213 55.2243 55.748C55.1658 55.66 55.0488 55.6013 55.0195 55.5133C55.0195 55.396 54.9464 55.264 54.844 55.2053C54.6832 55.1907 54.5515 55.3227 54.5077 55.4694C54.4345 55.4694 54.3614 55.4987 54.3029 55.528C54.2005 55.5573 54.0543 55.7333 54.2005 55.8067C54.2737 55.8213 54.5223 55.88 54.4053 55.9827C54.3468 56.1 54.2298 56.1 54.1274 56.0707C54.025 56.0707 53.908 56.012 53.908 55.8947C53.8934 55.7773 53.8934 55.66 53.8495 55.5573C53.8203 55.44 53.6887 55.4693 53.674 55.5867C53.5717 55.66 53.5863 55.792 53.6594 55.88C53.7033 55.9827 53.6594 56.1147 53.6155 56.2027C53.5863 56.3494 53.44 56.3493 53.3377 56.3787C53.2938 56.408 53.1037 56.3787 53.1768 56.4813C53.2864 56.532 53.4091 56.5474 53.5278 56.5253C53.6448 56.5253 53.7472 56.4227 53.8203 56.32C53.8934 56.2467 54.025 56.2907 54.142 56.2907C54.2444 56.2907 54.3614 56.364 54.4784 56.3053C54.5077 56.232 54.6539 56.0853 54.6978 56.232C54.6978 56.364 54.8002 56.4227 54.9172 56.408C55.0488 56.408 54.9903 56.496 54.9903 56.584C54.9903 56.716 55.0927 56.7893 55.2097 56.848H55.3267C55.429 56.804 55.546 56.76 55.5899 56.6427C55.6338 56.54 55.6338 56.4227 55.663 56.32C55.6923 56.1587 55.7215 55.9827 55.7215 55.8213C55.7654 55.6747 55.7508 55.5133 55.78 55.352L55.8239 55.0147C55.8239 54.9413 55.7947 54.9414 55.7508 54.956ZM54.7709 55.5573C54.7855 55.5573 54.8002 55.5867 54.8002 55.6307C54.8002 55.6893 54.8294 55.7333 54.8733 55.748V55.792L54.7563 55.8213C54.6832 55.8213 54.6247 55.792 54.5808 55.748L54.5515 55.7187L54.5954 55.6894L54.6685 55.616C54.7124 55.572 54.7417 55.5573 54.7709 55.5573ZM64.4234 54.3987C64.3392 54.4047 64.2559 54.4195 64.1748 54.4427C64.0285 54.4427 63.9554 54.5893 64.1017 54.6773C64.1894 54.8973 64.321 54.6187 64.4673 54.648C64.672 54.6773 64.6867 54.912 64.7305 55.088C64.7305 55.2493 64.789 55.4107 64.8329 55.572C64.9792 55.7333 64.7305 55.836 64.6282 55.7187C64.5404 55.616 64.3357 55.4987 64.2333 55.6307C64.1017 55.6893 64.087 55.8653 63.9847 55.924C63.8092 55.968 63.7945 55.748 63.6922 55.66C63.6044 55.528 63.4435 55.5133 63.3119 55.484C63.2534 55.352 63.2827 55.132 63.1657 55.044C63.0487 55.088 62.8439 55.2934 63.0194 55.396C63.1657 55.5427 62.9463 55.6014 62.8732 55.6894C62.7562 55.8214 62.7269 55.9827 62.7269 56.1294C62.5368 56.232 62.5075 56.012 62.4783 55.88C62.4783 55.7187 62.332 55.7627 62.2297 55.8213C62.0834 55.88 62.0249 56.012 61.9372 56.1147V56.408C61.9664 56.54 62.1127 56.4813 62.2004 56.4667C62.3467 56.408 62.4052 56.5693 62.2882 56.6573C62.2004 56.7453 61.9664 56.7014 61.9957 56.8627H62.2297C62.3759 56.8187 62.5514 56.7013 62.566 56.5253C62.5953 56.3787 62.8147 56.3933 62.9317 56.364C63.0779 56.32 63.268 56.3053 63.3119 56.5107C63.4143 56.6133 63.6337 56.7307 63.7507 56.584C63.8064 56.5486 63.851 56.4982 63.8795 56.4385C63.9079 56.3789 63.919 56.3124 63.9115 56.2467C63.8969 56.1293 64.1017 56.1294 64.1602 56.2027C64.2333 56.32 64.4673 56.2907 64.5843 56.2027C64.7013 56.1294 64.7305 55.968 64.906 55.968L65.6958 55.748C65.9005 55.704 65.6665 55.572 65.608 55.484C65.4618 55.4107 65.3155 55.7333 65.14 55.572C64.9938 55.4693 65.0084 55.2787 64.9645 55.1173C64.9207 54.912 64.9353 54.6773 64.789 54.5307C64.7013 54.428 64.555 54.3987 64.4234 54.3987ZM63.4289 55.792C63.4435 55.792 63.4728 55.792 63.502 55.8213C63.5605 55.8507 63.6044 55.9093 63.6044 55.968C63.6044 55.9973 63.6044 55.9973 63.5605 56.012L63.4874 56.0413C63.4582 56.0413 63.385 55.9973 63.385 55.968V55.9094C63.3558 55.8507 63.3558 55.8507 63.385 55.8213L63.4289 55.792ZM64.3795 55.8507C64.438 55.8507 64.4673 55.8507 64.4965 55.8947C64.5112 55.9533 64.4965 55.9827 64.438 56.012L64.3649 56.0413L64.3064 55.9973C64.2772 55.9827 64.2625 55.968 64.2625 55.9387C64.2625 55.8947 64.321 55.8507 64.3795 55.836V55.8507ZM63.0633 55.8507C63.0925 55.8507 63.1072 55.8507 63.1218 55.88C63.151 55.9093 63.1657 55.924 63.1657 55.968V56.056C63.1657 56.1 63.1657 56.0853 63.0779 56.0853C62.9902 56.0853 62.9755 56.0853 62.9755 55.9973C62.9755 55.9387 62.9755 55.924 63.0194 55.8947C63.034 55.8653 63.0633 55.8653 63.0779 55.8653L63.0633 55.8507ZM62.2735 56.0707C62.2873 56.0749 62.2999 56.0824 62.3101 56.0927C62.3203 56.1029 62.3278 56.1155 62.332 56.1294C62.332 56.1734 62.332 56.2027 62.3028 56.2173C62.2589 56.232 62.1858 56.2467 62.1565 56.2173C62.1561 56.2125 62.1561 56.2076 62.1565 56.2027C62.1273 56.188 62.1273 56.1733 62.1565 56.1587V56.144L62.1858 56.1C62.1948 56.0857 62.2085 56.075 62.2244 56.0697C62.2404 56.0643 62.2578 56.0647 62.2735 56.0707ZM63.619 56.2467L63.6922 56.2613V56.3494H63.5167L63.502 56.32C63.502 56.2907 63.502 56.276 63.5313 56.2613L63.619 56.2467ZM61.1182 56.9507C61.1035 56.9507 61.0743 56.936 61.1035 56.9213C61.1182 56.8773 61.1767 56.8627 61.2205 56.8333C61.3002 56.8029 61.3707 56.7524 61.4253 56.6867C61.4253 56.628 61.4838 56.5987 61.4838 56.54L61.4692 56.3347C61.4494 56.2731 61.4078 56.2209 61.3522 56.188C61.3083 56.1733 61.2498 56.1587 61.2352 56.1C61.2352 56.056 61.279 56.012 61.2937 55.968L61.3814 55.792C61.4253 55.748 61.4838 55.792 61.4984 55.8213L61.5715 55.968C61.6154 56.012 61.6447 56.056 61.6593 56.1147C61.6885 56.1733 61.7178 56.2173 61.7178 56.2613L61.747 56.452C61.747 56.5253 61.747 56.6133 61.7178 56.6867L61.63 56.804C61.5862 56.848 61.5423 56.892 61.4838 56.9067C61.4399 56.9213 61.4107 56.9653 61.3522 56.9653H61.1328L61.1182 56.9507ZM60.109 57.0094C60.0798 56.98 60.0652 56.9653 60.0652 56.9213C60.0652 56.8773 60.0652 56.8773 60.109 56.8333C60.1675 56.7747 60.1968 56.7747 60.3138 56.8333C60.4162 56.892 60.46 56.892 60.46 56.848C60.4747 56.8187 60.5332 56.7747 60.6063 56.7747C60.6333 56.7757 60.6591 56.7861 60.6794 56.804C60.7087 56.8333 60.7233 56.848 60.7233 56.9067C60.7233 56.98 60.7233 56.98 60.6794 57.024C60.6355 57.0533 60.6355 57.0533 60.577 57.0533C60.551 57.0519 60.526 57.0428 60.5052 57.0271C60.4844 57.0115 60.4687 56.99 60.46 56.9653C60.46 56.936 60.46 56.9213 60.4308 56.9507L60.4015 56.9653C60.3723 56.9653 60.3138 57.0093 60.2845 57.0387L60.2114 57.0533C60.1529 57.0533 60.1529 57.0534 60.109 57.0094ZM57.2133 55.704C57.1109 55.704 57.0085 55.792 56.9939 55.8947C57.0232 55.9973 57.1109 56.1147 57.0524 56.2173C57.0963 56.364 56.9354 56.4227 56.833 56.3494C56.7745 56.2027 56.7453 56.056 56.6429 55.9094C56.5259 55.88 56.482 56.0707 56.3943 56.144C56.4382 56.2467 56.5552 56.3493 56.5698 56.4813C56.599 56.628 56.5113 56.7747 56.4089 56.8333C56.3065 56.936 56.1603 56.9067 56.0433 56.9213C55.897 57.0093 56.1457 57.0387 56.2188 57.0387C56.365 57.0533 56.5259 57.0387 56.6575 56.9213C56.7599 56.8773 56.7453 56.672 56.8769 56.6573L57.5789 56.7013C57.6959 56.7307 57.886 56.6867 57.9738 56.7747C57.9738 56.9213 58.12 57.0387 58.2517 57.0973C58.3248 57.1267 58.3979 57.024 58.471 57.0094C58.6173 56.9654 58.5734 56.7894 58.6612 56.716H59.3924C59.4217 56.716 59.4363 56.6427 59.4802 56.6133L59.4509 56.3347C59.407 56.2173 59.4509 56.0707 59.3778 55.968C59.2462 55.9387 59.1438 56.0414 59.0268 56.056C58.8805 56.1147 58.7782 56.2467 58.7635 56.3933C58.6904 56.5253 58.5588 56.364 58.6173 56.2467L58.6027 56.1C58.5295 56.0267 58.3979 56.056 58.2955 56.0413L57.8568 56.012C57.7105 56.012 57.5789 56.0267 57.4619 55.9973C57.3157 55.9973 57.3157 55.8507 57.3157 55.7333C57.2864 55.711 57.2499 55.7005 57.2133 55.704ZM57.5058 56.2467L57.652 56.2613H57.8422C57.9884 56.2907 58.1347 56.2907 58.2809 56.2907C58.3102 56.2907 58.3394 56.32 58.3687 56.3494V56.6427C58.3687 56.6867 58.3687 56.7453 58.3394 56.76C58.3317 56.7717 58.3218 56.7817 58.3102 56.7894C58.2887 56.7855 58.2684 56.777 58.2507 56.7643C58.233 56.7516 58.2183 56.7351 58.2078 56.716V56.5107C58.1788 56.4861 58.1431 56.4708 58.1054 56.4667L57.7252 56.452L57.4327 56.4373C57.3888 56.4227 57.3303 56.4373 57.301 56.3787C57.2718 56.3493 57.3157 56.2907 57.3595 56.276C57.4055 56.2554 57.4555 56.2454 57.5058 56.2467ZM59.1584 56.2907C59.173 56.2907 59.1877 56.2907 59.1877 56.3347L59.2169 56.408C59.2169 56.4227 59.2169 56.4373 59.1877 56.4373C59.1145 56.4667 59.0414 56.4667 59.0122 56.4373C59.0122 56.4227 59.0122 56.364 59.0414 56.3494L59.1584 56.2907Z" fill="#C09300"/>
<path d="M58.5002 47.9894C63.2679 44.3227 62.8584 38.9254 62.8584 38.9254L62.4928 38.9547C61.4837 38.9547 59.0998 38.368 58.5441 37.6494C57.9591 38.3094 55.5021 38.9694 54.5076 38.9694L54.1419 38.9254C54.1419 38.9254 53.7178 44.308 58.5002 47.9894Z" fill="white" stroke="#C09300" stroke-width="0.721336"/>
<path d="M62.4785 39.3067H62.3615C61.4547 39.3067 59.3487 38.852 58.5297 38.148C57.6815 38.7934 55.5316 39.3214 54.6395 39.3214C54.6001 39.3198 54.561 39.3149 54.5225 39.3067C54.5305 40.2336 54.6583 41.1555 54.9027 42.0494C55.4893 44.203 56.7506 46.1106 58.5005 47.4907C60.2514 46.1053 61.5125 44.1928 62.0982 42.0347C62.3414 41.1455 62.4692 40.2286 62.4785 39.3067Z" fill="white" stroke="#C09300" stroke-width="0.590184"/>
<path d="M56.9502 38.8667C56.1646 39.1232 55.3479 39.2713 54.5225 39.3067L54.5371 39.908C54.587 40.6275 54.7095 41.34 54.9027 42.0347C55.2959 43.4771 55.9942 44.8178 56.9502 45.9654V38.8667ZM59.963 38.8667V46.0827C60.965 44.9087 61.6943 43.526 62.0982 42.0347C62.2912 41.34 62.4137 40.6275 62.4638 39.908L62.4785 39.3214H62.3615C61.8057 39.3214 60.8405 39.1454 59.963 38.852V38.8667Z" fill="#C09300"/>
<path d="M60.2996 37.1067C60.402 37.1214 60.168 36.5934 60.168 36.5934C60.4312 36.8574 61.3965 36.9307 61.3965 36.9307C60.8115 36.6667 60.2265 34.716 60.2996 33.1467C60.3581 31.592 60.0802 30.976 59.8608 30.7414C59.5683 30.448 58.6177 30.184 58.0035 30.1547C57.6378 30.14 57.711 30.4187 57.711 30.4187C57.0528 30.2574 56.3947 30.184 56.1022 30.3894C55.839 30.5654 55.7805 31.4894 55.9852 31.328C56.4678 30.932 56.892 31.2987 57.1845 31.724C57.4477 32.0907 57.4331 33.1467 57.0528 34.3934C56.7161 35.3358 56.2215 36.2137 55.5903 36.9894C56.1753 36.9894 56.9943 36.476 56.9943 36.476L56.8042 37.2827C57.4185 36.9894 57.9011 36.5347 57.9011 36.5347L58.4861 37.1507C58.6762 36.8867 59.0711 36.5347 59.0711 36.5347C59.0711 36.5347 59.5537 37.048 60.2996 37.1214V37.1067Z" fill="white" stroke="#C09300" stroke-width="0.786912"/>
<path d="M57.9301 33.3814C57.9301 33.3814 57.6084 35.7867 56.9941 36.4614M58.4566 33.308C58.4566 33.308 58.3104 35.7574 57.9009 36.5347M58.91 33.4107C58.91 33.4107 58.91 36.08 59.0563 36.5347M59.495 33.5427C59.495 33.5427 59.612 35.7867 60.1678 36.5934" stroke="#C09300" stroke-width="0.852487"/>
<path d="M57.3309 32.208C57.3178 32.0379 57.2679 31.8728 57.1846 31.724C56.8921 31.284 56.468 30.932 55.9854 31.328C55.9854 31.328 56.1462 30.8147 56.5119 30.8C56.7751 30.7854 57.404 31.0054 57.9597 31.944C57.9597 31.944 57.5502 31.856 57.4479 31.944C57.2724 32.0907 57.3455 32.208 57.3455 32.208H57.3309Z" fill="#C09300" stroke="#C09300" stroke-width="0.196728"/>
<path d="M55.9263 30.6974C55.9701 30.5507 56.0286 30.4334 56.1164 30.3894C56.4089 30.184 57.0524 30.2427 57.7105 30.4187C57.7105 30.4187 57.652 30.14 58.003 30.1547C58.6173 30.184 59.5533 30.448 59.8458 30.7414C59.9394 30.8445 60.0137 30.9637 60.0651 31.0934C59.9189 30.888 59.5094 30.9027 59.407 30.9174C59.2608 30.932 59.1584 30.9174 58.9536 30.976C58.8513 31.0054 58.705 31.0347 58.6173 31.0934C58.5588 31.152 58.5003 31.328 58.4125 31.328C58.2663 31.328 58.2663 31.2987 58.2224 31.2547C58.1785 31.1814 58.1493 31.0934 58.0908 31.108C57.9445 31.1227 57.6813 31.0054 57.3595 30.7414C57.0231 30.4774 56.8915 30.4187 56.482 30.448C56.0433 30.4774 55.9263 30.7267 55.9263 30.7267V30.6974Z" fill="#C09300" stroke="#C09300" stroke-width="0.196728"/>
<path d="M58.3249 31.0787C58.4218 31.0787 58.5004 30.9999 58.5004 30.9027C58.5004 30.8055 58.4218 30.7267 58.3249 30.7267C58.228 30.7267 58.1494 30.8055 58.1494 30.9027C58.1494 30.9999 58.228 31.0787 58.3249 31.0787Z" fill="white"/>
</g>
<defs>
<clipPath id="clip0_2140_1128">
<rect width="117" height="88" rx="4" fill="white"/>
</clipPath>
</defs>
</svg>
