<svg width="187" height="147" viewBox="0 0 187 147" fill="none" xmlns="http://www.w3.org/2000/svg">
<g filter="url(#filter0_d_2140_1704)">
<g clip-path="url(#clip0_2140_1704)">
<path fill-rule="evenodd" clip-rule="evenodd" d="M16 0H170.667V116H16V0Z" fill="#229E45"/>
<path fill-rule="evenodd" clip-rule="evenodd" d="M93.672 105.367L166.534 58.0725L93.237 10.6333L20.1328 58.1691L93.672 105.367Z" fill="#F8E509"/>
<path fill-rule="evenodd" clip-rule="evenodd" d="M125.427 58C125.427 74.9891 111.628 88.7641 94.5901 88.7641C88.5018 88.7546 82.553 86.9401 77.4957 83.5502C72.4384 80.1603 68.4998 75.347 66.1776 69.7189C63.8554 64.0909 63.254 57.9007 64.4494 51.9308C65.6448 45.961 68.5833 40.4796 72.8934 36.1796C77.2036 31.8796 82.6919 28.954 88.6645 27.7726C94.6371 26.5913 100.826 27.2073 106.449 29.5427C112.071 31.8781 116.875 35.8281 120.253 40.8934C123.631 45.9586 125.432 51.9116 125.427 58Z" fill="#2B49A3"/>
<path fill-rule="evenodd" clip-rule="evenodd" d="M84.4638 76.4394L83.4971 75.8836L82.5304 76.3669L82.7479 75.2794L81.9746 74.4577L83.0621 74.3369L83.5938 73.3702L84.0529 74.3852L85.1163 74.5786L84.3188 75.3036M105.102 81.6594L104.16 81.1036L103.193 81.5869L103.386 80.4994L102.637 79.7019L103.725 79.5811L104.232 78.5902L104.715 79.6052L105.779 79.7986L104.957 80.5477M96.2088 73.2977L95.3871 72.8144L94.5413 73.2494L94.7346 72.3069L94.0579 71.6061L95.0246 71.5094L95.4596 70.6394L95.8463 71.5336L96.7888 71.7027L96.0638 72.3552M117.089 70.3011L116.267 69.8177L115.421 70.2527L115.615 69.3102L114.962 68.6336L115.905 68.5369L116.34 67.6911L116.726 68.5611L117.645 68.7302L116.944 69.3586M95.8463 64.0419L94.8796 63.5102L93.9129 63.9936L94.1063 62.8819L93.3571 62.0844L94.4446 61.9636L94.9521 60.9727L95.4354 61.9877L96.4988 62.1811L95.6771 62.9544M70.3988 54.4961L69.4321 53.9644L68.4654 54.4477L68.7071 53.3361L67.9096 52.5386L69.0213 52.4177L69.5046 51.4269L69.9879 52.4419L71.0513 52.6352L70.2538 53.3844M73.4679 67.2077L72.5013 66.6519L71.5346 67.1352L71.7521 66.0477L70.9788 65.2502L72.0663 65.1052L72.5738 64.1386L73.0571 65.1536L74.1204 65.3469L73.3229 66.0961M105.223 49.8319L104.353 49.3486L103.483 49.7836L103.676 48.8169L103 48.0919L103.966 47.9711L104.425 47.1011L104.836 48.0194L105.803 48.1886L105.078 48.8411M103.459 58.0969L102.806 57.7102L102.105 58.0486L102.25 57.2752L101.719 56.7194L102.492 56.6227L102.855 55.9461L103.169 56.6711L103.894 56.7919L103.362 57.3236M68.9971 69.5036L68.3446 69.1411L67.6921 69.4552L67.8371 68.7302L67.3296 68.1986L68.0546 68.1019L68.3929 67.4494L68.7071 68.1261L69.4321 68.2711L68.8763 68.7544M117.258 72.4519L116.726 72.1861L116.195 72.4277L116.315 71.8719L115.905 71.4852L116.485 71.4127L116.775 70.9294L117.016 71.4127L117.62 71.5336L117.161 71.8961" fill="#FFFFEF"/>
<path fill-rule="evenodd" clip-rule="evenodd" d="M68.9971 69.5034L68.3446 69.1409L67.6921 69.455L67.8371 68.73L67.3296 68.1984L68.0546 68.1017L68.3929 67.4492L68.7071 68.1259L69.4321 68.2709L68.8763 68.7542" fill="#FFFFEF"/>
<path fill-rule="evenodd" clip-rule="evenodd" d="M68.9971 69.5036L68.3446 69.1411L67.6921 69.4552L67.8371 68.7302L67.3296 68.1986L68.0546 68.1019L68.3929 67.4494L68.7071 68.1261L69.4321 68.2711L68.8763 68.7544M79.0988 69.4794L78.4704 69.1411L77.8179 69.4552L77.9629 68.7302L77.4554 68.1986L78.1804 68.1019L78.5188 67.4494L78.8329 68.1261L79.5579 68.2469L79.0021 68.7544M77.8421 72.8627L77.2138 72.5002L76.5613 72.8386L76.7063 72.1136L76.1988 71.5577L76.9238 71.4611L77.2621 70.8086L77.5763 71.4852L78.3013 71.6302L77.7454 72.1136M98.8671 66.7486L98.2388 66.3619L97.5621 66.7002L97.7071 65.9752L97.2238 65.4194L97.9488 65.3469L98.2871 64.6944L98.5771 65.3711L99.3021 65.4919L98.7704 65.9994M92.7046 66.7244L92.0521 66.3619L91.3996 66.7002L91.5446 65.9752L91.0613 65.4194L91.7863 65.3469L92.1246 64.6702L92.4146 65.3711L93.1396 65.4919L92.6079 65.9994M75.9813 64.5977L75.5704 64.3561L75.1596 64.5494L75.2563 64.0902L74.9421 63.7519L75.4013 63.7036L75.5946 63.2927L75.7879 63.7277L76.2471 63.8002L75.9088 64.1144M116.46 75.0861L115.832 74.7236L115.18 75.0619L115.325 74.3369L114.817 73.7811L115.542 73.6844L115.88 73.0319L116.195 73.7086L116.92 73.8536L116.364 74.3369M111.337 75.7869L110.805 75.4486L110.25 75.7386L110.37 75.1102L109.96 74.6752L110.564 74.6027L110.854 74.0469L111.095 74.6269L111.7 74.7236L111.24 75.1586M113.754 75.7144L113.27 75.4244L112.763 75.6661L112.86 75.1102L112.473 74.6994L113.029 74.6269L113.295 74.1436L113.536 74.6269L114.092 74.7477L113.681 75.1344M120.714 69.6244L120.23 69.3827L119.747 69.6244L119.868 69.0686L119.481 68.6577L120.037 68.5852L120.279 68.1019L120.52 68.6094L121.028 68.7061L120.641 69.0927M111.265 79.1944L110.66 78.8561L110.008 79.1461L110.153 78.4694L109.67 77.9861L110.395 77.9136L110.709 77.3094L110.999 77.9377L111.724 78.0586L111.168 78.5177M111.313 81.9494L110.733 81.6111L110.153 81.9252L110.298 81.2486L109.839 80.7652L110.491 80.6686L110.781 80.0644L111.047 80.6927L111.7 80.8136L111.216 81.2969M106.625 75.7144L106.165 75.4244L105.682 75.6661L105.779 75.1344L105.416 74.7236L105.948 74.6752L106.19 74.1919L106.431 74.6752L106.963 74.7719L106.576 75.1586M102.275 75.7144L101.791 75.4244L101.308 75.6661L101.429 75.1344L101.042 74.7236L101.598 74.6752L101.84 74.1919L102.081 74.6752L102.589 74.7719L102.202 75.1586M94.8554 69.2136L94.3721 68.9477L93.8888 69.1894L94.0096 68.6336L93.6229 68.2469L94.1546 68.1744L94.3963 67.6911L94.6379 68.1744L95.1696 68.2952L94.7829 68.6577M95.6771 82.4327L95.2904 82.2152L94.8554 82.4327L94.9521 81.9494L94.6379 81.6111L95.0971 81.5627L95.3146 81.1519L95.5079 81.5869L95.9671 81.6594L95.6288 81.9736M84.4638 61.0452L83.4971 60.4894L82.5304 60.9727L82.7479 59.8852L81.9746 59.0877L83.0621 58.9427L83.5938 57.9761L84.0529 58.9911L85.1163 59.1844L84.3188 59.9336" fill="#FFFFEF"/>
<path fill-rule="evenodd" clip-rule="evenodd" d="M123.396 69.0686C123.995 67.515 124.464 65.9146 124.798 64.2836C108.413 49.9044 90.1673 42.5336 67.1123 44.0561C66.2761 45.674 65.5885 47.3646 65.0581 49.1069C92.3664 46.4969 112.425 58.5802 123.396 69.0686Z" fill="white"/>
<path d="M116.051 60.9969L116.607 61.311C116.524 61.4751 116.498 61.6624 116.534 61.8427C116.591 62.0176 116.712 62.1644 116.872 62.2535C117.042 62.3744 117.211 62.4469 117.356 62.4227C117.501 62.4227 117.597 62.3502 117.67 62.2535C117.712 62.1894 117.729 62.112 117.718 62.036C117.698 61.9468 117.657 61.8638 117.597 61.7944C117.549 61.7219 117.428 61.5527 117.235 61.3594C117.036 61.1543 116.887 60.9062 116.8 60.6344C116.74 60.4286 116.755 60.2081 116.844 60.0129C116.933 59.8177 117.089 59.6609 117.283 59.571C117.459 59.4977 117.653 59.4808 117.839 59.5227C118.066 59.575 118.28 59.6738 118.467 59.8127C118.806 60.0544 119.023 60.296 119.096 60.586C119.129 60.7217 119.134 60.8628 119.109 61.0003C119.084 61.1377 119.03 61.2683 118.951 61.3835L118.371 61.021C118.443 60.876 118.467 60.731 118.419 60.6102C118.395 60.4894 118.298 60.3685 118.129 60.2719C118.005 60.172 117.853 60.1129 117.694 60.1027C117.65 60.1012 117.607 60.1117 117.569 60.133C117.53 60.1543 117.498 60.1856 117.477 60.2235C117.428 60.296 117.428 60.3685 117.452 60.4652C117.477 60.5619 117.597 60.7552 117.839 60.9969C118.081 61.2385 118.226 61.456 118.322 61.601C118.409 61.7594 118.448 61.9392 118.435 62.1192C118.422 62.2991 118.358 62.4715 118.25 62.616C118.137 62.7803 117.977 62.9067 117.791 62.9785C117.61 63.062 117.407 63.0873 117.211 63.051C116.993 63.0027 116.776 62.906 116.534 62.7369C116.172 62.4952 115.954 62.2294 115.882 61.9394C115.803 61.6105 115.855 61.264 116.027 60.9727L116.051 60.9969ZM113.247 59.1602L113.852 59.4744C113.777 59.6413 113.76 59.8284 113.803 60.006C113.865 60.1719 113.985 60.3094 114.142 60.3927C114.335 60.5135 114.48 60.5619 114.625 60.5377C114.77 60.5377 114.867 60.4652 114.939 60.3444C114.976 60.2869 114.993 60.219 114.987 60.151C114.987 60.0785 114.939 59.9819 114.867 59.9094C114.743 59.7599 114.614 59.6148 114.48 59.4744C114.214 59.2085 114.045 58.991 113.997 58.7977C113.957 58.6733 113.945 58.5418 113.962 58.4124C113.979 58.283 114.023 58.1588 114.093 58.0485C114.185 57.8994 114.32 57.7815 114.48 57.7102C114.646 57.6336 114.831 57.6084 115.012 57.6377C115.235 57.6753 115.449 57.7575 115.64 57.8794C116.002 58.121 116.22 58.3627 116.292 58.6285C116.336 58.7644 116.351 58.9081 116.334 59.0499C116.317 59.1918 116.27 59.3283 116.196 59.4502L115.592 59.1119C115.664 58.9427 115.688 58.8219 115.64 58.701C115.592 58.5802 115.495 58.4594 115.326 58.3627C115.192 58.2667 115.031 58.2159 114.867 58.2177C114.827 58.2204 114.788 58.2328 114.755 58.2539C114.721 58.275 114.693 58.304 114.673 58.3385C114.625 58.411 114.625 58.4835 114.649 58.5802C114.673 58.6769 114.818 58.8702 115.06 59.1119C115.302 59.3535 115.471 59.5469 115.543 59.6919C115.64 59.8434 115.692 60.0195 115.692 60.1994C115.692 60.3792 115.64 60.5553 115.543 60.7069C115.439 60.8755 115.288 61.0099 115.108 61.0935C114.927 61.177 114.724 61.2023 114.528 61.166C114.28 61.124 114.041 61.0337 113.827 60.9002C113.515 60.7337 113.274 60.4586 113.151 60.1269C113.057 59.8042 113.092 59.458 113.247 59.1602ZM109.816 58.2419L111.58 55.3419L113.707 56.671L113.417 57.1544L111.87 56.1877L111.483 56.8402L112.933 57.7344L112.619 58.2177L111.169 57.3235L110.686 58.121L112.305 59.0877L112.015 59.571L109.84 58.2419H109.816ZM104.813 54.1335L105.079 53.6502L106.384 54.3027L105.78 55.511C105.587 55.5594 105.345 55.5835 105.055 55.5594C104.776 55.5287 104.506 55.4467 104.257 55.3177C103.965 55.1752 103.715 54.9586 103.532 54.6894C103.366 54.4392 103.282 54.1437 103.291 53.8435C103.303 53.5311 103.386 53.2254 103.532 52.9494C103.678 52.6587 103.894 52.4094 104.161 52.2244C104.416 52.0477 104.72 51.9548 105.031 51.9585C105.272 51.9585 105.514 52.031 105.804 52.2002C106.191 52.3694 106.432 52.611 106.553 52.8769C106.679 53.1408 106.705 53.4413 106.626 53.7227L105.973 53.5294C106.013 53.3675 105.996 53.1968 105.925 53.046C105.852 52.901 105.732 52.8044 105.538 52.7077C105.426 52.6434 105.301 52.6037 105.171 52.5912C105.042 52.5787 104.912 52.5937 104.789 52.6352C104.547 52.7077 104.33 52.9252 104.161 53.2635C103.992 53.6019 103.919 53.916 103.992 54.1819C104.025 54.3079 104.086 54.4252 104.169 54.5254C104.253 54.6256 104.357 54.7063 104.475 54.7619C104.596 54.8344 104.741 54.8827 104.886 54.8827C105.03 54.9046 105.177 54.9046 105.321 54.8827L105.514 54.496L104.813 54.1335ZM83.0149 48.7444L83.4982 45.361L84.5133 45.5302L84.7791 47.8985L85.7216 45.7235L86.7366 45.8685L86.2533 49.2035L85.6008 49.1069L86.0116 46.4727L84.9482 49.0102L84.2958 48.9135L84.0299 46.1827L83.6433 48.841L83.0149 48.7444ZM79.6074 48.3335L79.9216 44.9502L82.4107 45.1919L82.3624 45.7719L80.5499 45.6027L80.4774 46.3277L82.1691 46.4969L82.0966 47.0769L80.4049 46.9077L80.3324 47.826L82.2174 47.9952L82.1691 48.5752L79.6074 48.3335Z" fill="#309E3A"/>
<path d="M68.3207 46.2307C68.3207 45.8682 68.3932 45.6024 68.4899 45.3607C68.5746 45.1889 68.6891 45.0334 68.8282 44.9016C68.9521 44.7765 69.1001 44.6779 69.2632 44.6116C69.5049 44.5391 69.7465 44.4907 69.9882 44.4907C70.4957 44.4907 70.8824 44.6841 71.1965 44.9741C71.3461 45.1588 71.4573 45.3715 71.5237 45.5997C71.5901 45.8279 71.6103 46.0671 71.5832 46.3032C71.5832 46.8349 71.414 47.2699 71.0999 47.5841C70.9384 47.7333 70.7474 47.847 70.5393 47.9177C70.3312 47.9885 70.1105 48.0148 69.8915 47.9949C69.6755 47.9971 69.4613 47.9554 69.2619 47.8723C69.0625 47.7892 68.8821 47.6665 68.7315 47.5116C68.4308 47.1556 68.2831 46.6952 68.3207 46.2307Z" fill="#309E3A"/>
<path d="M69.0215 46.2308C69.0215 46.5933 69.094 46.8833 69.2632 47.1008C69.4323 47.2941 69.6498 47.4149 69.9398 47.4149C70.0653 47.4237 70.1911 47.4044 70.3082 47.3584C70.4252 47.3124 70.5306 47.2409 70.6165 47.1491C70.7857 46.9558 70.8582 46.6658 70.8823 46.2549C70.8823 45.8683 70.834 45.5783 70.6407 45.3849C70.5619 45.2875 70.4626 45.2088 70.3497 45.1545C70.2369 45.1001 70.1134 45.0716 69.9882 45.0708C69.861 45.0667 69.7345 45.0906 69.6176 45.1407C69.5007 45.1908 69.3962 45.2659 69.3115 45.3608C69.1182 45.5541 69.0457 45.8441 69.0215 46.2308Z" fill="#F7FFFF"/>
<path d="M72.3081 47.9707L72.3564 44.5874H73.8064C74.1689 44.5874 74.4106 44.6357 74.5798 44.7082C74.7489 44.7566 74.8698 44.8774 74.9664 45.0224C75.0631 45.1674 75.1114 45.3607 75.1114 45.5782C75.1133 45.8107 75.027 46.0353 74.8698 46.2066C74.6911 46.3739 74.4612 46.4761 74.2173 46.4966L74.5798 46.7866C74.6764 46.8832 74.7973 47.0766 74.9423 47.3424L75.3531 48.0191H74.5314L74.0481 47.2457L73.7098 46.7624C73.6512 46.6959 73.5762 46.6459 73.4923 46.6174C73.3824 46.5853 73.2684 46.5691 73.1539 46.5691H73.0089V47.9707H72.3081Z" fill="#309E3A"/>
<path d="M73.0332 46.0375H73.5165C73.8549 46.0375 74.0724 46.0375 74.1449 45.9891C74.2174 45.9891 74.2899 45.9166 74.3382 45.8683C74.3865 45.82 74.4107 45.6991 74.4107 45.6266C74.4107 45.4816 74.3865 45.385 74.314 45.3367C74.2657 45.2642 74.169 45.2158 74.0724 45.1916H73.589L73.0332 45.1675V46.0133V46.0375Z" fill="white"/>
<path d="M76.174 44.7563L77.4307 44.8288C77.6965 44.8288 77.914 44.853 78.059 44.9013C78.2471 44.9696 78.4139 45.0863 78.5424 45.2397C78.6816 45.4086 78.7807 45.6069 78.8324 45.8197C78.9049 46.0372 78.929 46.303 78.9049 46.6172C78.9047 46.8638 78.8638 47.1088 78.784 47.3422C78.6874 47.5838 78.5424 47.7772 78.3732 47.9222C78.2324 48.0382 78.0672 48.1208 77.8899 48.1638C77.7449 48.2122 77.5274 48.2122 77.2857 48.2122L76.0049 48.1397L76.174 44.7563Z" fill="#309E3A"/>
<path d="M76.8264 45.3604L76.7056 47.6079H77.6239C77.7447 47.6079 77.8414 47.5595 77.9139 47.487C77.9864 47.4145 78.0589 47.3179 78.1072 47.1729C78.1556 47.0279 78.2039 46.8104 78.2039 46.5445L78.1797 45.9404C78.1452 45.8129 78.0787 45.6964 77.9864 45.602C77.9061 45.5213 77.8062 45.463 77.6964 45.4329C77.5137 45.3922 77.3276 45.3679 77.1406 45.3604H76.8264Z" fill="white"/>
<path d="M92.7539 50.7984L93.5514 47.5117L94.6147 47.7534L95.3881 47.9951C95.5572 48.0917 95.7022 48.2367 95.7747 48.4542C95.8714 48.6476 95.8714 48.8651 95.8231 49.1309C95.7747 49.3242 95.7022 49.4934 95.5814 49.6142C95.4928 49.7203 95.3819 49.8057 95.2566 49.8641C95.1313 49.9226 94.9947 49.9528 94.8564 49.9525C94.6872 49.9525 94.4456 49.9042 94.1314 49.8317L93.7206 49.7109L93.4306 50.9675L92.7539 50.7984Z" fill="#309E3A"/>
<path d="M94.0591 48.2368L93.8657 49.1551L94.2282 49.2518C94.4699 49.3001 94.6632 49.3485 94.7599 49.3243C94.8539 49.3113 94.9416 49.2694 95.0108 49.2045C95.08 49.1396 95.1275 49.0548 95.1466 48.9618C95.1466 48.841 95.1466 48.7443 95.0982 48.6476C95.0452 48.5494 94.9598 48.4726 94.8566 48.4301L94.3974 48.3093L94.0832 48.2368H94.0591Z" fill="white"/>
<path d="M95.8955 51.7408L97.0313 48.5508L98.3605 49.0341C98.723 49.1549 98.9405 49.2758 99.0855 49.3725C99.2063 49.4933 99.303 49.6141 99.3272 49.8075C99.3513 50.0008 99.3755 50.1699 99.3272 50.3633C99.2305 50.6049 99.0855 50.7741 98.8922 50.895C98.6988 50.9916 98.4572 51.0158 98.1672 50.9674C98.2638 51.0883 98.3605 51.2091 98.4088 51.3541L98.6022 52.0066L98.7472 52.7558L97.998 52.4899L97.7563 51.62C97.7124 51.4232 97.6559 51.2295 97.5872 51.0399C97.5551 50.9648 97.5054 50.8984 97.4422 50.8466C97.3938 50.7741 97.2972 50.7258 97.128 50.6774L97.0072 50.6291L96.5238 51.9825L95.8955 51.7408Z" fill="#309E3A"/>
<path d="M97.1995 50.1217L97.6586 50.2909C97.9728 50.4117 98.1661 50.4601 98.2628 50.4601C98.3353 50.4601 98.4078 50.4601 98.4803 50.3876C98.5528 50.3392 98.6011 50.2667 98.6253 50.1701C98.6736 50.0734 98.6736 49.9767 98.6253 49.88C98.5895 49.7864 98.5208 49.709 98.432 49.6626L97.9486 49.4934L97.4653 49.3242L97.1753 50.1217H97.1995Z" fill="white"/>
<path d="M99.859 51.6199C99.9421 51.337 100.082 51.0739 100.27 50.8466C100.392 50.7008 100.539 50.578 100.705 50.4841C100.855 50.3995 101.018 50.3422 101.188 50.3149C101.43 50.3149 101.672 50.3149 101.937 50.4116C102.153 50.4651 102.356 50.5638 102.531 50.7013C102.706 50.8388 102.849 51.0119 102.952 51.2091C103.146 51.5958 103.146 52.0549 103.001 52.5866C102.881 53.0434 102.586 53.4343 102.179 53.6741C101.817 53.8916 101.382 53.9158 100.922 53.7708C100.707 53.7159 100.505 53.6166 100.331 53.4793C100.156 53.342 100.012 53.1696 99.9074 52.9733C99.8106 52.762 99.7565 52.5337 99.7482 52.3014C99.7399 52.0692 99.7776 51.8376 99.859 51.6199Z" fill="#309E3A"/>
<path d="M100.535 51.8134C100.438 52.1759 100.414 52.49 100.535 52.7317C100.656 52.9734 100.825 53.1184 101.091 53.215C101.332 53.2875 101.574 53.2634 101.816 53.1184C102.057 52.9975 102.202 52.7317 102.323 52.345C102.444 51.9825 102.444 51.6925 102.323 51.4509C102.276 51.3362 102.203 51.2335 102.111 51.15C102.019 51.0664 101.91 51.0041 101.792 50.9675C101.673 50.9265 101.546 50.9117 101.421 50.9242C101.296 50.9368 101.175 50.9763 101.067 51.04C100.825 51.185 100.656 51.4267 100.535 51.8134Z" fill="white"/>
<path d="M106.455 56.3326L108.002 53.3359L109.283 53.9884C109.524 54.1043 109.745 54.2595 109.935 54.4476C110.056 54.5684 110.128 54.7134 110.128 54.9068C110.128 55.1001 110.128 55.2693 110.032 55.4384C109.939 55.6557 109.766 55.8289 109.548 55.9218C109.307 55.9701 109.065 55.9701 108.799 55.8734C108.896 56.0184 108.944 56.1634 108.993 56.2843C109.041 56.4293 109.065 56.6468 109.089 56.9609L109.138 57.7343L108.413 57.3718L108.316 56.4776C108.304 56.2749 108.28 56.0731 108.243 55.8734C108.227 55.783 108.185 55.6992 108.123 55.6318L107.833 55.4626L107.712 55.3901L107.059 56.6468L106.455 56.3326Z" fill="#309E3A"/>
<path d="M107.954 54.9071L108.413 55.1488C108.703 55.2938 108.897 55.3905 108.969 55.3905C109.042 55.3905 109.138 55.3905 109.211 55.3421C109.283 55.318 109.332 55.2455 109.38 55.1488C109.428 55.0521 109.452 54.9555 109.428 54.8588C109.398 54.7626 109.339 54.6781 109.259 54.6171C109.118 54.5303 108.973 54.4497 108.824 54.3755L108.341 54.1338L107.954 54.9071Z" fill="white"/>
<path d="M118.975 62.5192C119.131 62.2707 119.337 62.0569 119.579 61.8908C119.741 61.7868 119.922 61.7131 120.11 61.6733C120.286 61.6375 120.467 61.6375 120.642 61.6733C120.884 61.7217 121.101 61.8183 121.319 61.9633C121.507 62.0805 121.668 62.2356 121.793 62.4186C121.918 62.6017 122.003 62.8088 122.044 63.0267C122.116 63.4375 121.995 63.8967 121.705 64.3558C121.463 64.7552 121.072 65.042 120.618 65.1533C120.402 65.2001 120.178 65.2006 119.961 65.1547C119.745 65.1089 119.54 65.0179 119.361 64.8875C119.173 64.7703 119.012 64.6153 118.887 64.4322C118.762 64.2491 118.677 64.0421 118.636 63.8242C118.564 63.3892 118.685 62.9542 118.975 62.5192Z" fill="#309E3A"/>
<path d="M119.579 62.9061C119.338 63.2203 119.265 63.5103 119.313 63.7761C119.331 63.8985 119.375 64.0157 119.442 64.1199C119.508 64.2241 119.596 64.3129 119.7 64.3803C119.942 64.5495 120.183 64.5978 120.425 64.5253C120.667 64.4528 120.908 64.2836 121.126 63.9453C121.343 63.607 121.44 63.317 121.392 63.0753C121.368 62.8336 121.223 62.6161 121.005 62.447C120.788 62.2778 120.522 62.2536 120.28 62.3261C120.038 62.3745 119.797 62.5678 119.555 62.9061H119.579Z" fill="white"/>
<path d="M88.9341 49.4206L89.4899 47.0522L91.2299 47.4631L91.1574 47.8497L89.8766 47.5597L89.7558 48.0914L90.9399 48.3572L90.8433 48.7681L89.6591 48.4781L89.5141 49.1306L90.8433 49.4447L90.7466 49.8314L88.9341 49.4206Z" fill="#309E3A"/>
</g>
</g>
<defs>
<filter id="filter0_d_2140_1704" x="0.533334" y="0" width="185.6" height="146.933" filterUnits="userSpaceOnUse" color-interpolation-filters="sRGB">
<feFlood flood-opacity="0" result="BackgroundImageFix"/>
<feColorMatrix in="SourceAlpha" type="matrix" values="0 0 0 0 0 0 0 0 0 0 0 0 0 0 0 0 0 0 127 0" result="hardAlpha"/>
<feOffset dy="15.4667"/>
<feGaussianBlur stdDeviation="7.73333"/>
<feComposite in2="hardAlpha" operator="out"/>
<feColorMatrix type="matrix" values="0 0 0 0 0 0 0 0 0 0 0 0 0 0 0 0 0 0 0.25 0"/>
<feBlend mode="normal" in2="BackgroundImageFix" result="effect1_dropShadow_2140_1704"/>
<feBlend mode="normal" in="SourceGraphic" in2="effect1_dropShadow_2140_1704" result="shape"/>
</filter>
<clipPath id="clip0_2140_1704">
<rect x="16" width="154.667" height="116" rx="15.4667" fill="white"/>
</clipPath>
</defs>
</svg>
