<svg width="18" height="15" viewBox="0 0 18 15" fill="none" xmlns="http://www.w3.org/2000/svg">
<path fill-rule="evenodd" clip-rule="evenodd" d="M0 0.75H18V14.25H0V0.75Z" fill="#229E45"/>
<path fill-rule="evenodd" clip-rule="evenodd" d="M9.03939 13.0123L17.5191 7.50824L8.98877 1.9873L0.480957 7.51949L9.03939 13.0123Z" fill="#F8E509"/>
<path fill-rule="evenodd" clip-rule="evenodd" d="M12.735 7.5C12.735 9.47718 11.129 11.0803 9.14623 11.0803C8.43767 11.0792 7.74535 10.868 7.15679 10.4735C6.56823 10.079 6.10985 9.51883 5.8396 8.86384C5.56934 8.20885 5.49935 7.48844 5.63847 6.79367C5.77759 6.09891 6.11957 5.46099 6.62118 4.96056C7.1228 4.46012 7.76152 4.11964 8.45661 3.98216C9.1517 3.84468 9.87195 3.91637 10.5263 4.18816C11.1807 4.45995 11.7397 4.91965 12.1329 5.50914C12.526 6.09863 12.7355 6.79144 12.735 7.5Z" fill="#2B49A3"/>
<path fill-rule="evenodd" clip-rule="evenodd" d="M7.96782 9.64582L7.85532 9.58113L7.74282 9.63738L7.76813 9.51082L7.67813 9.4152L7.80469 9.40113L7.86657 9.28863L7.92001 9.40676L8.04376 9.42926L7.95094 9.51363M10.3697 10.2533L10.26 10.1886L10.1475 10.2449L10.17 10.1183L10.0828 10.0255L10.2094 10.0114L10.2684 9.89613L10.3247 10.0143L10.4484 10.0368L10.3528 10.1239M9.33469 9.28019L9.23907 9.22395L9.14063 9.27457L9.16313 9.16488L9.08438 9.08332L9.19688 9.07207L9.2475 8.97082L9.2925 9.07488L9.40219 9.09457L9.31782 9.17051M11.7647 8.93145L11.6691 8.8752L11.5706 8.92582L11.5931 8.81613L11.5172 8.73738L11.6269 8.72613L11.6775 8.6277L11.7225 8.72895L11.8294 8.74863L11.7478 8.82176M9.2925 8.20301L9.18 8.14113L9.0675 8.19738L9.09001 8.06801L9.00282 7.9752L9.12938 7.96113L9.18844 7.84582L9.24469 7.96395L9.36844 7.98645L9.27282 8.07645M6.33094 7.09207L6.21844 7.0302L6.10594 7.08645L6.13407 6.95707L6.04126 6.86426L6.17063 6.8502L6.22688 6.73488L6.28313 6.85301L6.40688 6.87551L6.31407 6.9627M6.68813 8.57145L6.57563 8.50676L6.46313 8.56301L6.48844 8.43644L6.39844 8.34363L6.52501 8.32676L6.58407 8.21426L6.64032 8.33238L6.76407 8.35488L6.67125 8.44207M10.3838 6.54926L10.2825 6.49301L10.1813 6.54363L10.2038 6.43113L10.125 6.34676L10.2375 6.3327L10.2909 6.23145L10.3388 6.33832L10.4513 6.35801L10.3669 6.43395M10.1784 7.51113L10.1025 7.46613L10.0209 7.50551L10.0378 7.41551L9.97594 7.35082L10.0659 7.33957L10.1081 7.26082L10.1447 7.3452L10.2291 7.35926L10.1672 7.42113M6.16782 8.83863L6.09188 8.79645L6.01594 8.83301L6.03282 8.74863L5.97375 8.68676L6.05813 8.67551L6.09751 8.59957L6.13407 8.67832L6.21844 8.6952L6.15376 8.75145M11.7844 9.18176L11.7225 9.15082L11.6606 9.17895L11.6747 9.11426L11.6269 9.06926L11.6944 9.06082L11.7281 9.00457L11.7563 9.06082L11.8266 9.07488L11.7731 9.11707" fill="#FFFFEF"/>
<path fill-rule="evenodd" clip-rule="evenodd" d="M6.16782 8.83867L6.09188 8.79648L6.01594 8.83305L6.03282 8.74867L5.97375 8.6868L6.05813 8.67555L6.09751 8.59961L6.13407 8.67836L6.21844 8.69523L6.15376 8.75148" fill="#FFFFEF"/>
<path fill-rule="evenodd" clip-rule="evenodd" d="M6.16782 8.83863L6.09188 8.79645L6.01594 8.83301L6.03282 8.74863L5.97375 8.68676L6.05813 8.67551L6.09751 8.59957L6.13407 8.67832L6.21844 8.6952L6.15376 8.75145M7.34344 8.83582L7.27032 8.79645L7.19438 8.83301L7.21125 8.74863L7.15219 8.68676L7.23657 8.67551L7.27594 8.59957L7.31251 8.67832L7.39688 8.69238L7.33219 8.75145M7.19719 9.22957L7.12407 9.18738L7.04813 9.22676L7.065 9.14238L7.00594 9.0777L7.09032 9.06645L7.12969 8.99051L7.16626 9.06926L7.25063 9.08613L7.18594 9.14238M9.64407 8.51801L9.57094 8.47301L9.49219 8.51238L9.50907 8.42801L9.45282 8.36332L9.53719 8.35488L9.57657 8.27895L9.61032 8.3577L9.69469 8.37176L9.63282 8.43082M8.92688 8.5152L8.85094 8.47301L8.775 8.51238L8.79188 8.42801L8.73563 8.36332L8.82001 8.35488L8.85938 8.27613L8.89313 8.3577L8.97751 8.37176L8.91563 8.43082M6.98063 8.2677L6.93282 8.23957L6.88501 8.26207L6.89625 8.20863L6.85969 8.16926L6.91313 8.16363L6.93563 8.11582L6.95813 8.16645L7.01157 8.17488L6.97219 8.21145M11.6916 9.48832L11.6184 9.44613L11.5425 9.48551L11.5594 9.40113L11.5003 9.33645L11.5847 9.3252L11.6241 9.24926L11.6606 9.32801L11.745 9.34488L11.6803 9.40113M11.0953 9.56988L11.0334 9.53051L10.9688 9.56426L10.9828 9.49113L10.935 9.44051L11.0053 9.43207L11.0391 9.36738L11.0672 9.43488L11.1375 9.44613L11.0841 9.49676M11.3766 9.56144L11.3203 9.5277L11.2613 9.55582L11.2725 9.49113L11.2275 9.44332L11.2922 9.43488L11.3231 9.37863L11.3513 9.43488L11.4159 9.44895L11.3681 9.49395M12.1866 8.8527L12.1303 8.82457L12.0741 8.8527L12.0881 8.78801L12.0431 8.7402L12.1078 8.73176L12.1359 8.67551L12.1641 8.73457L12.2231 8.74582L12.1781 8.79082M11.0869 9.96645L11.0166 9.92707L10.9406 9.96082L10.9575 9.88207L10.9013 9.82582L10.9856 9.81738L11.0222 9.74707L11.0559 9.8202L11.1403 9.83426L11.0756 9.8877M11.0925 10.2871L11.025 10.2477L10.9575 10.2843L10.9744 10.2055L10.9209 10.1493L10.9969 10.138L11.0306 10.0677L11.0616 10.1408L11.1375 10.1549L11.0813 10.2111M10.5469 9.56144L10.4934 9.5277L10.4372 9.55582L10.4484 9.49395L10.4063 9.44613L10.4681 9.44051L10.4963 9.38426L10.5244 9.44051L10.5863 9.45176L10.5413 9.49676M10.0406 9.56144L9.98438 9.5277L9.92813 9.55582L9.94219 9.49395L9.89719 9.44613L9.96188 9.44051L9.99001 9.38426L10.0181 9.44051L10.0772 9.45176L10.0322 9.49676M9.17719 8.80488L9.12094 8.77395L9.06469 8.80207L9.07875 8.73738L9.03376 8.69238L9.09563 8.68395L9.12375 8.6277L9.15188 8.68395L9.21376 8.69801L9.16876 8.7402M9.27282 10.3433L9.22782 10.318L9.17719 10.3433L9.18844 10.2871L9.15188 10.2477L9.20532 10.2421L9.23063 10.1943L9.25313 10.2449L9.30657 10.2533L9.26719 10.2899M7.96782 7.85426L7.85532 7.78957L7.74282 7.84582L7.76813 7.71926L7.67813 7.62645L7.80469 7.60957L7.86657 7.49707L7.92001 7.6152L8.04376 7.6377L7.95094 7.72488" fill="#FFFFEF"/>
<path fill-rule="evenodd" clip-rule="evenodd" d="M12.4987 8.78832C12.5684 8.60752 12.623 8.42126 12.6619 8.23144C10.755 6.55801 8.63154 5.70019 5.94841 5.87738C5.8511 6.06568 5.77108 6.26243 5.70935 6.46519C8.88748 6.16144 11.2219 7.56769 12.4987 8.78832Z" fill="white"/>
<path d="M11.6438 7.84895L11.7085 7.88551C11.6988 7.90461 11.6958 7.92639 11.7 7.94738C11.7066 7.96774 11.7207 7.98483 11.7394 7.9952C11.7591 8.00926 11.7788 8.01769 11.7957 8.01488C11.8125 8.01488 11.8238 8.00645 11.8322 7.9952C11.8371 7.98773 11.8391 7.97872 11.8378 7.96988C11.8355 7.95949 11.8307 7.94983 11.8238 7.94176C11.8182 7.93332 11.8041 7.91363 11.7816 7.89113C11.7585 7.86726 11.7411 7.83839 11.731 7.80676C11.7239 7.78281 11.7258 7.75714 11.7361 7.73443C11.7464 7.71171 11.7646 7.69346 11.7872 7.68301C11.8077 7.67447 11.8303 7.6725 11.8519 7.67738C11.8783 7.68347 11.9032 7.69496 11.925 7.71113C11.9644 7.73926 11.9897 7.76738 11.9982 7.80113C12.002 7.81692 12.0025 7.83335 11.9996 7.84934C11.9967 7.86534 11.9905 7.88054 11.9813 7.89395L11.9138 7.85176C11.9222 7.83488 11.925 7.81801 11.9194 7.80395C11.9166 7.78988 11.9053 7.77582 11.8857 7.76457C11.8712 7.75295 11.8535 7.74607 11.835 7.74488C11.8299 7.74471 11.8249 7.74593 11.8204 7.74841C11.816 7.75088 11.8123 7.75453 11.8097 7.75895C11.8041 7.76738 11.8041 7.77582 11.8069 7.78707C11.8097 7.79832 11.8238 7.82082 11.8519 7.84895C11.88 7.87707 11.8969 7.90238 11.9082 7.91926C11.9182 7.93769 11.9227 7.95862 11.9212 7.97956C11.9197 8.0005 11.9123 8.02057 11.8997 8.03738C11.8866 8.0565 11.8679 8.07121 11.8463 8.07957C11.8252 8.08928 11.8016 8.09223 11.7788 8.08801C11.7535 8.08238 11.7282 8.07113 11.7 8.05145C11.6578 8.02332 11.6325 7.99238 11.6241 7.95863C11.6149 7.92036 11.621 7.88003 11.641 7.84613L11.6438 7.84895ZM11.3175 7.6352L11.3878 7.67176C11.3791 7.69118 11.3772 7.71296 11.3822 7.73363C11.3894 7.75294 11.4034 7.76894 11.4216 7.77863C11.4441 7.7927 11.461 7.79832 11.4778 7.79551C11.4947 7.79551 11.506 7.78707 11.5144 7.77301C11.5187 7.76632 11.5206 7.75842 11.52 7.75051C11.52 7.74207 11.5144 7.73082 11.506 7.72238C11.4916 7.70499 11.4765 7.68811 11.461 7.67176C11.43 7.64082 11.4103 7.61551 11.4047 7.59301C11.4001 7.57853 11.3987 7.56323 11.4007 7.54817C11.4026 7.53311 11.4078 7.51865 11.416 7.50582C11.4267 7.48846 11.4423 7.47474 11.461 7.46645C11.4803 7.45754 11.5018 7.4546 11.5228 7.45801C11.5489 7.46239 11.5737 7.47195 11.596 7.48613C11.6382 7.51426 11.6635 7.54238 11.6719 7.57332C11.677 7.58913 11.6787 7.60586 11.6767 7.62236C11.6748 7.63887 11.6693 7.65476 11.6607 7.66895L11.5903 7.62957C11.5988 7.60988 11.6016 7.59582 11.596 7.58176C11.5903 7.5677 11.5791 7.55363 11.5594 7.54238C11.5438 7.53121 11.5251 7.5253 11.506 7.52551C11.5013 7.52582 11.4969 7.52727 11.493 7.52972C11.489 7.53217 11.4858 7.53556 11.4835 7.53957C11.4778 7.54801 11.4778 7.55645 11.4807 7.5677C11.4835 7.57895 11.5003 7.60145 11.5285 7.62957C11.5566 7.6577 11.5763 7.6802 11.5847 7.69707C11.596 7.71471 11.602 7.7352 11.602 7.75613C11.602 7.77706 11.596 7.79756 11.5847 7.8152C11.5726 7.83482 11.555 7.85046 11.5341 7.8602C11.513 7.86991 11.4894 7.87285 11.4666 7.86863C11.4376 7.86374 11.4099 7.85323 11.385 7.8377C11.3487 7.81831 11.3207 7.7863 11.3063 7.7477C11.2954 7.71014 11.2994 7.66985 11.3175 7.6352ZM10.9182 7.52832L11.1235 7.19082L11.371 7.34551L11.3372 7.40176L11.1572 7.28926L11.1122 7.3652L11.281 7.46926L11.2444 7.52551L11.0757 7.42145L11.0194 7.51426L11.2078 7.62676L11.1741 7.68301L10.921 7.52832H10.9182ZM10.336 7.0502L10.3669 6.99395L10.5188 7.06988L10.4485 7.21051C10.426 7.21613 10.3978 7.21895 10.3641 7.21613C10.3317 7.21256 10.3002 7.20303 10.2713 7.18801C10.2372 7.17143 10.2082 7.14621 10.1869 7.11488C10.1676 7.08577 10.1577 7.05138 10.1588 7.01645C10.1602 6.98008 10.1698 6.94451 10.1869 6.91238C10.2038 6.87856 10.2289 6.84954 10.26 6.82801C10.2898 6.80745 10.3251 6.79664 10.3613 6.79707C10.3894 6.79707 10.4175 6.80551 10.4513 6.8252C10.4963 6.84488 10.5244 6.87301 10.5385 6.90395C10.5531 6.93466 10.5561 6.96963 10.5469 7.00238L10.471 6.97988C10.4756 6.96104 10.4736 6.94118 10.4653 6.92363C10.4569 6.90676 10.4428 6.89551 10.4203 6.88426C10.4072 6.87677 10.3927 6.87215 10.3776 6.8707C10.3626 6.86924 10.3475 6.87099 10.3332 6.87582C10.305 6.88426 10.2797 6.90957 10.26 6.94895C10.2403 6.98832 10.2319 7.02488 10.2403 7.05582C10.2442 7.07049 10.2513 7.08414 10.261 7.0958C10.2707 7.10746 10.2829 7.11685 10.2966 7.12332C10.3107 7.13176 10.3275 7.13738 10.3444 7.13738C10.3612 7.13993 10.3782 7.13993 10.395 7.13738L10.4175 7.09238L10.336 7.0502ZM7.79909 6.42301L7.85534 6.02926L7.97346 6.04895L8.0044 6.32457L8.11409 6.07145L8.23221 6.08832L8.17596 6.47645L8.10003 6.4652L8.14784 6.15863L8.02409 6.45395L7.94815 6.4427L7.91721 6.12488L7.87221 6.43426L7.79909 6.42301ZM7.40253 6.3752L7.43909 5.98145L7.72878 6.00957L7.72315 6.07707L7.51221 6.05738L7.50378 6.14176L7.70065 6.16145L7.69221 6.22895L7.49534 6.20926L7.4869 6.31613L7.70628 6.33582L7.70065 6.40332L7.40253 6.3752Z" fill="#309E3A"/>
<path d="M6.08905 6.13023C6.08905 6.08805 6.09749 6.05711 6.10874 6.02898C6.1186 6.00898 6.13193 5.99089 6.14811 5.97555C6.16254 5.961 6.17976 5.94952 6.19874 5.9418C6.22686 5.93336 6.25499 5.92773 6.28311 5.92773C6.34217 5.92773 6.38717 5.95023 6.42374 5.98398C6.44114 6.00548 6.45408 6.03024 6.46181 6.0568C6.46954 6.08336 6.47189 6.11119 6.46874 6.13867C6.46874 6.20055 6.44905 6.25117 6.41249 6.28773C6.3937 6.3051 6.37147 6.31833 6.34725 6.32657C6.32302 6.3348 6.29734 6.33786 6.27186 6.33555C6.24672 6.3358 6.22179 6.33095 6.19859 6.32128C6.17538 6.31161 6.15438 6.29733 6.13686 6.2793C6.10186 6.23787 6.08467 6.18429 6.08905 6.13023Z" fill="#309E3A"/>
<path d="M6.17059 6.13017C6.17059 6.17236 6.17903 6.20611 6.19872 6.23142C6.21841 6.25392 6.24372 6.26798 6.27747 6.26798C6.29207 6.269 6.30671 6.26676 6.32034 6.2614C6.33396 6.25605 6.34622 6.24773 6.35622 6.23704C6.37591 6.21454 6.38434 6.18079 6.38716 6.13298C6.38716 6.08798 6.38153 6.05423 6.35903 6.03173C6.34987 6.0204 6.33831 6.01123 6.32517 6.00491C6.31204 5.99859 6.29767 5.99526 6.28309 5.99517C6.2683 5.9947 6.25358 5.99747 6.23997 6.0033C6.22637 6.00914 6.2142 6.01788 6.20434 6.02892C6.18184 6.05142 6.17341 6.08517 6.17059 6.13017Z" fill="#F7FFFF"/>
<path d="M6.5531 6.33271L6.55873 5.93896H6.72748C6.76966 5.93896 6.79779 5.94459 6.81748 5.95303C6.83716 5.95865 6.85123 5.97271 6.86248 5.98959C6.87373 6.00646 6.87935 6.02897 6.87935 6.05428C6.87957 6.08133 6.86952 6.10747 6.85123 6.1274C6.83043 6.14688 6.80368 6.15877 6.77529 6.16115L6.81748 6.1949C6.82873 6.20615 6.84279 6.22865 6.85966 6.25959L6.90748 6.33834H6.81185L6.7556 6.24834L6.71623 6.19209C6.70941 6.18435 6.70068 6.17853 6.69091 6.17521C6.67812 6.17148 6.66486 6.16959 6.65154 6.16959H6.63466V6.33271H6.5531Z" fill="#309E3A"/>
<path d="M6.63745 6.1076H6.6937C6.73308 6.1076 6.75839 6.1076 6.76683 6.10197C6.77526 6.10197 6.7837 6.09354 6.78933 6.08791C6.79495 6.08229 6.79776 6.06822 6.79776 6.05979C6.79776 6.04291 6.79495 6.03166 6.78651 6.02604C6.78089 6.0176 6.76964 6.01197 6.75839 6.00916H6.70214L6.63745 6.00635V6.10479V6.1076Z" fill="white"/>
<path d="M7.00315 5.95898L7.1494 5.96742C7.18033 5.96742 7.20565 5.97023 7.22252 5.97586C7.24441 5.9838 7.26382 5.99738 7.27877 6.01523C7.29497 6.0349 7.30651 6.05798 7.31252 6.08273C7.32096 6.10805 7.32377 6.13898 7.32096 6.17555C7.32093 6.20425 7.31618 6.23276 7.3069 6.25992C7.29565 6.28805 7.27877 6.31055 7.25908 6.32742C7.2427 6.34092 7.22347 6.35054 7.20283 6.35555C7.18596 6.36117 7.16065 6.36117 7.13252 6.36117L6.98346 6.35273L7.00315 5.95898Z" fill="#309E3A"/>
<path d="M7.07906 6.0293L7.065 6.29086H7.17188C7.18594 6.29086 7.19719 6.28523 7.20563 6.2768C7.21407 6.26836 7.2225 6.25711 7.22813 6.24023C7.23375 6.22336 7.23938 6.19805 7.23938 6.16711L7.23656 6.0968C7.23255 6.08197 7.2248 6.06841 7.21407 6.05742C7.20472 6.04803 7.19309 6.04124 7.18032 6.03773C7.15905 6.033 7.1374 6.03018 7.11563 6.0293H7.07906Z" fill="white"/>
<path d="M8.9325 6.6618L9.02531 6.2793L9.14906 6.30742L9.23906 6.33555C9.25874 6.3468 9.27562 6.36367 9.28406 6.38898C9.29531 6.41148 9.29531 6.4368 9.28968 6.46773C9.28406 6.49023 9.27562 6.50992 9.26156 6.52398C9.25124 6.53633 9.23834 6.54626 9.22376 6.55307C9.20917 6.55987 9.19327 6.56339 9.17718 6.56336C9.15749 6.56336 9.12937 6.55773 9.09281 6.5493L9.045 6.53523L9.01124 6.68148L8.9325 6.6618Z" fill="#309E3A"/>
<path d="M9.08439 6.36377L9.06189 6.47064L9.10408 6.48189C9.1322 6.48752 9.1547 6.49314 9.16595 6.49033C9.17689 6.48881 9.18709 6.48394 9.19515 6.47639C9.20321 6.46883 9.20873 6.45897 9.21095 6.44814C9.21095 6.43408 9.21095 6.42283 9.20533 6.41158C9.19916 6.40015 9.18922 6.39121 9.1772 6.38627L9.12376 6.37221L9.0872 6.36377H9.08439Z" fill="white"/>
<path d="M9.2981 6.77164L9.43028 6.40039L9.58497 6.45664C9.62716 6.4707 9.65247 6.48477 9.66935 6.49602C9.68341 6.51008 9.69466 6.52414 9.69747 6.54664C9.70028 6.56914 9.7031 6.58883 9.69747 6.61133C9.68622 6.63945 9.66935 6.65914 9.64685 6.6732C9.62435 6.68445 9.59622 6.68727 9.56247 6.68164C9.57372 6.6957 9.58497 6.70977 9.5906 6.72664L9.6131 6.80258L9.62997 6.88977L9.54278 6.85883L9.51466 6.75758C9.50955 6.73468 9.50297 6.71213 9.49497 6.69008C9.49124 6.68133 9.48545 6.67361 9.4781 6.66758C9.47247 6.65914 9.46122 6.65352 9.44153 6.64789L9.42747 6.64227L9.37122 6.79977L9.2981 6.77164Z" fill="#309E3A"/>
<path d="M9.44996 6.58305L9.50339 6.60273C9.53996 6.6168 9.56246 6.62242 9.57371 6.62242C9.58214 6.62242 9.59058 6.62242 9.59902 6.61398C9.60746 6.60836 9.61308 6.59992 9.61589 6.58867C9.62152 6.57742 9.62152 6.56617 9.61589 6.55492C9.61173 6.54402 9.60373 6.53502 9.59339 6.52961L9.53714 6.50992L9.48089 6.49023L9.44714 6.58305H9.44996Z" fill="white"/>
<path d="M9.75937 6.75734C9.76904 6.72441 9.78531 6.69379 9.80718 6.66734C9.82141 6.65037 9.83855 6.63609 9.85781 6.62516C9.87524 6.61531 9.89429 6.60864 9.91406 6.60547C9.94218 6.60547 9.97031 6.60547 10.0012 6.61672C10.0264 6.62294 10.0499 6.63443 10.0703 6.65043C10.0906 6.66643 10.1074 6.68658 10.1194 6.70953C10.1419 6.75453 10.1419 6.80797 10.125 6.86984C10.1111 6.923 10.0767 6.9685 10.0294 6.99641C9.98718 7.02172 9.93656 7.02453 9.88312 7.00766C9.85805 7.00127 9.83459 6.98972 9.81425 6.97373C9.79391 6.95775 9.77713 6.93769 9.765 6.91484C9.75373 6.89026 9.74743 6.86368 9.74647 6.83665C9.7455 6.80963 9.74989 6.78267 9.75937 6.75734Z" fill="#309E3A"/>
<path d="M9.83813 6.77976C9.82688 6.82195 9.82407 6.85851 9.83813 6.88664C9.8522 6.91476 9.87189 6.93164 9.90282 6.94289C9.93095 6.95132 9.95907 6.94851 9.9872 6.93164C10.0153 6.91757 10.0322 6.88664 10.0463 6.84164C10.0603 6.79945 10.0603 6.7657 10.0463 6.73757C10.0407 6.72423 10.0323 6.71227 10.0216 6.70255C10.0109 6.69283 9.9982 6.68558 9.98438 6.68132C9.97055 6.67655 9.95584 6.67483 9.94127 6.67628C9.9267 6.67774 9.91263 6.68234 9.90001 6.68976C9.87188 6.70664 9.8522 6.73476 9.83813 6.77976Z" fill="white"/>
<path d="M10.5272 7.30578L10.7072 6.95703L10.8562 7.03297C10.8843 7.04645 10.91 7.06451 10.9322 7.08641C10.9462 7.10047 10.9547 7.11734 10.9547 7.13984C10.9547 7.16234 10.9547 7.18203 10.9434 7.20172C10.9326 7.22701 10.9125 7.24716 10.8872 7.25797C10.859 7.26359 10.8309 7.26359 10.8 7.25234C10.8112 7.26922 10.8168 7.28609 10.8225 7.30016C10.8281 7.31703 10.8309 7.34234 10.8337 7.37891L10.8393 7.46891L10.755 7.42672L10.7437 7.32266C10.7424 7.29906 10.7396 7.27558 10.7353 7.25234C10.7334 7.24182 10.7285 7.23207 10.7212 7.22422L10.6875 7.20453L10.6734 7.19609L10.5975 7.34234L10.5272 7.30578Z" fill="#309E3A"/>
<path d="M10.7015 7.1398L10.755 7.16793C10.7887 7.1848 10.8112 7.19605 10.8197 7.19605C10.8281 7.19605 10.8394 7.19605 10.8478 7.19043C10.8562 7.18762 10.8619 7.17918 10.8675 7.16793C10.8731 7.15668 10.8759 7.14543 10.8731 7.13418C10.8696 7.12298 10.8627 7.11315 10.8534 7.10605C10.837 7.09595 10.8201 7.08657 10.8028 7.07793L10.7465 7.0498L10.7015 7.1398Z" fill="white"/>
<path d="M11.9841 8.02588C12.0023 7.99696 12.0262 7.97207 12.0544 7.95275C12.0733 7.94064 12.0943 7.93207 12.1163 7.92744C12.1367 7.92327 12.1577 7.92327 12.1782 7.92744C12.2063 7.93307 12.2316 7.94432 12.2569 7.96119C12.2788 7.97483 12.2976 7.99287 12.3121 8.01418C12.3267 8.03549 12.3366 8.05958 12.3413 8.08494C12.3497 8.13275 12.3357 8.18619 12.3019 8.23963C12.2737 8.28611 12.2282 8.31949 12.1753 8.33244C12.1502 8.33788 12.1241 8.33794 12.0989 8.33261C12.0737 8.32727 12.0499 8.31667 12.0291 8.3015C12.0072 8.28787 11.9884 8.26982 11.9739 8.24852C11.9593 8.22721 11.9494 8.20311 11.9447 8.17775C11.9363 8.12713 11.9503 8.0765 11.9841 8.02588Z" fill="#309E3A"/>
<path d="M12.0544 8.07101C12.0262 8.10757 12.0178 8.14132 12.0234 8.17226C12.0255 8.1865 12.0306 8.20014 12.0384 8.21227C12.0461 8.22439 12.0564 8.23472 12.0684 8.24257C12.0966 8.26226 12.1247 8.26788 12.1528 8.25945C12.1809 8.25101 12.2091 8.23132 12.2344 8.19195C12.2597 8.15257 12.2709 8.11882 12.2653 8.0907C12.2625 8.06257 12.2456 8.03726 12.2203 8.01757C12.195 7.99788 12.1641 7.99507 12.1359 8.00351C12.1078 8.00913 12.0797 8.03163 12.0516 8.07101H12.0544Z" fill="white"/>
<path d="M8.4881 6.5017L8.55279 6.22607L8.75529 6.27389L8.74685 6.31889L8.59779 6.28514L8.58372 6.34701L8.72154 6.37795L8.71029 6.42576L8.57247 6.39201L8.5556 6.46795L8.71029 6.50451L8.69904 6.54951L8.4881 6.5017Z" fill="#309E3A"/>
</svg>
