<svg width="18" height="15" viewBox="0 0 18 15" fill="none" xmlns="http://www.w3.org/2000/svg">
<g clip-path="url(#clip0_33_2128)">
<path d="M0 9.75H18V14.25H0V9.75Z" fill="black"/>
<path d="M0 5.25H18V9.75H0V5.25Z" fill="white"/>
<path d="M0 0.75H18V5.25H0V0.75Z" fill="#CE1126"/>
<path d="M8.57725 7.92803L10.1185 9.35903L10.0083 6.76028C9.9925 6.36653 9.6505 6.45653 9.40075 6.59828C9.151 6.76028 8.86075 6.76028 8.55925 6.65453C8.2555 6.76028 7.9675 6.76028 7.71775 6.59828C7.47025 6.45653 7.126 6.36653 7.11025 6.76028L7 9.35903L8.57725 7.92803Z" fill="white" stroke="#C09300" stroke-width="1.04" stroke-linejoin="round"/>
<path d="M7.288 6.67041L7.18 9.19716L7 9.35916L7.11025 6.76041C7.1634 6.71964 7.22368 6.68913 7.288 6.67041ZM7.504 6.85041L7.414 8.96541L7.234 9.14991L7.342 6.70866C7.378 6.74466 7.48375 6.83241 7.504 6.85041ZM7.69975 7.01241L7.63 8.77641L7.48375 8.91816L7.57375 6.90666C7.60975 6.94041 7.68175 6.99216 7.69975 7.01241ZM7.9135 7.10241L7.84375 8.60541L7.702 8.72016L7.77175 7.04841C7.80775 7.06416 7.8775 7.10241 7.9135 7.10241ZM8.1115 7.10241L8.05975 8.35566L7.9135 8.49741L7.96975 7.11816C8.0035 7.11816 8.09575 7.11816 8.1115 7.10241Z" fill="#C09300"/>
<path d="M9.83053 6.67041L9.93853 9.19716L10.1185 9.35916L10.0083 6.76041C9.95513 6.71964 9.89485 6.68913 9.83053 6.67041ZM9.61453 6.85041L9.70453 8.96541L9.88453 9.14991L9.77653 6.70866C9.74053 6.74466 9.63478 6.83241 9.61453 6.85041ZM9.41878 7.01241L9.48853 8.77641L9.63478 8.91816L9.54478 6.90666C9.50878 6.94041 9.43678 6.99216 9.41878 7.01241ZM9.20503 7.10241L9.27478 8.60541L9.41653 8.72016L9.34678 7.04841C9.31078 7.06416 9.24103 7.10241 9.20503 7.10241ZM9.00703 7.10241L9.05878 8.35566L9.20503 8.49741L9.14878 7.11816C9.11503 7.11816 9.02278 7.11816 9.00703 7.10241Z" fill="#C09300"/>
<path d="M8.63124 8.21143L8.84724 9.19693L8.77524 9.26893L8.70099 9.21268L8.57949 8.33518L8.63124 9.21268L8.55924 9.30268L8.48949 9.21268L8.54124 8.33518L8.41749 9.21268L8.34324 9.26893L8.27124 9.19693L8.48724 8.21368H8.63124V8.21143Z" fill="#C09300" stroke="#C09300" stroke-width="0.88"/>
<path d="M8.0755 7.77979L7.64575 9.30304L8.2375 9.39304L8.48725 8.24779L8.0755 7.77979Z" fill="white" stroke="#C09300" stroke-width="0.96" stroke-linejoin="round"/>
<path d="M7.93378 8.30191L7.98553 8.42566L8.26453 8.16016" stroke="#C09300" stroke-width="1.04" stroke-linejoin="round"/>
<path d="M8.12728 7.98682L8.18578 8.53357L8.36353 8.29957M8.29153 8.38957L8.38828 8.72707M8.42653 8.60332L8.23078 8.90032M8.29153 9.19732L8.22853 8.90032M8.22853 8.90032L8.17453 8.59882L8.04178 8.77657L7.98553 8.57182L7.80103 8.76082L7.89328 9.10282L8.02378 8.89132L8.09353 9.10732L8.22853 8.90032Z" stroke="#C09300" stroke-width="1.04" stroke-linejoin="round"/>
<path d="M7.77173 9.26934L7.89098 9.10059L7.96748 9.35934L8.07548 9.17934L8.14523 9.39534" stroke="#C09300" stroke-width="1.04" stroke-linejoin="round"/>
<path d="M9.04303 7.77979L9.47278 9.30304L8.88103 9.39304L8.63128 8.24779L9.04303 7.77979Z" fill="white" stroke="#C09300" stroke-width="0.96" stroke-linejoin="round"/>
<path d="M9.18475 8.30191L9.133 8.42566L8.854 8.16016" stroke="#C09300" stroke-width="1.04" stroke-linejoin="round"/>
<path d="M8.99125 7.98682L8.93275 8.53357L8.755 8.29957M8.827 8.38957L8.73025 8.72707M8.692 8.60332L8.88775 8.90032M8.827 9.19732L8.89 8.90032M8.89 8.90032L8.944 8.59882L9.07675 8.77657L9.133 8.57182L9.3175 8.76082L9.22525 9.10282L9.09475 8.89132L9.025 9.10732L8.89 8.90032Z" stroke="#C09300" stroke-width="1.04" stroke-linejoin="round"/>
<path d="M9.3468 9.26934L9.22755 9.10059L9.15105 9.35934L9.04305 9.17934L8.9733 9.39534" stroke="#C09300" stroke-width="1.04" stroke-linejoin="round"/>
<path d="M8.55925 9.98445C9.00925 9.98445 9.43675 9.94845 9.68875 9.8787C9.7945 9.85845 9.7945 9.80445 9.7945 9.73245C9.9025 9.69645 9.8485 9.57045 9.92275 9.57045C9.84625 9.59295 9.83275 9.4467 9.74275 9.4647C9.74275 9.3387 9.6145 9.32295 9.50875 9.35895C9.295 9.4287 8.917 9.4467 8.55925 9.4467C8.19925 9.4287 7.82575 9.4287 7.60975 9.3567C7.504 9.32295 7.378 9.3387 7.378 9.4647C7.288 9.4467 7.27225 9.5907 7.198 9.57045C7.27225 9.57045 7.216 9.6987 7.324 9.73245C7.324 9.80445 7.324 9.85845 7.432 9.8787C7.6795 9.94845 8.1115 9.98445 8.55925 9.98445Z" fill="white" stroke="#C09300" stroke-width="1.92" stroke-linecap="round" stroke-linejoin="round"/>
<path d="M7.9495 9.30263C8.0935 9.32288 8.2555 9.33863 8.3815 9.32288C8.4535 9.32288 8.50525 9.44663 8.36125 9.46463C8.2375 9.48038 8.0395 9.46463 7.93375 9.44663C7.79458 9.42227 7.65647 9.39224 7.51975 9.35663C7.39375 9.30263 7.48375 9.19913 7.55575 9.21263C7.6842 9.25378 7.81592 9.28389 7.9495 9.30263ZM9.169 9.30263C9.025 9.32288 8.863 9.33863 8.7415 9.32288C8.665 9.32288 8.61325 9.44663 8.75725 9.46463C8.88325 9.48038 9.079 9.46463 9.18475 9.44663C9.27475 9.42863 9.47275 9.39488 9.59875 9.35663C9.72475 9.30263 9.63475 9.19913 9.56275 9.21263C9.4343 9.25379 9.30257 9.2839 9.169 9.30263Z" fill="white" stroke="#C09300" stroke-width="1.04" stroke-linecap="round" stroke-linejoin="round"/>
<path d="M7.50172 9.23264C7.39372 9.21239 7.34422 9.33839 7.37797 9.41039C7.39372 9.37439 7.46797 9.37439 7.48372 9.33839C7.50397 9.28439 7.46797 9.28439 7.50397 9.23264H7.50172ZM7.93372 9.56339C7.93372 9.49139 8.00347 9.50039 8.00347 9.42839C8.00347 9.39464 7.98547 9.33839 7.94947 9.33839C7.93072 9.33947 7.91303 9.3474 7.89975 9.36067C7.88647 9.37395 7.87854 9.39165 7.87747 9.41039C7.86172 9.48014 7.93372 9.49139 7.93372 9.56339ZM8.44447 9.35864C8.55022 9.35864 8.53897 9.50039 8.48947 9.57239C8.48947 9.52064 8.39947 9.50039 8.39947 9.46439C8.39947 9.41039 8.48047 9.41039 8.44447 9.35864ZM9.61447 9.23264C9.72472 9.21239 9.77647 9.33839 9.74047 9.41039C9.72472 9.37439 9.65047 9.37439 9.63472 9.33839C9.61447 9.28439 9.65047 9.28439 9.61447 9.23264ZM9.18922 9.56114C9.18922 9.48914 9.11722 9.49814 9.11722 9.42614C9.11722 9.39239 9.13522 9.33614 9.17122 9.33614C9.18997 9.33722 9.20766 9.34515 9.22094 9.35842C9.23422 9.3717 9.24215 9.3894 9.24322 9.40814C9.25897 9.47789 9.18697 9.48914 9.18697 9.56114H9.18922ZM8.67172 9.35864C8.56597 9.35864 8.57722 9.50039 8.62672 9.57239C8.62672 9.52064 8.71672 9.50039 8.71672 9.46439C8.71672 9.41039 8.63572 9.41039 8.67172 9.35864Z" fill="white" stroke="#C09300" stroke-width="1.04" stroke-linecap="round" stroke-linejoin="round"/>
<path d="M7.53998 9.26904C7.57598 9.26904 7.62998 9.28479 7.64573 9.30504L7.53998 9.26904ZM7.71773 9.32304C7.73573 9.32304 7.80773 9.33879 7.84148 9.35904L7.71773 9.32304ZM8.36123 9.39504C8.32748 9.39504 8.25548 9.39504 8.23748 9.41079L8.36123 9.39279V9.39504ZM8.16548 9.39504C8.14523 9.37479 8.07548 9.37479 8.03948 9.39504H8.16548ZM9.57848 9.26904C9.5403 9.26952 9.50327 9.28213 9.47273 9.30504L9.57848 9.26904ZM9.40298 9.32304C9.38048 9.32304 9.31298 9.33879 9.27698 9.35904L9.40298 9.32304ZM8.75723 9.39504C8.79098 9.39504 8.86298 9.39504 8.88323 9.41079L8.75723 9.39279V9.39504ZM8.95298 9.39504C8.97323 9.37479 9.04298 9.37479 9.07898 9.39504H8.95298Z" fill="white" stroke="#C09300" stroke-width="0.72" stroke-linecap="round" stroke-linejoin="round"/>
<path d="M7.5085 9.55212C7.49725 9.54987 7.4905 9.53862 7.495 9.52962C7.49725 9.51387 7.5085 9.50712 7.5175 9.51162C7.5265 9.51162 7.53775 9.52512 7.53775 9.52962L7.52875 9.54537L7.52425 9.54762C7.52425 9.55212 7.51525 9.55212 7.5085 9.55212ZM8.746 9.63987C8.7415 9.63987 8.7325 9.62862 8.7325 9.62412C8.7325 9.61512 8.746 9.60162 8.755 9.60162L8.773 9.61062C8.77975 9.61737 8.77975 9.63087 8.77075 9.63762C8.76625 9.64212 8.75275 9.64212 8.746 9.63762V9.63987ZM8.75275 9.69612C8.74375 9.69162 8.7415 9.68712 8.73925 9.67812C8.73925 9.66687 8.73925 9.66462 8.7505 9.65787L8.7595 9.65337L8.7685 9.65787C8.7775 9.66237 8.78425 9.66687 8.78425 9.67587C8.78425 9.68262 8.7775 9.68937 8.7685 9.69387C8.76175 9.69837 8.7595 9.69837 8.75275 9.69387V9.69612Z" fill="#C09300"/>
<path d="M7.60974 9.44873C7.60074 9.44873 7.58949 9.45773 7.58274 9.46223C7.56924 9.46448 7.55124 9.47348 7.53774 9.46223C7.52424 9.45998 7.50624 9.46223 7.50399 9.48023C7.50624 9.49598 7.52649 9.50273 7.53999 9.49373C7.54899 9.48248 7.57374 9.47348 7.57824 9.49373C7.56699 9.51173 7.56924 9.53198 7.56024 9.54773C7.56024 9.55898 7.55349 9.56798 7.54899 9.57698C7.53774 9.57698 7.52649 9.57698 7.51749 9.58373C7.51051 9.58373 7.50362 9.58536 7.49737 9.58848C7.49112 9.59161 7.48568 9.59614 7.48149 9.60173C7.47249 9.61523 7.46349 9.62873 7.46124 9.64673C7.46349 9.66023 7.48374 9.66473 7.49724 9.66698L7.54224 9.68048L7.61424 9.70073C7.65024 9.71198 7.68624 9.71648 7.72224 9.72548L7.73349 9.72773C7.74924 9.73223 7.75599 9.71648 7.75599 9.70523L7.77849 9.62423C7.78299 9.61298 7.78974 9.59048 7.76949 9.59498C7.75824 9.60173 7.74699 9.61298 7.73349 9.61298C7.71324 9.61298 7.72449 9.63548 7.73349 9.64223C7.73349 9.65573 7.72899 9.67148 7.72224 9.68273C7.70874 9.68948 7.69524 9.68273 7.68174 9.67823C7.67049 9.67823 7.64349 9.67148 7.65474 9.65573L7.66599 9.61523C7.67274 9.60173 7.67274 9.58598 7.67724 9.57023C7.66824 9.55448 7.65474 9.57698 7.64349 9.57923C7.63449 9.58373 7.60749 9.58598 7.62099 9.60173C7.63449 9.61073 7.62549 9.62648 7.62099 9.63998C7.62099 9.65573 7.60299 9.66248 7.58949 9.65573C7.57599 9.65573 7.55574 9.64448 7.56699 9.63098L7.57824 9.59048L7.59399 9.54548C7.59399 9.52973 7.60074 9.51848 7.60749 9.50498C7.60749 9.48923 7.61874 9.47573 7.61874 9.45998C7.61874 9.45323 7.61424 9.45098 7.60974 9.45098V9.44873ZM7.52649 9.61298C7.52752 9.61239 7.52868 9.61208 7.52987 9.61208C7.53105 9.61208 7.53222 9.61239 7.53324 9.61298C7.53774 9.61748 7.53774 9.62198 7.53324 9.62648L7.52649 9.63098C7.51524 9.63098 7.51299 9.62873 7.51299 9.62423C7.51299 9.62198 7.51299 9.61973 7.51974 9.61748C7.52248 9.61551 7.52552 9.61399 7.52874 9.61298H7.52649ZM7.50399 9.72548C7.49274 9.71648 7.49499 9.70973 7.51074 9.69623C7.51974 9.69173 7.52199 9.69173 7.53099 9.69848C7.54449 9.70973 7.54449 9.71648 7.53099 9.72773C7.52649 9.73223 7.52424 9.73223 7.51974 9.73223C7.51299 9.73223 7.51074 9.73223 7.50399 9.72773V9.72548ZM7.57149 9.74798C7.56647 9.74642 7.56225 9.74296 7.55973 9.73834C7.55721 9.73372 7.55659 9.7283 7.55799 9.72323C7.56249 9.71423 7.56474 9.71198 7.57824 9.71198C7.59399 9.71198 7.59624 9.71423 7.59849 9.72773C7.59849 9.73673 7.59849 9.73898 7.59174 9.74348C7.58923 9.74547 7.58633 9.7469 7.58323 9.74767C7.58012 9.74845 7.57689 9.74855 7.57374 9.74798H7.57149ZM9.57849 9.74798C9.57399 9.74573 9.57174 9.74348 9.57174 9.73673C9.57174 9.72773 9.57624 9.72098 9.58974 9.71648C9.60324 9.70973 9.61224 9.70973 9.61674 9.72098C9.62349 9.73448 9.62349 9.73898 9.61449 9.74798C9.60999 9.75473 9.60774 9.75473 9.59649 9.75473C9.58524 9.75473 9.58299 9.75473 9.57849 9.75023V9.74798ZM7.66599 9.77498C7.65699 9.77498 7.65249 9.76598 7.65249 9.75698C7.65249 9.75023 7.65249 9.74798 7.65699 9.74348L7.67049 9.73898L7.68399 9.74123C7.69524 9.75023 7.69749 9.75923 7.69074 9.76823C7.68399 9.77723 7.67724 9.77723 7.66374 9.77498H7.66599ZM8.15649 9.79748L8.15199 9.79073C8.15199 9.77723 8.15199 9.76598 8.15649 9.75248C8.15874 9.74123 8.15649 9.72998 8.16099 9.71873L8.16999 9.65573C8.16999 9.64448 8.16999 9.63323 8.17449 9.62423C8.17674 9.60623 8.17449 9.59048 8.17899 9.57473C8.17899 9.56798 8.18574 9.55223 8.19249 9.56123C8.20149 9.57473 8.21274 9.58373 8.22399 9.59498C8.23299 9.60173 8.22399 9.61073 8.21724 9.61298C8.20824 9.61523 8.20599 9.62648 8.20599 9.63548L8.20149 9.66248C8.20149 9.67823 8.20149 9.69173 8.19699 9.70748L8.19474 9.74798L8.19024 9.77498C8.19024 9.78398 8.19024 9.79523 8.18124 9.79973C8.17449 9.80423 8.16324 9.80423 8.15874 9.79748H8.15649ZM8.82474 9.57698L8.79549 9.60398C8.78199 9.61523 8.80674 9.61973 8.80899 9.62873C8.81349 9.64223 8.81349 9.65573 8.81349 9.66923C8.81799 9.68273 8.82024 9.69398 8.81799 9.70748C8.81799 9.72323 8.79999 9.71873 8.79099 9.72773C8.77974 9.73223 8.77524 9.74348 8.76849 9.75023C8.76314 9.76152 8.76008 9.77375 8.75949 9.78623C8.75949 9.79748 8.75274 9.80873 8.75949 9.81773L8.76174 9.82223H8.77299L8.80674 9.81998C8.83374 9.81548 8.86299 9.81548 8.88999 9.81323L8.93949 9.80873C8.95299 9.81098 8.95974 9.79748 8.95974 9.78623C8.95074 9.77048 8.95749 9.75473 8.95074 9.74123C8.94624 9.72323 8.94849 9.70748 8.94624 9.69173C8.94624 9.67823 8.93049 9.67373 8.92374 9.68273C8.91474 9.69173 8.90124 9.69398 8.89674 9.70298C8.88999 9.71648 8.91024 9.71648 8.91474 9.72548L8.91699 9.75923C8.91924 9.77273 8.90574 9.77273 8.89449 9.77498C8.88324 9.77948 8.86749 9.78173 8.86074 9.76823C8.85624 9.75698 8.85624 9.74573 8.85624 9.73448C8.85624 9.71198 8.84949 9.69398 8.84949 9.67373C8.84949 9.65123 8.84274 9.62648 8.84274 9.60173C8.84274 9.59048 8.84049 9.57473 8.82474 9.57698ZM8.81124 9.76148H8.81799V9.77948L8.81124 9.78173C8.80829 9.78267 8.80529 9.78342 8.80224 9.78398C8.80074 9.78404 8.79924 9.78404 8.79774 9.78398C8.79324 9.77948 8.79324 9.77273 8.79999 9.76598L8.81124 9.76148ZM8.13624 9.55448C8.12949 9.55448 8.11824 9.57023 8.10924 9.56798C8.08899 9.57023 8.09124 9.59048 8.10699 9.59723V9.61523C8.10924 9.63323 8.09799 9.64898 8.10024 9.66698C8.10024 9.68498 8.09349 9.70523 8.09349 9.72548C8.08674 9.74573 8.08674 9.76598 8.08449 9.78623C8.08224 9.80423 8.06874 9.79748 8.05749 9.79298V9.77048C8.05974 9.75023 8.04624 9.74573 8.03049 9.74348C8.01474 9.74348 8.00799 9.73223 8.01249 9.71873C8.01924 9.70973 8.03499 9.71198 8.04624 9.71198C8.06874 9.71648 8.06649 9.68723 8.05524 9.67598C8.04624 9.66248 8.02824 9.65348 8.02374 9.63998C8.02374 9.62198 8.01249 9.60173 7.99674 9.59273C7.97199 9.59048 7.95174 9.61073 7.94499 9.63323C7.93374 9.63323 7.92249 9.63773 7.91349 9.64223C7.89774 9.64673 7.87524 9.67373 7.89774 9.68498C7.90899 9.68723 7.94724 9.69623 7.92924 9.71198C7.92024 9.72998 7.90224 9.72998 7.88649 9.72548C7.87074 9.72548 7.85274 9.71648 7.85274 9.69848C7.85049 9.68048 7.85049 9.66248 7.84374 9.64673C7.83924 9.62873 7.81899 9.63323 7.81674 9.65123C7.80099 9.66248 7.80324 9.68273 7.81449 9.69623C7.82124 9.71198 7.81449 9.73223 7.80774 9.74573C7.80324 9.76823 7.78074 9.76823 7.76499 9.77273C7.75824 9.77723 7.72899 9.77273 7.74024 9.78848C7.75711 9.79625 7.77598 9.79861 7.79424 9.79523C7.81224 9.79523 7.82799 9.77948 7.83924 9.76373C7.85049 9.75248 7.87074 9.75923 7.88874 9.75923C7.90449 9.75923 7.92249 9.77048 7.94049 9.76148C7.94499 9.75023 7.96749 9.72773 7.97424 9.75023C7.97424 9.77048 7.98999 9.77948 8.00799 9.77723C8.02824 9.77723 8.01924 9.79073 8.01924 9.80423C8.01924 9.82448 8.03499 9.83573 8.05299 9.84473H8.07099C8.08674 9.83798 8.10474 9.83123 8.11149 9.81323C8.11824 9.79748 8.11824 9.77948 8.12274 9.76373C8.12724 9.73898 8.13174 9.71198 8.13174 9.68723C8.13849 9.66473 8.13624 9.63998 8.14074 9.61523L8.14749 9.56348C8.14749 9.55223 8.14299 9.55223 8.13624 9.55448ZM7.98549 9.64673C7.98774 9.64673 7.98999 9.65123 7.98999 9.65798C7.98999 9.66698 7.99449 9.67373 8.00124 9.67598V9.68273L7.98324 9.68723C7.97199 9.68723 7.96299 9.68273 7.95624 9.67598L7.95174 9.67148L7.95849 9.66698L7.96974 9.65573C7.97649 9.64898 7.98099 9.64673 7.98549 9.64673ZM9.47049 9.46898C9.45754 9.46991 9.44473 9.47217 9.43224 9.47573C9.40974 9.47573 9.39849 9.49823 9.42099 9.51173C9.43449 9.54548 9.45474 9.50273 9.47724 9.50723C9.50874 9.51173 9.51099 9.54773 9.51774 9.57473C9.51774 9.59948 9.52674 9.62423 9.53349 9.64898C9.55599 9.67373 9.51774 9.68948 9.50199 9.67148C9.48849 9.65573 9.45699 9.63773 9.44124 9.65798C9.42099 9.66698 9.41874 9.69398 9.40299 9.70298C9.37599 9.70973 9.37374 9.67598 9.35799 9.66248C9.34449 9.64223 9.31974 9.63998 9.29949 9.63548C9.29049 9.61523 9.29499 9.58148 9.27699 9.56798C9.25899 9.57473 9.22749 9.60623 9.25449 9.62198C9.27699 9.64448 9.24324 9.65348 9.23199 9.66698C9.21399 9.68723 9.20949 9.71198 9.20949 9.73448C9.18024 9.75023 9.17574 9.71648 9.17124 9.69623C9.17124 9.67148 9.14874 9.67823 9.13299 9.68723C9.11049 9.69623 9.10149 9.71648 9.08799 9.73223V9.77723C9.09249 9.79748 9.11499 9.78848 9.12849 9.78623C9.15099 9.77723 9.15999 9.80198 9.14199 9.81548C9.12849 9.82898 9.09249 9.82223 9.09699 9.84698H9.13299C9.15549 9.84023 9.18249 9.82223 9.18474 9.79523C9.18924 9.77273 9.22299 9.77498 9.24099 9.77048C9.26349 9.76373 9.29274 9.76148 9.29949 9.79298C9.31524 9.80873 9.34899 9.82673 9.36699 9.80423C9.37556 9.7988 9.38243 9.79107 9.38681 9.78191C9.39118 9.77276 9.3929 9.76256 9.39174 9.75248C9.38949 9.73448 9.42099 9.73448 9.42999 9.74573C9.44124 9.76373 9.47724 9.75923 9.49524 9.74573C9.51324 9.73448 9.51774 9.70973 9.54474 9.70973L9.66624 9.67598C9.69774 9.66923 9.66174 9.64898 9.65274 9.63548C9.63024 9.62423 9.60774 9.67373 9.58074 9.64898C9.55824 9.63323 9.56049 9.60398 9.55374 9.57923C9.54699 9.54773 9.54924 9.51173 9.52674 9.48923C9.51324 9.47348 9.49074 9.46898 9.47049 9.46898ZM9.31749 9.68273C9.31974 9.68273 9.32424 9.68273 9.32874 9.68723C9.33774 9.69173 9.34449 9.70073 9.34449 9.70973C9.34449 9.71423 9.34449 9.71423 9.33774 9.71648L9.32649 9.72098C9.32199 9.72098 9.31074 9.71423 9.31074 9.70973V9.70073C9.30624 9.69173 9.30624 9.69173 9.31074 9.68723L9.31749 9.68273ZM9.46374 9.69173C9.47274 9.69173 9.47724 9.69173 9.48174 9.69848C9.48399 9.70748 9.48174 9.71198 9.47274 9.71648L9.46149 9.72098L9.45249 9.71423C9.44799 9.71198 9.44574 9.70973 9.44574 9.70523C9.44574 9.69848 9.45474 9.69173 9.46374 9.68948V9.69173ZM9.26124 9.69173C9.26574 9.69173 9.26799 9.69173 9.27024 9.69623C9.27474 9.70073 9.27699 9.70298 9.27699 9.70973V9.72323C9.27699 9.72998 9.27699 9.72773 9.26349 9.72773C9.24999 9.72773 9.24774 9.72773 9.24774 9.71423C9.24774 9.70523 9.24774 9.70298 9.25449 9.69848C9.25674 9.69398 9.26124 9.69398 9.26349 9.69398L9.26124 9.69173ZM9.13974 9.72548C9.14187 9.72612 9.1438 9.72728 9.14537 9.72885C9.14694 9.73042 9.1481 9.73236 9.14874 9.73448C9.14874 9.74123 9.14874 9.74573 9.14424 9.74798C9.13749 9.75023 9.12624 9.75248 9.12174 9.74798C9.12168 9.74723 9.12168 9.74648 9.12174 9.74573C9.11724 9.74348 9.11724 9.74123 9.12174 9.73898V9.73673L9.12624 9.72998C9.12763 9.72779 9.12973 9.72615 9.13219 9.72533C9.13465 9.72451 9.13732 9.72456 9.13974 9.72548ZM9.34674 9.75248L9.35799 9.75473V9.76823H9.33099L9.32874 9.76373C9.32874 9.75923 9.32874 9.75698 9.33324 9.75473L9.34674 9.75248ZM8.96199 9.86048C8.95974 9.86048 8.95524 9.85823 8.95974 9.85598C8.96199 9.84923 8.97099 9.84698 8.97774 9.84248C8.99 9.83781 9.00085 9.83006 9.00924 9.81998C9.00924 9.81098 9.01824 9.80648 9.01824 9.79748L9.01599 9.76598C9.01295 9.75653 9.00655 9.74852 8.99799 9.74348C8.99124 9.74123 8.98224 9.73898 8.97999 9.72998C8.97999 9.72323 8.98674 9.71648 8.98899 9.70973L9.00249 9.68273C9.00924 9.67598 9.01824 9.68273 9.02049 9.68723L9.03174 9.70973C9.03849 9.71648 9.04299 9.72323 9.04524 9.73223C9.04974 9.74123 9.05424 9.74798 9.05424 9.75473L9.05874 9.78398C9.05874 9.79523 9.05874 9.80873 9.05424 9.81998L9.04074 9.83798C9.03399 9.84473 9.02724 9.85148 9.01824 9.85373C9.01149 9.85598 9.00699 9.86273 8.99799 9.86273H8.96424L8.96199 9.86048ZM8.80674 9.86948C8.80224 9.86498 8.79999 9.86273 8.79999 9.85598C8.79999 9.84923 8.79999 9.84923 8.80674 9.84248C8.81574 9.83348 8.82024 9.83348 8.83824 9.84248C8.85399 9.85148 8.86074 9.85148 8.86074 9.84473C8.86299 9.84023 8.87199 9.83348 8.88324 9.83348C8.8874 9.83364 8.89138 9.83523 8.89449 9.83798C8.89899 9.84248 8.90124 9.84473 8.90124 9.85373C8.90124 9.86498 8.90124 9.86498 8.89449 9.87173C8.88774 9.87623 8.88774 9.87623 8.87874 9.87623C8.87474 9.87601 8.8709 9.87461 8.86769 9.87221C8.86449 9.86981 8.86207 9.86651 8.86074 9.86273C8.86074 9.85823 8.86074 9.85598 8.85624 9.86048L8.85174 9.86273C8.84724 9.86273 8.83824 9.86948 8.83374 9.87398L8.82249 9.87623C8.81349 9.87623 8.81349 9.87623 8.80674 9.86948ZM8.36124 9.66923C8.34549 9.66923 8.32974 9.68273 8.32749 9.69848C8.33199 9.71423 8.34549 9.73223 8.33649 9.74798C8.34324 9.77048 8.31849 9.77948 8.30274 9.76823C8.29374 9.74573 8.28924 9.72323 8.27349 9.70073C8.25549 9.69623 8.24874 9.72548 8.23524 9.73673C8.24199 9.75248 8.25999 9.76823 8.26224 9.78848C8.26674 9.81098 8.25324 9.83348 8.23749 9.84248C8.22174 9.85823 8.19924 9.85373 8.18124 9.85598C8.15874 9.86948 8.19699 9.87398 8.20824 9.87398C8.23074 9.87623 8.25549 9.87398 8.27574 9.85598C8.29149 9.84923 8.28924 9.81773 8.30949 9.81548L8.41749 9.82223C8.43549 9.82673 8.46474 9.81998 8.47824 9.83348C8.47824 9.85598 8.50074 9.87398 8.52099 9.88298C8.53224 9.88748 8.54349 9.87173 8.55474 9.86948C8.57724 9.86273 8.57049 9.83573 8.58399 9.82448H8.69649C8.70099 9.82448 8.70324 9.81323 8.70999 9.80873L8.70549 9.76598C8.69874 9.74798 8.70549 9.72548 8.69424 9.70973C8.67399 9.70523 8.65824 9.72098 8.64024 9.72323C8.61774 9.73223 8.60199 9.75248 8.59974 9.77498C8.58849 9.79523 8.56824 9.77048 8.57724 9.75248L8.57499 9.72998C8.56374 9.71873 8.54349 9.72323 8.52774 9.72098L8.46024 9.71648C8.43774 9.71648 8.41749 9.71873 8.39949 9.71423C8.37699 9.71423 8.37699 9.69173 8.37699 9.67373C8.37249 9.6703 8.36687 9.6687 8.36124 9.66923ZM8.40624 9.75248L8.42874 9.75473H8.45799C8.48049 9.75923 8.50299 9.75923 8.52549 9.75923C8.52999 9.75923 8.53449 9.76373 8.53899 9.76823V9.81323C8.53899 9.81998 8.53899 9.82898 8.53449 9.83123C8.53331 9.83302 8.53178 9.83455 8.52999 9.83573C8.5267 9.83515 8.52357 9.83383 8.52085 9.83189C8.51812 9.82994 8.51587 9.82741 8.51424 9.82448V9.79298C8.50978 9.78921 8.5043 9.78686 8.49849 9.78623L8.43999 9.78398L8.39499 9.78173C8.38824 9.77948 8.37924 9.78173 8.37474 9.77273C8.37024 9.76823 8.37699 9.75923 8.38374 9.75698C8.39081 9.75382 8.3985 9.75228 8.40624 9.75248ZM8.66049 9.75923C8.66274 9.75923 8.66499 9.75923 8.66499 9.76598L8.66949 9.77723C8.66949 9.77948 8.66949 9.78173 8.66499 9.78173C8.65374 9.78623 8.64249 9.78623 8.63799 9.78173C8.63799 9.77948 8.63799 9.77048 8.64249 9.76823L8.66049 9.75923Z" fill="#C09300"/>
<path d="M8.55925 8.48615C9.29275 7.92365 9.22975 7.09565 9.22975 7.09565L9.1735 7.10015C9.01825 7.10015 8.6515 7.01015 8.566 6.8999C8.476 7.00115 8.098 7.1024 7.945 7.1024L7.88875 7.09565C7.88875 7.09565 7.8235 7.9214 8.55925 8.48615Z" fill="white" stroke="#C09300" stroke-width="0.88"/>
<path d="M9.17127 7.15431H9.15327C9.01377 7.15431 8.68977 7.08456 8.56377 6.97656C8.43327 7.07556 8.10252 7.15656 7.96527 7.15656C7.95921 7.15633 7.95319 7.15558 7.94727 7.15431C7.9485 7.2965 7.96816 7.43793 8.00577 7.57506C8.09601 7.90545 8.29005 8.19809 8.55927 8.40981C8.82864 8.19729 9.02266 7.90389 9.11277 7.57281C9.15018 7.43641 9.16984 7.29575 9.17127 7.15431Z" fill="white" stroke="#C09300" stroke-width="0.72"/>
<path d="M8.32077 7.08672C8.19991 7.12608 8.07425 7.14879 7.94727 7.15422L7.94952 7.24647C7.9572 7.35684 7.97605 7.46615 8.00577 7.57272C8.06625 7.79401 8.17369 7.99967 8.32077 8.17572V7.08672ZM8.78427 7.08672V8.19372C8.93843 8.01362 9.05063 7.80151 9.11277 7.57272C9.14246 7.46614 9.1613 7.35684 9.16902 7.24647L9.17127 7.15647H9.15327C9.06777 7.15647 8.91927 7.12947 8.78427 7.08447V7.08672Z" fill="#C09300"/>
<path d="M8.83601 6.81659C8.85176 6.81884 8.81576 6.73784 8.81576 6.73784C8.85626 6.77834 9.00476 6.78959 9.00476 6.78959C8.91476 6.74909 8.82476 6.44984 8.83601 6.20909C8.84501 5.97059 8.80226 5.87609 8.76851 5.84009C8.72351 5.79509 8.57726 5.75459 8.48276 5.75009C8.42651 5.74784 8.43776 5.79059 8.43776 5.79059C8.33651 5.76584 8.23526 5.75459 8.19026 5.78609C8.14976 5.81309 8.14076 5.95484 8.17226 5.93009C8.24651 5.86934 8.31176 5.92559 8.35676 5.99084C8.39726 6.04709 8.39501 6.20909 8.33651 6.40034C8.28471 6.54492 8.20862 6.6796 8.11151 6.79859C8.20151 6.79859 8.32751 6.71984 8.32751 6.71984L8.29826 6.84359C8.39276 6.79859 8.46701 6.72884 8.46701 6.72884L8.55701 6.82334C8.58626 6.78284 8.64701 6.72884 8.64701 6.72884C8.64701 6.72884 8.72126 6.80759 8.83601 6.81884V6.81659Z" fill="white" stroke="#C09300" stroke-width="0.96"/>
<path d="M8.47151 6.24514C8.47151 6.24514 8.42201 6.61414 8.32751 6.71764M8.55251 6.23389C8.55251 6.23389 8.53001 6.60964 8.46701 6.72889M8.62226 6.24964C8.62226 6.24964 8.62226 6.65914 8.64476 6.72889M8.71226 6.26989C8.71226 6.26989 8.73026 6.61414 8.81576 6.73789" stroke="#C09300" stroke-width="1.04"/>
<path d="M8.37924 6.06522C8.37723 6.03913 8.36955 6.01379 8.35674 5.99097C8.31174 5.92347 8.24649 5.86947 8.17224 5.93022C8.17224 5.93022 8.19699 5.85147 8.25324 5.84922C8.29374 5.84697 8.39049 5.88072 8.47599 6.02472C8.47599 6.02472 8.41299 6.01122 8.39724 6.02472C8.37024 6.04722 8.38149 6.06522 8.38149 6.06522H8.37924Z" fill="#C09300" stroke="#C09300" stroke-width="0.24"/>
<path d="M8.16327 5.83334C8.17002 5.81084 8.17902 5.79284 8.19252 5.78609C8.23752 5.75459 8.33652 5.76359 8.43777 5.79059C8.43777 5.79059 8.42877 5.74784 8.48277 5.75009C8.57727 5.75459 8.72127 5.79509 8.76627 5.84009C8.78068 5.85591 8.79211 5.8742 8.80002 5.89409C8.77752 5.86259 8.71452 5.86484 8.69877 5.86709C8.67627 5.86934 8.66052 5.86709 8.62902 5.87609C8.61327 5.88059 8.59077 5.88509 8.57727 5.89409C8.56827 5.90309 8.55927 5.93009 8.54577 5.93009C8.52327 5.93009 8.52327 5.92559 8.51652 5.91884C8.50977 5.90759 8.50527 5.89409 8.49627 5.89634C8.47377 5.89859 8.43327 5.88059 8.38377 5.84009C8.33202 5.79959 8.31177 5.79059 8.24877 5.79509C8.18127 5.79959 8.16327 5.83784 8.16327 5.83784V5.83334Z" fill="#C09300" stroke="#C09300" stroke-width="0.24"/>
<path d="M8.53225 5.89189C8.54716 5.89189 8.55925 5.8798 8.55925 5.86489C8.55925 5.84998 8.54716 5.83789 8.53225 5.83789C8.51734 5.83789 8.50525 5.84998 8.50525 5.86489C8.50525 5.8798 8.51734 5.89189 8.53225 5.89189Z" fill="white"/>
</g>
<defs>
<clipPath id="clip0_33_2128">
<rect width="18" height="13.5" fill="white" transform="translate(0 0.75)"/>
</clipPath>
</defs>
</svg>
