<svg width="18" height="13" viewBox="0 0 18 13" fill="none" xmlns="http://www.w3.org/2000/svg">
<g clip-path="url(#clip0_33_1937)">
<path d="M0 0H18V13H0V0Z" fill="#012169"/>
<path d="M2.10938 0L8.97188 4.90208L15.8062 0H18V1.67917L11.25 6.52708L18 11.3479V13H15.75L9 8.15208L2.27813 13H0V11.375L6.72187 6.55417L0 1.73333V0H2.10938Z" fill="white"/>
<path d="M11.925 7.61042L18 11.9167V13L10.3781 7.61042H11.925ZM6.75 8.15208L6.91875 9.1L1.51875 13H0L6.75 8.15208ZM18 0V0.08125L10.9969 5.17292L11.0531 3.98125L16.5938 0H18ZM0 0L6.72187 4.76667H5.03437L0 1.1375V0Z" fill="#C8102E"/>
<path d="M6.77812 0V13H11.2781V0H6.77812ZM0 4.33333V8.66667H18V4.33333H0Z" fill="white"/>
<path d="M0 5.22708V7.82708H18V5.22708H0ZM7.67812 0V13H10.3781V0H7.67812Z" fill="#C8102E"/>
</g>
<defs>
<clipPath id="clip0_33_1937">
<rect width="18" height="13" fill="white"/>
</clipPath>
</defs>
</svg>
