<svg width="18" height="15" viewBox="0 0 18 15" fill="none" xmlns="http://www.w3.org/2000/svg">
<g clip-path="url(#clip0_33_2284)">
<path d="M0 0.75H18V5.25H0V0.75Z" fill="#FF9933"/>
<path d="M0 5.25H18V9.75H0V5.25Z" fill="white"/>
<path d="M0 9.75H18V14.25H0V9.75Z" fill="#128807"/>
<path d="M8.99995 9.3002C9.99406 9.3002 10.8 8.49431 10.8 7.5002C10.8 6.50608 9.99406 5.7002 8.99995 5.7002C8.00584 5.7002 7.19995 6.50608 7.19995 7.5002C7.19995 8.49431 8.00584 9.3002 8.99995 9.3002Z" fill="#000088"/>
<path d="M8.99999 9.07529C9.86984 9.07529 10.575 8.37014 10.575 7.50029C10.575 6.63044 9.86984 5.92529 8.99999 5.92529C8.13014 5.92529 7.42499 6.63044 7.42499 7.50029C7.42499 8.37014 8.13014 9.07529 8.99999 9.07529Z" fill="white"/>
<path d="M9 7.81506C9.17397 7.81506 9.315 7.67403 9.315 7.50006C9.315 7.32609 9.17397 7.18506 9 7.18506C8.82603 7.18506 8.685 7.32609 8.685 7.50006C8.685 7.67403 8.82603 7.81506 9 7.81506Z" fill="#000088"/>
<path d="M10.551 7.7874C10.5953 7.79324 10.636 7.76202 10.6419 7.71766C10.6477 7.67331 10.6165 7.63262 10.5721 7.62678C10.5278 7.62094 10.4871 7.65217 10.4812 7.69652C10.4754 7.74087 10.5066 7.78156 10.551 7.7874Z" fill="#000088"/>
<path d="M9.00004 9.07615L9.05404 8.13115L9.00004 7.68115L8.94604 8.13115L9.00004 9.07615Z" fill="#000088"/>
<path d="M10.424 8.17871C10.4653 8.19583 10.5127 8.17621 10.5298 8.13488C10.5469 8.09355 10.5273 8.04616 10.486 8.02904C10.4446 8.01192 10.3973 8.03155 10.3801 8.07288C10.363 8.11421 10.3826 8.16159 10.424 8.17871Z" fill="#000088"/>
<path d="M8.59241 9.02209L8.88916 8.12326L8.95347 7.67462L8.78484 8.09531L8.59241 9.02209Z" fill="#000088"/>
<path d="M10.1999 8.52402C10.2354 8.55126 10.2862 8.54456 10.3135 8.50907C10.3407 8.47358 10.334 8.42273 10.2985 8.3955C10.263 8.36827 10.2122 8.37496 10.1849 8.41045C10.1577 8.44594 10.1644 8.49679 10.1999 8.52402Z" fill="#000088"/>
<path d="M8.21249 8.8645L8.73175 8.07311L8.90999 7.65639L8.63822 8.01911L8.21249 8.8645Z" fill="#000088"/>
<path d="M9.89411 8.80009C9.92135 8.83558 9.97219 8.84227 10.0077 8.81504C10.0432 8.78781 10.0499 8.73696 10.0226 8.70147C9.9954 8.66598 9.94456 8.65928 9.90907 8.68652C9.87358 8.71375 9.86688 8.7646 9.89411 8.80009Z" fill="#000088"/>
<path d="M7.8863 8.61444L8.5927 7.98441L8.87272 7.62803L8.51634 7.90804L7.8863 8.61444Z" fill="#000088"/>
<path d="M9.52732 8.98693C9.54444 9.02826 9.59183 9.04788 9.63316 9.03076C9.67449 9.01364 9.69411 8.96626 9.67699 8.92493C9.65987 8.8836 9.61249 8.86398 9.57116 8.8811C9.52983 8.89821 9.51021 8.9456 9.52732 8.98693Z" fill="#000088"/>
<path d="M7.63597 8.28772L8.48137 7.86199L8.84408 7.59022L8.42737 7.76846L7.63597 8.28772Z" fill="#000088"/>
<path d="M9.12468 9.07264C9.13052 9.117 9.17121 9.14822 9.21556 9.14238C9.25991 9.13654 9.29113 9.09585 9.28529 9.0515C9.27945 9.00715 9.23876 8.97592 9.19441 8.98176C9.15006 8.9876 9.11884 9.02829 9.12468 9.07264Z" fill="#000088"/>
<path d="M7.47864 7.90784L8.40542 7.71542L8.82611 7.54679L8.37747 7.6111L7.47864 7.90784Z" fill="#000088"/>
<path d="M8.71352 9.05135C8.70768 9.0957 8.7389 9.13639 8.78325 9.14223C8.8276 9.14807 8.86829 9.11685 8.87413 9.07249C8.87997 9.02814 8.84875 8.98745 8.8044 8.98161C8.76005 8.97578 8.71936 9.007 8.71352 9.05135Z" fill="#000088"/>
<path d="M7.42501 7.50029L8.37001 7.55429L8.82001 7.50029L8.37001 7.44629L7.42501 7.50029Z" fill="#000088"/>
<path d="M8.32184 8.92446C8.30472 8.96579 8.32434 9.01317 8.36567 9.03029C8.407 9.04741 8.45439 9.02779 8.47151 8.98646C8.48862 8.94513 8.469 8.89774 8.42767 8.88062C8.38634 8.8635 8.33896 8.88313 8.32184 8.92446Z" fill="#000088"/>
<path d="M7.47865 7.09296L8.37747 7.38971L8.82611 7.45402L8.40542 7.28539L7.47865 7.09296Z" fill="#000088"/>
<path d="M7.97646 8.69953C7.94923 8.73502 7.95593 8.78587 7.99142 8.8131C8.02691 8.84033 8.07775 8.83364 8.10499 8.79815C8.13222 8.76266 8.12553 8.71181 8.09004 8.68458C8.05454 8.65734 8.0037 8.66404 7.97646 8.69953Z" fill="#000088"/>
<path d="M7.63605 6.71206L8.42744 7.23132L8.84415 7.40956L8.48144 7.13779L7.63605 6.71206Z" fill="#000088"/>
<path d="M7.70077 8.39393C7.66528 8.42116 7.65858 8.47201 7.68581 8.5075C7.71305 8.54299 7.7639 8.54969 7.79939 8.52245C7.83488 8.49522 7.84157 8.44437 7.81434 8.40888C7.7871 8.37339 7.73626 8.3667 7.70077 8.39393Z" fill="#000088"/>
<path d="M7.88629 6.38575L8.51632 7.09215L8.8727 7.37217L8.59269 7.01579L7.88629 6.38575Z" fill="#000088"/>
<path d="M7.51362 8.02732C7.47229 8.04444 7.45267 8.09183 7.46979 8.13316C7.48691 8.17449 7.53429 8.19411 7.57562 8.17699C7.61695 8.15987 7.63657 8.11249 7.61945 8.07116C7.60233 8.02983 7.55495 8.01021 7.51362 8.02732Z" fill="#000088"/>
<path d="M8.21252 6.13579L8.63826 6.98118L8.91002 7.34389L8.73179 6.92718L8.21252 6.13579Z" fill="#000088"/>
<path d="M7.42778 7.62437C7.38343 7.63021 7.35221 7.6709 7.35805 7.71525C7.36389 7.7596 7.40458 7.79083 7.44893 7.78499C7.49328 7.77915 7.5245 7.73846 7.51866 7.69411C7.51282 7.64975 7.47214 7.61853 7.42778 7.62437Z" fill="#000088"/>
<path d="M8.5924 5.97852L8.78483 6.9053L8.95346 7.32599L8.88915 6.87735L8.5924 5.97852Z" fill="#000088"/>
<path d="M7.44902 7.21309C7.40466 7.20725 7.36398 7.23847 7.35814 7.28283C7.3523 7.32718 7.38352 7.36787 7.42787 7.3737C7.47222 7.37954 7.51291 7.34832 7.51875 7.30397C7.52459 7.25962 7.49337 7.21893 7.44902 7.21309Z" fill="#000088"/>
<path d="M8.99996 5.92434L8.94596 6.86934L8.99996 7.31934L9.05396 6.86934L8.99996 5.92434Z" fill="#000088"/>
<path d="M7.57603 6.82178C7.5347 6.80466 7.48732 6.82428 7.4702 6.86561C7.45308 6.90694 7.4727 6.95432 7.51403 6.97144C7.55536 6.98856 7.60275 6.96894 7.61986 6.92761C7.63698 6.88628 7.61736 6.83889 7.57603 6.82178Z" fill="#000088"/>
<path d="M9.40759 5.9784L9.11084 6.87722L9.04653 7.32587L9.21516 6.90518L9.40759 5.9784Z" fill="#000088"/>
<path d="M7.8001 6.47646C7.76461 6.44923 7.71377 6.45593 7.68653 6.49142C7.6593 6.52691 7.66599 6.57775 7.70149 6.60499C7.73698 6.63222 7.78782 6.62553 7.81506 6.59004C7.84229 6.55454 7.8356 6.5037 7.8001 6.47646Z" fill="#000088"/>
<path d="M9.78751 6.13599L9.26825 6.92738L9.09001 7.34409L9.36178 6.98138L9.78751 6.13599Z" fill="#000088"/>
<path d="M8.10589 6.2004C8.07865 6.16491 8.02781 6.15822 7.99231 6.18545C7.95682 6.21268 7.95013 6.26353 7.97736 6.29902C8.0046 6.33451 8.05544 6.3412 8.09093 6.31397C8.12642 6.28674 8.13312 6.23589 8.10589 6.2004Z" fill="#000088"/>
<path d="M10.1137 6.38605L9.4073 7.01608L9.12728 7.37246L9.48366 7.09245L10.1137 6.38605Z" fill="#000088"/>
<path d="M8.47268 6.01356C8.45556 5.97223 8.40817 5.95261 8.36684 5.96972C8.32551 5.98684 8.30589 6.03423 8.32301 6.07556C8.34013 6.11689 8.38751 6.13651 8.42884 6.11939C8.47017 6.10227 8.48979 6.05489 8.47268 6.01356Z" fill="#000088"/>
<path d="M10.364 6.71277L9.51863 7.1385L9.15592 7.41027L9.57263 7.23203L10.364 6.71277Z" fill="#000088"/>
<path d="M8.87532 5.92784C8.86948 5.88349 8.82879 5.85227 8.78444 5.85811C8.74009 5.86395 8.70887 5.90464 8.71471 5.94899C8.72055 5.99334 8.76124 6.02456 8.80559 6.01872C8.84994 6.01289 8.88116 5.9722 8.87532 5.92784Z" fill="#000088"/>
<path d="M10.5214 7.09265L9.59458 7.28507L9.17389 7.4537L9.62253 7.38939L10.5214 7.09265Z" fill="#000088"/>
<path d="M9.28648 5.94914C9.29232 5.90479 9.2611 5.8641 9.21675 5.85826C9.1724 5.85242 9.13171 5.88364 9.12587 5.92799C9.12003 5.97235 9.15125 6.01303 9.1956 6.01887C9.23995 6.02471 9.28064 5.99349 9.28648 5.94914Z" fill="#000088"/>
<path d="M10.575 7.5002L9.62999 7.4462L9.17999 7.5002L9.62999 7.5542L10.575 7.5002Z" fill="#000088"/>
<path d="M9.67816 6.07603C9.69528 6.0347 9.67566 5.98732 9.63433 5.9702C9.593 5.95308 9.54561 5.9727 9.52849 6.01403C9.51138 6.05536 9.531 6.10275 9.57233 6.11986C9.61366 6.13698 9.66104 6.11736 9.67816 6.07603Z" fill="#000088"/>
<path d="M10.5214 7.90753L9.62253 7.61078L9.17389 7.54647L9.59458 7.7151L10.5214 7.90753Z" fill="#000088"/>
<path d="M10.0235 6.30047C10.0508 6.26498 10.0441 6.21413 10.0086 6.1869C9.97309 6.15967 9.92225 6.16636 9.89501 6.20185C9.86778 6.23734 9.87447 6.28819 9.90996 6.31542C9.94546 6.34266 9.9963 6.33596 10.0235 6.30047Z" fill="#000088"/>
<path d="M10.364 8.28794L9.57256 7.76868L9.15585 7.59044L9.51856 7.86221L10.364 8.28794Z" fill="#000088"/>
<path d="M10.2992 6.60607C10.3347 6.57884 10.3414 6.52799 10.3142 6.4925C10.287 6.45701 10.2361 6.45031 10.2006 6.47755C10.1651 6.50478 10.1584 6.55563 10.1857 6.59112C10.2129 6.62661 10.2637 6.6333 10.2992 6.60607Z" fill="#000088"/>
<path d="M10.1137 8.61425L9.48368 7.90785L9.1273 7.62783L9.40731 7.98421L10.1137 8.61425Z" fill="#000088"/>
<path d="M10.4864 6.97268C10.5277 6.95556 10.5473 6.90817 10.5302 6.86684C10.5131 6.82551 10.4657 6.80589 10.4244 6.82301C10.3831 6.84013 10.3634 6.88751 10.3805 6.92884C10.3977 6.97017 10.445 6.98979 10.4864 6.97268Z" fill="#000088"/>
<path d="M9.78748 8.86421L9.36174 8.01882L9.08998 7.65611L9.26821 8.07282L9.78748 8.86421Z" fill="#000088"/>
<path d="M10.5722 7.37563C10.6166 7.36979 10.6478 7.3291 10.642 7.28475C10.6361 7.2404 10.5954 7.20917 10.5511 7.21501C10.5067 7.22085 10.4755 7.26154 10.4813 7.30589C10.4872 7.35025 10.5279 7.38147 10.5722 7.37563Z" fill="#000088"/>
<path d="M9.4076 9.02148L9.21517 8.0947L9.04654 7.67401L9.11085 8.12265L9.4076 9.02148Z" fill="#000088"/>
</g>
<defs>
<clipPath id="clip0_33_2284">
<rect width="18" height="13.5" fill="white" transform="translate(0 0.75)"/>
</clipPath>
</defs>
</svg>
