<svg width="22" height="20" viewBox="0 0 22 20" fill="none" xmlns="http://www.w3.org/2000/svg">
<g clip-path="url(#clip0_2042_183)">
<g clip-path="url(#clip1_2042_183)">
<g clip-path="url(#clip2_2042_183)">
<mask id="mask0_2042_183" style="mask-type:luminance" maskUnits="userSpaceOnUse" x="0" y="0" width="22" height="20">
<path d="M21.5 0H0.5V20H21.5V0Z" fill="white"/>
</mask>
<g mask="url(#mask0_2042_183)">
<path d="M11.0005 0C13.8523 0 14.2098 0.01106 15.3296 0.06083C16.4471 0.109494 17.2106 0.279818 17.878 0.528668C18.5687 0.786366 19.1545 1.13033 19.7381 1.68997C20.3217 2.2496 20.6813 2.81145 20.9494 3.47395C21.2087 4.11432 21.3863 4.84649 21.4371 5.91821C21.4878 6.99213 21.4999 7.33499 21.4999 10.0701C21.4999 12.8053 21.4878 13.1481 21.4371 14.2221C21.3863 15.2938 21.2087 16.0259 20.9494 16.6663C20.6813 17.3288 20.3217 17.8895 19.7381 18.4503C19.1545 19.0099 18.5687 19.3539 17.878 19.6116C17.2106 19.8604 16.4471 20.0308 15.3296 20.0794C14.2098 20.1281 13.8523 20.1403 11.0005 20.1403C8.1486 20.1403 7.79115 20.1292 6.67137 20.0794C5.55379 20.0308 4.79035 19.8604 4.1229 19.6116C3.43227 19.3539 2.84645 19.0099 2.26284 18.4503C1.67923 17.8907 1.31958 17.3288 1.05149 16.6663C0.792231 16.0259 0.61461 15.2938 0.563861 14.2221C0.513112 13.1481 0.500977 12.8053 0.500977 10.0701C0.500977 7.33499 0.513112 6.99213 0.563861 5.91821C0.61461 4.84649 0.792231 4.11432 1.05149 3.47395C1.31958 2.81145 1.67923 2.25071 2.26284 1.68997C2.84645 1.13033 3.43227 0.786366 4.1229 0.528668C4.79035 0.279818 5.55379 0.109494 6.67137 0.06083C7.79115 0.012166 8.1486 0 11.0005 0ZM11.0005 1.81384C8.19604 1.81384 7.86397 1.82379 6.75742 1.87246C5.73362 1.9167 5.17759 2.08149 4.80801 2.21864C4.31817 2.40113 3.96844 2.61901 3.60107 2.97182C3.23369 3.32464 3.00642 3.65975 2.81556 4.1298C2.67214 4.48483 2.50114 5.01792 2.4537 6.00005C2.40295 7.06181 2.39192 7.38034 2.39192 10.069C2.39192 12.7577 2.40295 13.0762 2.4537 14.138C2.50004 15.1201 2.67104 15.6532 2.81556 16.0082C3.00642 16.4783 3.23369 16.8134 3.60107 17.1662C3.96844 17.519 4.31817 17.7369 4.80801 17.9194C5.17759 18.0577 5.73362 18.2213 6.75742 18.2656C7.86507 18.3143 8.19714 18.3242 11.0005 18.3242C13.8049 18.3242 14.137 18.3143 15.2435 18.2656C16.2673 18.2213 16.8233 18.0566 17.1929 17.9194C17.6828 17.7369 18.0325 17.519 18.3999 17.1662C18.7672 16.8134 18.9945 16.4783 19.1854 16.0082C19.3288 15.6532 19.4998 15.1201 19.5472 14.138C19.598 13.0762 19.609 12.7577 19.609 10.069C19.609 7.38034 19.598 7.06181 19.5472 6.00005C19.5009 5.01792 19.3299 4.48483 19.1854 4.1298C18.9945 3.65975 18.7672 3.32464 18.3999 2.97182C18.0325 2.61901 17.6828 2.40113 17.1929 2.21864C16.8233 2.08039 16.2673 1.9167 15.2435 1.87246C14.1359 1.82379 13.8038 1.81384 11.0005 1.81384ZM11.0005 4.89847C13.9781 4.89847 16.3931 7.21333 16.3931 10.069C16.3931 12.9247 13.9792 15.2396 11.0005 15.2396C8.02283 15.2396 5.60785 12.9247 5.60785 10.069C5.60785 7.21333 8.02173 4.89847 11.0005 4.89847ZM11.0005 13.4257C12.9333 13.4257 14.501 11.9227 14.501 10.069C14.501 8.21537 12.9344 6.71231 11.0005 6.71231C9.06759 6.71231 7.4999 8.21537 7.4999 10.069C7.4999 11.9227 9.06649 13.4257 11.0005 13.4257ZM17.8659 4.69386C17.8659 5.36078 17.3021 5.90272 16.606 5.90272C15.9099 5.90272 15.3461 5.36189 15.3461 4.69386C15.3461 4.02695 15.9099 3.48501 16.606 3.48501C17.3021 3.48501 17.8659 4.02584 17.8659 4.69386Z" fill="#241C15"/>
</g>
</g>
</g>
</g>
<defs>
<clipPath id="clip0_2042_183">
<rect width="21" height="20" fill="white" transform="translate(0.5)"/>
</clipPath>
<clipPath id="clip1_2042_183">
<rect width="21" height="20" fill="white" transform="translate(0.5)"/>
</clipPath>
<clipPath id="clip2_2042_183">
<rect width="21" height="20" fill="white" transform="translate(0.5)"/>
</clipPath>
</defs>
</svg>
