<svg width="21" height="20" viewBox="0 0 21 20" fill="none" xmlns="http://www.w3.org/2000/svg">
<g clip-path="url(#clip0_2042_194)">
<g clip-path="url(#clip1_2042_194)">
<mask id="mask0_2042_194" style="mask-type:luminance" maskUnits="userSpaceOnUse" x="0" y="0" width="21" height="20">
<path d="M20.5 0H0.5V20H20.5V0Z" fill="white"/>
</mask>
<g mask="url(#mask0_2042_194)">
<path fill-rule="evenodd" clip-rule="evenodd" d="M17.5428 17.0422H14.5772V12.4006C14.5772 11.2939 14.5578 9.87 13.0356 9.87C11.4922 9.87 11.2567 11.0761 11.2567 12.3217V17.0422H8.29388V7.49778H11.1372V8.80278H11.1778C11.5733 8.05222 12.5417 7.26111 13.985 7.26111C16.9878 7.26111 17.5428 9.23722 17.5428 11.8078V17.0422ZM4.94889 6.19389C3.99611 6.19389 3.22833 5.42333 3.22833 4.47333C3.22833 3.52389 3.99611 2.75333 4.94889 2.75333C5.89778 2.75333 6.66834 3.52389 6.66834 4.47333C6.66834 5.42333 5.89778 6.19389 4.94889 6.19389ZM3.46388 17.0422H6.43278V7.49778H3.46388V17.0422ZM19.02 0H1.97556C1.16167 0 0.5 0.645556 0.5 1.44222V18.5567C0.5 19.3533 1.16167 20 1.97556 20H19.02C19.8361 20 20.4994 19.3533 20.4994 18.5567V1.44222C20.4994 0.645556 19.8361 0 19.02 0Z" fill="#241C15"/>
</g>
</g>
</g>
<defs>
<clipPath id="clip0_2042_194">
<rect width="20" height="20" fill="white" transform="translate(0.5)"/>
</clipPath>
<clipPath id="clip1_2042_194">
<rect width="20" height="20" fill="white" transform="translate(0.5)"/>
</clipPath>
</defs>
</svg>
