<svg width="21" height="20" viewBox="0 0 21 20" fill="none" xmlns="http://www.w3.org/2000/svg">
<g clip-path="url(#clip0_2042_214)">
<g clip-path="url(#clip1_2042_214)">
<g clip-path="url(#clip2_2042_214)">
<mask id="mask0_2042_214" style="mask-type:luminance" maskUnits="userSpaceOnUse" x="0" y="0" width="21" height="20">
<path d="M20.5 0H0.5V20H20.5V0Z" fill="white"/>
</mask>
<g mask="url(#mask0_2042_214)">
<path d="M10.5 0C4.97059 0 0.5 4.47059 0.5 10C0.5 14.2353 3.08824 17.8824 6.85294 19.2941C6.73529 18.4706 6.73529 17.2941 6.85294 16.4706C7.08824 15.6471 8.02941 11.5294 8.02941 11.5294C8.02941 11.5294 7.79412 10.8235 7.79412 10C7.79412 8.58824 8.61765 7.52941 9.55882 7.52941C10.3823 7.52941 10.8529 8.11765 10.8529 8.94118C10.8529 9.76471 10.2647 11.0588 10.0294 12.2353C9.79412 13.2941 10.5 14.1176 11.4412 14.1176C13.2059 14.1176 14.6176 12.2353 14.6176 9.52941C14.6176 7.17647 12.8529 5.41176 10.3823 5.41176C7.55882 5.52941 5.91176 7.64706 5.91176 9.76471C5.91176 10.5882 6.26471 11.5294 6.61765 12C6.73529 12.1176 6.73529 12.2353 6.73529 12.2353C6.61765 12.5882 6.5 13.1765 6.5 13.4118C6.5 13.6471 6.38235 13.6471 6.14706 13.5294C4.85294 12.9412 4.14706 11.1765 4.14706 9.64706C4.14706 6.47059 6.38235 3.64706 10.7353 3.64706C14.1471 3.64706 16.8529 6.11765 16.8529 9.41177C16.8529 12.8235 14.7353 15.6471 11.6765 15.6471C10.6176 15.6471 9.67647 15.1765 9.44118 14.4706L8.85294 16.8235C8.61765 17.6471 8.02941 18.8235 7.55882 19.4118C8.5 19.8824 9.44118 20 10.5 20C16.0294 20 20.5 15.5294 20.5 10C20.5 4.47059 16.0294 0 10.5 0Z" fill="#241C15"/>
</g>
</g>
</g>
</g>
<defs>
<clipPath id="clip0_2042_214">
<rect width="20" height="20" fill="white" transform="translate(0.5)"/>
</clipPath>
<clipPath id="clip1_2042_214">
<rect width="20" height="20" fill="white" transform="translate(0.5)"/>
</clipPath>
<clipPath id="clip2_2042_214">
<rect width="20" height="20" fill="white" transform="translate(0.5)"/>
</clipPath>
</defs>
</svg>
