<svg width="30" height="20" viewBox="0 0 30 20" fill="none" xmlns="http://www.w3.org/2000/svg">
<g clip-path="url(#clip0_2042_203)">
<g clip-path="url(#clip1_2042_203)">
<g clip-path="url(#clip2_2042_203)">
<mask id="mask0_2042_203" style="mask-type:luminance" maskUnits="userSpaceOnUse" x="0" y="0" width="30" height="20">
<path d="M29.5 0H0.5V20H29.5V0Z" fill="white"/>
</mask>
<g mask="url(#mask0_2042_203)">
<path d="M12.0052 13.6883L12.0038 5.69841L19.8395 9.70741L12.0052 13.6883ZM29.2105 4.31425C29.2105 4.31425 28.9267 2.35476 28.0583 1.49247C26.9557 0.360107 25.7198 0.35448 25.1522 0.288367C21.0939 0 15.0064 0 15.0064 0H14.9936C14.9936 0 8.90613 0 4.8478 0.288367C4.2802 0.35448 3.04568 0.360107 1.9417 1.49247C1.07327 2.35476 0.789475 4.31425 0.789475 4.31425C0.789475 4.31425 0.5 6.61556 0.5 8.91687V11.0747C0.5 13.376 0.789475 15.6773 0.789475 15.6773C0.789475 15.6773 1.07186 17.6368 1.9417 18.4991C3.04568 19.6315 4.49447 19.5963 5.14011 19.7144C7.46017 19.9325 15.0007 20 15.0007 20C15.0007 20 21.0939 19.9916 25.1522 19.7032C25.7184 19.6371 26.9543 19.6315 28.0583 18.4977C28.9267 17.6354 29.2105 15.6759 29.2105 15.6759C29.2105 15.6759 29.5 13.376 29.5 11.0733V8.91546C29.5 6.61556 29.2105 4.31425 29.2105 4.31425Z" fill="#241C15"/>
<path d="M12.0014 13.6891L12 5.69922L19.8357 9.70822L12.0014 13.6891Z" fill="white"/>
</g>
</g>
</g>
</g>
<defs>
<clipPath id="clip0_2042_203">
<rect width="29" height="20" fill="white" transform="translate(0.5)"/>
</clipPath>
<clipPath id="clip1_2042_203">
<rect width="29" height="20" fill="white" transform="translate(0.5)"/>
</clipPath>
<clipPath id="clip2_2042_203">
<rect width="29" height="20" fill="white" transform="translate(0.5)"/>
</clipPath>
</defs>
</svg>
